<?xml version="1.0" standalone="no"?>
<!DOCTYPE svg PUBLIC "-//W3C//DTD SVG 20010904//EN"
 "http://www.w3.org/TR/2001/REC-SVG-20010904/DTD/svg10.dtd">
<svg version="1.0" xmlns="http://www.w3.org/2000/svg"
 width="1024.000000pt" height="1024.000000pt" viewBox="0 0 1024.000000 1024.000000"
 preserveAspectRatio="xMidYMid meet">

<g transform="translate(0.000000,1024.000000) scale(0.100000,-0.100000)"
fill="#000000" stroke="none">
<path d="M3461 7760 c-1 -45 -43 -250 -51 -250 -4 0 -36 9 -71 19 -362 110
-774 135 -1164 71 -997 -163 -1841 -954 -2096 -1960 -77 -304 -100 -660 -60
-932 73 -502 263 -931 580 -1310 384 -458 968 -773 1556 -838 115 -13 491 -10
460 4 -75 32 -133 66 -189 111 -59 47 -74 53 -153 69 -270 53 -620 261 -912
541 -330 317 -571 720 -676 1130 -220 855 27 1620 700 2171 137 112 377 247
570 319 279 104 624 151 930 126 164 -13 315 -38 331 -55 8 -8 6 -33 -9 -94
-18 -75 -25 -90 -73 -142 -51 -54 -54 -61 -54 -109 l0 -51 39 0 c22 0 52 -5
67 -10 l27 -11 -6 -98 -6 -98 251 -7 c138 -3 252 -5 254 -3 2 2 7 72 11 156 7
168 12 181 67 181 20 0 40 8 50 19 22 24 12 47 -47 109 -51 53 -41 53 100 6
236 -78 422 -191 583 -355 l105 -107 105 -6 c58 -4 120 -10 139 -13 32 -5 33
-5 20 18 -7 13 -42 65 -78 114 -313 431 -619 696 -1051 908 -102 50 -187 92
-189 93 -2 2 -12 63 -23 136 -19 133 -36 201 -37 148z"/>
<path d="M1920 6266 c-324 -69 -623 -312 -789 -644 -38 -76 -93 -239 -116
-342 -22 -102 -31 -378 -15 -476 30 -186 111 -344 244 -475 64 -64 169 -134
236 -158 171 -62 389 -52 547 25 48 23 53 29 67 77 35 121 123 535 115 541 -6
4 -301 48 -303 44 -2 -2 -13 -51 -25 -109 -12 -59 -27 -124 -32 -144 l-11 -38
-55 7 c-177 21 -275 185 -260 439 11 189 58 381 127 517 107 212 292 340 456
315 l46 -6 -7 -42 c-4 -23 -25 -118 -46 -212 -22 -93 -43 -184 -45 -200 l-6
-31 147 -20 147 -20 8 20 c4 12 49 197 99 411 51 215 95 398 97 407 7 24 -75
64 -195 95 -120 31 -330 40 -431 19z"/>
<path d="M9490 6265 c-337 -72 -541 -314 -543 -645 -2 -162 41 -279 156 -430
75 -99 251 -345 354 -495 87 -125 106 -181 105 -309 -2 -165 -54 -300 -156
-402 -87 -86 -155 -117 -271 -122 -78 -4 -99 -1 -143 18 -56 24 -108 75 -118
116 -11 45 2 112 30 149 43 56 68 67 145 67 l68 -1 37 170 c21 94 36 172 34
174 -18 19 -127 48 -193 52 -211 13 -428 -95 -543 -271 -114 -175 -121 -422
-17 -600 61 -104 237 -233 344 -251 23 -4 41 -10 41 -14 0 -12 -185 -42 -324
-52 -220 -16 -475 15 -651 78 -257 93 -484 271 -685 538 -72 95 -244 375 -420
684 l-94 163 30 27 c17 14 75 62 129 106 218 177 319 371 318 615 0 187 -44
302 -163 420 -122 122 -256 175 -520 207 -231 27 -580 8 -691 -38 -25 -10 -28
-20 -67 -217 -22 -114 -86 -421 -141 -682 -55 -261 -168 -799 -250 -1195 -83
-396 -157 -748 -165 -783 -11 -48 -12 -64 -3 -68 7 -2 131 -3 277 -2 l265 3
36 185 c20 102 50 262 68 355 18 94 60 311 94 482 l61 313 36 11 c19 6 82 29
138 52 86 33 105 38 113 26 5 -8 32 -66 60 -129 29 -63 88 -194 131 -290 172
-380 344 -635 579 -853 277 -258 567 -390 1012 -459 204 -31 566 -32 747 0
395 68 672 196 915 423 314 295 496 727 455 1083 -29 252 -89 370 -395 781
-226 305 -235 320 -235 422 0 156 149 243 303 176 45 -19 46 -28 17 -174 -11
-57 -18 -104 -16 -106 2 -2 56 -19 120 -37 80 -23 119 -30 121 -22 2 6 20 81
40 166 44 188 104 439 110 461 7 21 -107 73 -235 106 -119 31 -347 41 -450 18z
m-3090 -446 c61 -18 135 -92 150 -150 46 -170 -73 -372 -285 -481 -84 -43
-223 -93 -232 -84 -4 4 71 377 122 605 14 63 25 115 25 117 0 17 157 12 220
-7z"/>
<path d="M4465 6259 c-44 -5 -122 -18 -172 -30 -110 -25 -87 29 -177 -414 -36
-176 -108 -522 -161 -770 -81 -378 -133 -624 -207 -982 -13 -66 -8 -73 80
-108 72 -29 218 -105 321 -167 35 -22 64 -38 66 -36 2 2 22 100 44 218 68 348
102 523 108 548 5 21 10 22 103 22 286 0 507 95 721 309 100 101 145 163 203
278 109 217 128 528 44 734 -73 180 -248 324 -453 374 -132 32 -348 42 -520
24z m361 -454 c53 -22 79 -48 105 -108 60 -136 -2 -441 -115 -573 -49 -57
-125 -104 -204 -126 -80 -22 -147 -24 -139 -5 3 8 42 191 86 408 45 217 84
402 88 413 5 17 12 18 73 13 37 -3 85 -13 106 -22z"/>
<path d="M7948 6260 c-279 -50 -535 -275 -689 -605 -47 -100 -112 -292 -134
-395 -25 -115 -35 -291 -25 -405 35 -366 211 -615 490 -691 89 -25 290 -25
380 -1 345 93 649 460 764 925 49 196 63 357 47 508 -37 332 -196 548 -470
641 -62 21 -99 26 -196 29 -66 2 -141 -1 -167 -6z m190 -419 c127 -66 144
-282 52 -666 -81 -341 -180 -545 -287 -591 -49 -21 -129 -18 -169 7 -46 28
-84 110 -94 201 -24 207 68 654 176 859 91 174 214 246 322 190z"/>
<path d="M3050 6183 c-32 -67 -137 -305 -307 -693 -181 -413 -492 -1109 -534
-1193 -24 -49 -59 -107 -78 -129 -47 -55 -132 -94 -242 -109 l-88 -13 -11 -53
c-62 -295 -135 -716 -126 -719 6 -2 114 -3 240 -2 l229 3 81 157 c45 86 142
283 216 437 l135 279 55 4 55 3 69 157 c52 116 75 158 90 162 12 3 99 6 195 6
l174 0 -8 -127 c-4 -71 -8 -141 -9 -158 l-1 -30 140 -6 c129 -6 261 -29 337
-58 26 -10 27 -10 33 42 26 227 61 1533 50 1870 l-7 237 -328 0 -328 0 -32
-67z m215 -914 c-15 -184 -28 -344 -31 -356 -4 -22 -8 -23 -124 -23 -66 0
-120 4 -120 8 0 5 29 72 64 151 36 79 102 237 148 351 45 115 84 207 86 206 1
-2 -9 -154 -23 -337z"/>
<path d="M3085 3949 c-226 -30 -428 -130 -586 -290 -138 -139 -189 -252 -197
-437 -8 -200 32 -318 149 -435 163 -164 392 -199 578 -88 68 40 128 93 86 76
-133 -55 -239 -61 -322 -20 -130 65 -211 227 -182 365 24 116 115 257 214 332
124 94 254 142 385 141 104 0 174 -18 345 -88 226 -93 315 -139 515 -267 413
-264 751 -430 985 -484 59 -14 120 -19 230 -19 169 0 217 11 395 89 105 46
274 136 268 142 -2 2 -28 -4 -58 -12 -78 -22 -314 -30 -403 -14 -214 38 -401
134 -1022 525 -254 160 -401 245 -503 292 -120 55 -362 141 -475 168 -117 29
-292 39 -402 24z"/>
</g>
</svg>
