<svg width="404" height="452" viewBox="0 0 404 452" fill="none" xmlns="http://www.w3.org/2000/svg">
<path d="M175.807 390.215C177.604 389.395 178.502 387.773 178.502 385.352C178.502 382.734 177.633 380.977 175.895 380.078C174.918 379.57 173.453 379.316 171.5 379.316H161.012V390.918H171.236C173.268 390.918 174.791 390.684 175.807 390.215Z" fill="#2500FF"/>
<path d="M207.524 390.83C208.735 391.963 209.409 393.633 209.546 395.84H196.567C196.841 393.77 197.505 392.129 198.56 390.918C199.634 389.707 201.138 389.102 203.071 389.102C204.849 389.102 206.333 389.678 207.524 390.83Z" fill="#2500FF"/>
<path d="M261.542 391.709C262.871 389.971 264.755 389.102 267.197 389.102C269.638 389.102 271.513 389.971 272.822 391.709C274.13 393.428 274.785 395.889 274.785 399.092C274.785 402.295 274.13 404.766 272.822 406.504C271.513 408.242 269.638 409.111 267.197 409.111C264.755 409.111 262.871 408.242 261.542 406.504C260.234 404.766 259.58 402.295 259.58 399.092C259.58 395.889 260.234 393.428 261.542 391.709Z" fill="#2500FF"/>
<path d="M312.85 406.299C311.678 404.541 311.092 402.188 311.092 399.238C311.092 396.504 311.658 394.219 312.791 392.383C313.943 390.527 315.74 389.6 318.182 389.6C319.783 389.6 321.189 390.107 322.4 391.123C324.373 392.803 325.359 395.596 325.359 399.502C325.359 402.295 324.744 404.57 323.514 406.328C322.283 408.086 320.486 408.965 318.123 408.965C315.76 408.965 314.002 408.076 312.85 406.299Z" fill="#2500FF"/>
<path fill-rule="evenodd" clip-rule="evenodd" d="M38 0C17.0132 0 0 17.0132 0 38V414C0 434.987 17.0132 452 38 452H366C386.987 452 404 434.987 404 414V38C404 17.0132 386.987 0 366 0H38ZM215 327C245.235 327 274.231 313.672 295.61 289.949C316.989 266.226 329 234.05 329 200.5C329 166.95 316.989 134.774 295.61 111.051C274.231 87.3276 245.235 74 215 74V153.904C210.714 152.664 206.185 152 201.5 152C174.714 152 153 173.714 153 200.5C153 227.286 174.714 249 201.5 249C206.185 249 210.714 248.336 215 247.096V327ZM56.6758 416.201C61.6953 416.201 65.8164 414.727 69.0391 411.777C72.2422 408.828 74.2344 405 75.0156 400.293H66.0801C65.4746 402.52 64.7129 404.189 63.7949 405.303C62.1348 407.373 59.7227 408.408 56.5586 408.408C53.4727 408.408 50.9238 407.207 48.9121 404.805C46.9199 402.383 45.9238 398.75 45.9238 393.906C45.9238 389.062 46.8711 385.322 48.7656 382.686C50.6602 380.029 53.248 378.701 56.5293 378.701C59.752 378.701 62.1836 379.639 63.8242 381.514C64.7422 382.568 65.4941 384.131 66.0801 386.201H75.1035C74.9668 383.506 73.9707 380.82 72.1152 378.145C68.7559 373.379 63.4434 370.996 56.1777 370.996C50.748 370.996 46.2754 372.773 42.7598 376.328C38.7168 380.41 36.6953 386.221 36.6953 393.76C36.6953 400.732 38.4727 406.221 42.0273 410.225C45.582 414.209 50.4648 416.201 56.6758 416.201ZM97.4209 410.646C97.4712 410.573 97.5088 410.52 97.5342 410.488V415H105.649V383.066H97.1826V400.439C97.1826 402.49 96.9092 404.141 96.3623 405.391C95.3076 407.695 93.3545 408.848 90.5029 408.848C88.2764 408.848 86.7822 408.037 86.0205 406.416C85.5908 405.498 85.376 404.131 85.376 402.314V383.066H76.8213V402.314C76.8213 405.967 77.2803 408.73 78.1982 410.605C79.8389 414.004 83.0225 415.703 87.749 415.703C89.3896 415.703 90.8154 415.488 92.0264 415.059C93.2568 414.629 94.5264 413.828 95.835 412.656C96.2646 412.285 96.6357 411.855 96.9482 411.367C97.1592 411.038 97.3164 410.797 97.4209 410.646ZM108.711 371.816H117.061V415H108.711V371.816ZM136.654 415.293V409.053C136.38 409.072 136.097 409.092 135.804 409.111H135.013C133.314 409.111 132.298 408.955 131.966 408.643C131.634 408.311 131.468 407.49 131.468 406.182V389.307H136.654V383.359H131.468V374.453H123.207V383.359H118.753V389.307H123.207V408.965C123.207 410.957 123.675 412.432 124.613 413.389C126.058 414.893 128.753 415.576 132.699 415.439L136.654 415.293ZM170.328 398.066H161.012V415H152.193V371.816H173.375C176.402 371.875 178.727 372.246 180.348 372.93C181.988 373.613 183.375 374.619 184.508 375.947C185.445 377.041 186.188 378.252 186.734 379.58C187.281 380.908 187.555 382.422 187.555 384.121C187.555 386.172 187.037 388.193 186.002 390.186C184.967 392.158 183.258 393.555 180.875 394.375C182.867 395.176 184.273 396.318 185.094 397.803C185.934 399.268 186.354 401.514 186.354 404.541V407.441C186.354 409.414 186.432 410.752 186.588 411.455C186.822 412.568 187.369 413.389 188.229 413.916V415H178.297C178.023 414.043 177.828 413.271 177.711 412.686C177.477 411.475 177.35 410.234 177.33 408.965L177.271 404.951C177.232 402.197 176.725 400.361 175.748 399.443C174.791 398.525 172.984 398.066 170.328 398.066ZM214.849 411.396C216.606 409.443 217.593 407.52 217.808 405.625H209.282C208.833 406.562 208.315 407.295 207.729 407.822C206.655 408.799 205.259 409.287 203.54 409.287C201.919 409.287 200.532 408.887 199.38 408.086C197.485 406.797 196.479 404.551 196.362 401.348H218.218C218.257 398.594 218.169 396.484 217.954 395.02C217.583 392.52 216.772 390.322 215.522 388.428C214.136 386.279 212.378 384.707 210.249 383.711C208.12 382.715 205.728 382.217 203.071 382.217C198.599 382.217 194.956 383.691 192.144 386.641C189.351 389.59 187.954 393.828 187.954 399.355C187.954 405.254 189.507 409.512 192.612 412.129C195.718 414.746 199.302 416.055 203.364 416.055C208.286 416.055 212.114 414.502 214.849 411.396ZM249.299 394.521H240.745C240.588 393.33 240.188 392.256 239.543 391.299C238.606 390.01 237.151 389.365 235.178 389.365C232.366 389.365 230.442 390.762 229.407 393.555C228.86 395.039 228.586 397.012 228.586 399.473C228.586 401.816 228.86 403.701 229.407 405.127C230.403 407.783 232.278 409.111 235.032 409.111C236.985 409.111 238.372 408.584 239.192 407.529C240.012 406.475 240.51 405.107 240.686 403.428H249.211C249.016 405.967 248.098 408.369 246.458 410.635C243.84 414.287 239.963 416.113 234.827 416.113C229.69 416.113 225.911 414.59 223.489 411.543C221.067 408.496 219.856 404.541 219.856 399.678C219.856 394.189 221.194 389.922 223.87 386.875C226.545 383.828 230.237 382.305 234.944 382.305C238.948 382.305 242.219 383.203 244.758 385C247.317 386.797 248.831 389.971 249.299 394.521ZM283.544 399.092C283.544 394.482 282.197 390.488 279.501 387.109C276.806 383.73 272.714 382.041 267.226 382.041C261.738 382.041 257.646 383.73 254.951 387.109C252.255 390.488 250.908 394.482 250.908 399.092C250.908 403.779 252.255 407.793 254.951 411.133C257.646 414.453 261.738 416.113 267.226 416.113C272.714 416.113 276.806 414.453 279.501 411.133C282.197 407.793 283.544 403.779 283.544 399.092ZM300.405 390.771C297.046 390.771 294.79 391.865 293.638 394.053C292.993 395.283 292.671 397.178 292.671 399.736V415H284.263V383.066H292.231V388.633C293.521 386.504 294.644 385.049 295.601 384.268C297.163 382.959 299.194 382.305 301.694 382.305C301.851 382.305 301.978 382.314 302.075 382.334C302.118 382.334 302.177 382.335 302.253 382.338L302.298 382.339C302.427 382.344 302.597 382.352 302.808 382.363V390.918C302.443 390.877 302.106 390.846 301.798 390.824C301.66 390.815 301.528 390.807 301.401 390.801C300.991 390.781 300.659 390.771 300.405 390.771ZM333.592 415V371.875H325.125V387.109C324.188 385.605 322.967 384.434 321.463 383.594C319.959 382.734 318.24 382.305 316.307 382.305C312.107 382.305 308.748 383.867 306.229 386.992C303.729 390.117 302.479 394.404 302.479 399.854C302.479 404.58 303.748 408.457 306.287 411.484C308.846 414.492 311.99 415.996 315.721 415.996C317.986 415.996 319.881 415.566 321.404 414.707C322.928 413.848 324.285 412.471 325.477 410.576V415H333.592ZM359.011 384.531C361.511 386.133 362.946 388.887 363.317 392.793H354.968C354.851 391.719 354.548 390.869 354.06 390.244C353.142 389.111 351.579 388.545 349.372 388.545C347.556 388.545 346.257 388.828 345.476 389.395C344.714 389.961 344.333 390.625 344.333 391.387C344.333 392.344 344.743 393.037 345.563 393.467C346.384 393.916 349.284 394.688 354.265 395.781C357.585 396.562 360.075 397.744 361.735 399.326C363.376 400.928 364.196 402.93 364.196 405.332C364.196 408.496 363.015 411.084 360.651 413.096C358.308 415.088 354.675 416.084 349.753 416.084C344.733 416.084 341.022 415.029 338.62 412.92C336.237 410.791 335.046 408.086 335.046 404.805H343.513C343.688 406.289 344.069 407.344 344.655 407.969C345.69 409.082 347.604 409.639 350.397 409.639C352.038 409.639 353.337 409.395 354.294 408.906C355.271 408.418 355.759 407.686 355.759 406.709C355.759 405.771 355.368 405.059 354.587 404.57C353.806 404.082 350.905 403.242 345.886 402.051C342.272 401.152 339.724 400.029 338.239 398.682C336.755 397.354 336.013 395.439 336.013 392.939C336.013 389.99 337.165 387.461 339.47 385.352C341.794 383.223 345.056 382.158 349.255 382.158C353.239 382.158 356.491 382.949 359.011 384.531ZM373.356 367.125V365H363V367.125H366.842V377H369.531V367.125H373.356ZM373.64 377H376.129V368.883C376.129 368.65 376.126 368.324 376.121 367.906C376.115 367.483 376.112 367.157 376.112 366.929L378.515 377H381.108L383.528 366.929C383.528 367.157 383.525 367.483 383.519 367.906C383.514 368.324 383.511 368.65 383.511 368.883V377H386V365H382.158L379.85 374.436L377.525 365H373.64V377Z" fill="#2500FF"/>
</svg>
