<svg width="783" height="226" viewBox="0 0 783 226" fill="none" xmlns="http://www.w3.org/2000/svg">
<path fill-rule="evenodd" clip-rule="evenodd" d="M617.344 218.284H516.744L606.823 3.85205H782.523V218.284H687.497V35.338H657.354V123.648L617.344 218.285V218.284ZM124.317 126.952V33.316L94.393 33.085V218.285H0V3.85205H182.96C196.73 3.85205 210.951 5.33806 221.724 16.1071C232.219 26.6021 237.54 44.729 237.54 69.984C237.54 100.64 230.94 119.323 218.465 124L217.135 124.5L264.984 218.283H164.529L124.317 126.955V126.952ZM395.431 225.664C285.373 225.984 277.303 209.616 276.987 107.532C276.835 58.769 279.315 33.005 293.822 18.452C309.461 2.76203 339.158 0 395.759 0C451.253 0 482.267 2.83302 497.759 18.33C511.071 31.63 513.521 54.05 513.559 96.001H410.232V33.09H380.423V192.251H410.237V126.775H513.563C513.47 210.386 504.272 225.348 395.43 225.664H395.431Z" fill="#2500FF"/>
</svg>
