<svg width="112" height="112" viewBox="0 0 112 112" fill="none" xmlns="http://www.w3.org/2000/svg">
<path d="M23.9992 14H20.9995V16.9997H23.9992V14Z" fill="black"/>
<path d="M27.0009 14H24.0012V16.9997H27.0009V14Z" fill="black"/>
<path d="M32.9996 14H29.999V16.9997H32.9996V14Z" fill="black"/>
<path d="M36.0004 14H33.0007V16.9997H36.0004V14Z" fill="black"/>
<path d="M41.9985 14H38.9988V16.9997H41.9985V14Z" fill="black"/>
<path d="M44.9998 14H41.9993V16.9997H44.9998V14Z" fill="black"/>
<path d="M51.0009 14H48.0012V16.9997H51.0009V14Z" fill="black"/>
<path d="M53.9985 14H50.9988V16.9997H53.9985V14Z" fill="black"/>
<path d="M60.0004 14H57.0007V16.9997H60.0004V14Z" fill="black"/>
<path d="M62.9982 14H59.9985V16.9997H62.9982V14Z" fill="black"/>
<path d="M69 14H66.0002V16.9997H69V14Z" fill="black"/>
<path d="M72.0012 14H69.0015V16.9997H72.0012V14Z" fill="black"/>
<path d="M20.9987 16.9998H17.999V20.0004H20.9987V16.9998Z" fill="black"/>
<path d="M23.9992 16.9998H20.9995V20.0004H23.9992V16.9998Z" fill="#F2F2F2"/>
<path d="M27.0009 16.9998H24.0012V20.0004H27.0009V16.9998Z" fill="black"/>
<path d="M30.0012 16.9998H27.0015V20.0004H30.0012V16.9998Z" fill="black"/>
<path d="M32.9996 16.9998H29.999V20.0004H32.9996V16.9998Z" fill="#F2F2F2"/>
<path d="M36.0004 16.9998H33.0007V20.0004H36.0004V16.9998Z" fill="black"/>
<path d="M39.0016 16.9998H36.001V20.0004H39.0016V16.9998Z" fill="black"/>
<path d="M41.9985 16.9998H38.9988V20.0004H41.9985V16.9998Z" fill="#F2F2F2"/>
<path d="M44.9998 16.9998H41.9993V20.0004H44.9998V16.9998Z" fill="black"/>
<path d="M48.0004 16.9998H45.0007V20.0004H48.0004V16.9998Z" fill="black"/>
<path d="M51.0009 16.9998H48.0012V20.0004H51.0009V16.9998Z" fill="#F2F2F2"/>
<path d="M53.9985 16.9998H50.9988V20.0004H53.9985V16.9998Z" fill="black"/>
<path d="M57 16.9998H54.0002V20.0004H57V16.9998Z" fill="black"/>
<path d="M60.0004 16.9998H57.0007V20.0004H60.0004V16.9998Z" fill="#F2F2F2"/>
<path d="M62.9982 16.9998H59.9985V20.0004H62.9982V16.9998Z" fill="black"/>
<path d="M66.0006 16.9998H63V20.0004H66.0006V16.9998Z" fill="black"/>
<path d="M69 16.9998H66.0002V20.0004H69V16.9998Z" fill="#F2F2F2"/>
<path d="M72.0012 16.9998H69.0015V20.0004H72.0012V16.9998Z" fill="black"/>
<path d="M74.9992 16.9998H71.9995V20.0004H74.9992V16.9998Z" fill="black"/>
<path d="M77.9997 16.9998H75V20.0004H77.9997V16.9998Z" fill="black"/>
<path d="M93.0009 16.9998H90.0012V20.0004H93.0009V16.9998Z" fill="black"/>
<path d="M95.9996 16.9998H92.999V20.0004H95.9996V16.9998Z" fill="black"/>
<path d="M18.0002 20.0005H15.0005V23.0002H18.0002V20.0005Z" fill="black"/>
<path d="M20.9987 20.0005H17.999V23.0002H20.9987V20.0005Z" fill="#F2F2F2"/>
<path d="M23.9992 20.0005H20.9995V23.0002H23.9992V20.0005Z" fill="black"/>
<path d="M27.0009 20.0005H24.0012V23.0002H27.0009V20.0005Z" fill="#F2F2F2"/>
<path d="M30.0012 20.0005H27.0015V23.0002H30.0012V20.0005Z" fill="#F2F2F2"/>
<path d="M32.9996 20.0005H29.999V23.0002H32.9996V20.0005Z" fill="black"/>
<path d="M36.0004 20.0005H33.0007V23.0002H36.0004V20.0005Z" fill="#F2F2F2"/>
<path d="M39.0016 20.0005H36.001V23.0002H39.0016V20.0005Z" fill="#F2F2F2"/>
<path d="M41.9985 20.0005H38.9988V23.0002H41.9985V20.0005Z" fill="black"/>
<path d="M44.9998 20.0005H41.9993V23.0002H44.9998V20.0005Z" fill="#F2F2F2"/>
<path d="M48.0004 20.0005H45.0007V23.0002H48.0004V20.0005Z" fill="#F2F2F2"/>
<path d="M51.0009 20.0005H48.0012V23.0002H51.0009V20.0005Z" fill="black"/>
<path d="M53.9985 20.0005H50.9988V23.0002H53.9985V20.0005Z" fill="#F2F2F2"/>
<path d="M57 20.0005H54.0002V23.0002H57V20.0005Z" fill="#F2F2F2"/>
<path d="M60.0004 20.0005H57.0007V23.0002H60.0004V20.0005Z" fill="black"/>
<path d="M62.9982 20.0005H59.9985V23.0002H62.9982V20.0005Z" fill="#F2F2F2"/>
<path d="M66.0006 20.0005H63V23.0002H66.0006V20.0005Z" fill="#F2F2F2"/>
<path d="M69 20.0005H66.0002V23.0002H69V20.0005Z" fill="black"/>
<path d="M72.0012 20.0005H69.0015V23.0002H72.0012V20.0005Z" fill="#F2F2F2"/>
<path d="M74.9992 20.0005H71.9995V23.0002H74.9992V20.0005Z" fill="black"/>
<path d="M77.9997 20.0005H75V23.0002H77.9997V20.0005Z" fill="#6F6F6F"/>
<path d="M81.0012 20.0005H78.0015V23.0002H81.0012V20.0005Z" fill="black"/>
<path d="M90.0007 20.0005H87.001V23.0002H90.0007V20.0005Z" fill="black"/>
<path d="M93.0009 20.0005H90.0012V23.0002H93.0009V20.0005Z" fill="#F65734"/>
<path d="M95.9996 20.0005H92.999V23.0002H95.9996V20.0005Z" fill="#F65734"/>
<path d="M99.0004 20.0005H96.0007V23.0002H99.0004V20.0005Z" fill="black"/>
<path d="M14.9997 23.0003H12V26.0009H14.9997V23.0003Z" fill="black"/>
<path d="M18.0002 23.0003H15.0005V26.0009H18.0002V23.0003Z" fill="#F2F2F2"/>
<path d="M20.9987 23.0003H17.999V26.0009H20.9987V23.0003Z" fill="#F2F2F2"/>
<path d="M23.9992 23.0003H20.9995V26.0009H23.9992V23.0003Z" fill="black"/>
<path d="M27.0009 23.0003H24.0012V26.0009H27.0009V23.0003Z" fill="#F2F2F2"/>
<path d="M30.0012 23.0003H27.0015V26.0009H30.0012V23.0003Z" fill="#F2F2F2"/>
<path d="M32.9996 23.0003H29.999V26.0009H32.9996V23.0003Z" fill="black"/>
<path d="M36.0004 23.0003H33.0007V26.0009H36.0004V23.0003Z" fill="#F2F2F2"/>
<path d="M39.0016 23.0003H36.001V26.0009H39.0016V23.0003Z" fill="#F2F2F2"/>
<path d="M41.9985 23.0003H38.9988V26.0009H41.9985V23.0003Z" fill="black"/>
<path d="M44.9998 23.0003H41.9993V26.0009H44.9998V23.0003Z" fill="#F2F2F2"/>
<path d="M48.0004 23.0003H45.0007V26.0009H48.0004V23.0003Z" fill="#F2F2F2"/>
<path d="M51.0009 23.0003H48.0012V26.0009H51.0009V23.0003Z" fill="black"/>
<path d="M53.9985 23.0003H50.9988V26.0009H53.9985V23.0003Z" fill="#F2F2F2"/>
<path d="M57 23.0003H54.0002V26.0009H57V23.0003Z" fill="#F2F2F2"/>
<path d="M60.0004 23.0003H57.0007V26.0009H60.0004V23.0003Z" fill="black"/>
<path d="M62.9982 23.0003H59.9985V26.0009H62.9982V23.0003Z" fill="#F2F2F2"/>
<path d="M66.0006 23.0003H63V26.0009H66.0006V23.0003Z" fill="#F2F2F2"/>
<path d="M69 23.0003H66.0002V26.0009H69V23.0003Z" fill="black"/>
<path d="M72.0012 23.0003H69.0015V26.0009H72.0012V23.0003Z" fill="#F2F2F2"/>
<path d="M74.9992 23.0003H71.9995V26.0009H74.9992V23.0003Z" fill="#F2F2F2"/>
<path d="M77.9997 23.0003H75V26.0009H77.9997V23.0003Z" fill="black"/>
<path d="M81.0012 23.0003H78.0015V26.0009H81.0012V23.0003Z" fill="#6F6F6F"/>
<path d="M83.9998 23.0003H80.9993V26.0009H83.9998V23.0003Z" fill="black"/>
<path d="M90.0007 23.0003H87.001V26.0009H90.0007V23.0003Z" fill="black"/>
<path d="M93.0009 23.0003H90.0012V26.0009H93.0009V23.0003Z" fill="#C51313"/>
<path d="M95.9996 23.0003H92.999V26.0009H95.9996V23.0003Z" fill="#C51313"/>
<path d="M99.0004 23.0003H96.0007V26.0009H99.0004V23.0003Z" fill="black"/>
<path d="M14.9997 25.9996H12V28.9993H14.9997V25.9996Z" fill="black"/>
<path d="M18.0002 25.9996H15.0005V28.9993H18.0002V25.9996Z" fill="#F2F2F2"/>
<path d="M20.9987 25.9996H17.999V28.9993H20.9987V25.9996Z" fill="#F2F2F2"/>
<path d="M23.9992 25.9996H20.9995V28.9993H23.9992V25.9996Z" fill="#F2F2F2"/>
<path d="M27.0009 25.9996H24.0012V28.9993H27.0009V25.9996Z" fill="#F2F2F2"/>
<path d="M30.0012 25.9996H27.0015V28.9993H30.0012V25.9996Z" fill="#F2F2F2"/>
<path d="M32.9996 25.9996H29.999V28.9993H32.9996V25.9996Z" fill="#F2F2F2"/>
<path d="M36.0004 25.9996H33.0007V28.9993H36.0004V25.9996Z" fill="#F2F2F2"/>
<path d="M39.0016 25.9996H36.001V28.9993H39.0016V25.9996Z" fill="#F2F2F2"/>
<path d="M41.9985 25.9996H38.9988V28.9993H41.9985V25.9996Z" fill="#F2F2F2"/>
<path d="M44.9998 25.9996H41.9993V28.9993H44.9998V25.9996Z" fill="#F2F2F2"/>
<path d="M48.0004 25.9996H45.0007V28.9993H48.0004V25.9996Z" fill="#F2F2F2"/>
<path d="M51.0009 25.9996H48.0012V28.9993H51.0009V25.9996Z" fill="#F2F2F2"/>
<path d="M53.9985 25.9996H50.9988V28.9993H53.9985V25.9996Z" fill="#F2F2F2"/>
<path d="M57 25.9996H54.0002V28.9993H57V25.9996Z" fill="#F2F2F2"/>
<path d="M60.0004 25.9996H57.0007V28.9993H60.0004V25.9996Z" fill="#F2F2F2"/>
<path d="M62.9982 25.9996H59.9985V28.9993H62.9982V25.9996Z" fill="#F2F2F2"/>
<path d="M66.0006 25.9996H63V28.9993H66.0006V25.9996Z" fill="#F2F2F2"/>
<path d="M69 25.9996H66.0002V28.9993H69V25.9996Z" fill="#F2F2F2"/>
<path d="M72.0012 25.9996H69.0015V28.9993H72.0012V25.9996Z" fill="#F2F2F2"/>
<path d="M74.9992 25.9996H71.9995V28.9993H74.9992V25.9996Z" fill="#F2F2F2"/>
<path d="M77.9997 25.9996H75V28.9993H77.9997V25.9996Z" fill="black"/>
<path d="M81.0012 25.9996H78.0015V28.9993H81.0012V25.9996Z" fill="#6F6F6F"/>
<path d="M83.9998 25.9996H80.9993V28.9993H83.9998V25.9996Z" fill="black"/>
<path d="M86.9992 25.9996H83.9995V28.9993H86.9992V25.9996Z" fill="black"/>
<path d="M90.0007 25.9996H87.001V28.9993H90.0007V25.9996Z" fill="black"/>
<path d="M93.0009 25.9996H90.0012V28.9993H93.0009V25.9996Z" fill="black"/>
<path d="M95.9996 25.9996H92.999V28.9993H95.9996V25.9996Z" fill="#C51313"/>
<path d="M99.0004 25.9996H96.0007V28.9993H99.0004V25.9996Z" fill="black"/>
<path d="M14.9997 29.0001H12V32.0007H14.9997V29.0001Z" fill="black"/>
<path d="M18.0002 29.0001H15.0005V32.0007H18.0002V29.0001Z" fill="#A3A3A3"/>
<path d="M20.9987 29.0001H17.999V32.0007H20.9987V29.0001Z" fill="#A3A3A3"/>
<path d="M23.9992 29.0001H20.9995V32.0007H23.9992V29.0001Z" fill="#A3A3A3"/>
<path d="M27.0009 29.0001H24.0012V32.0007H27.0009V29.0001Z" fill="#A3A3A3"/>
<path d="M30.0012 29.0001H27.0015V32.0007H30.0012V29.0001Z" fill="#A3A3A3"/>
<path d="M32.9996 29.0001H29.999V32.0007H32.9996V29.0001Z" fill="#A3A3A3"/>
<path d="M36.0004 29.0001H33.0007V32.0007H36.0004V29.0001Z" fill="#A3A3A3"/>
<path d="M39.0016 29.0001H36.001V32.0007H39.0016V29.0001Z" fill="#A3A3A3"/>
<path d="M41.9985 29.0001H38.9988V32.0007H41.9985V29.0001Z" fill="#A3A3A3"/>
<path d="M44.9998 29.0001H41.9993V32.0007H44.9998V29.0001Z" fill="#A3A3A3"/>
<path d="M48.0004 29.0001H45.0007V32.0007H48.0004V29.0001Z" fill="#A3A3A3"/>
<path d="M51.0009 29.0001H48.0012V32.0007H51.0009V29.0001Z" fill="#A3A3A3"/>
<path d="M53.9985 29.0001H50.9988V32.0007H53.9985V29.0001Z" fill="#A3A3A3"/>
<path d="M57 29.0001H54.0002V32.0007H57V29.0001Z" fill="#A3A3A3"/>
<path d="M60.0004 29.0001H57.0007V32.0007H60.0004V29.0001Z" fill="#A3A3A3"/>
<path d="M62.9982 29.0001H59.9985V32.0007H62.9982V29.0001Z" fill="#A3A3A3"/>
<path d="M66.0006 29.0001H63V32.0007H66.0006V29.0001Z" fill="#A3A3A3"/>
<path d="M69 29.0001H66.0002V32.0007H69V29.0001Z" fill="#A3A3A3"/>
<path d="M72.0012 29.0001H69.0015V32.0007H72.0012V29.0001Z" fill="#A3A3A3"/>
<path d="M74.9992 29.0001H71.9995V32.0007H74.9992V29.0001Z" fill="#A3A3A3"/>
<path d="M77.9997 29.0001H75V32.0007H77.9997V29.0001Z" fill="black"/>
<path d="M81.0012 29.0001H78.0015V32.0007H81.0012V29.0001Z" fill="#6F6F6F"/>
<path d="M83.9998 29.0001H80.9993V32.0007H83.9998V29.0001Z" fill="black"/>
<path d="M86.9992 29.0001H83.9995V32.0007H86.9992V29.0001Z" fill="black"/>
<path d="M90.0007 29.0001H87.001V32.0007H90.0007V29.0001Z" fill="#FFCF00"/>
<path d="M93.0009 29.0001H90.0012V32.0007H93.0009V29.0001Z" fill="black"/>
<path d="M95.9996 29.0001H92.999V32.0007H95.9996V29.0001Z" fill="black"/>
<path d="M14.9997 31.9999H12V34.9996H14.9997V31.9999Z" fill="black"/>
<path d="M18.0002 31.9999H15.0005V34.9996H18.0002V31.9999Z" fill="#F2F2F2"/>
<path d="M20.9987 31.9999H17.999V34.9996H20.9987V31.9999Z" fill="#F2F2F2"/>
<path d="M23.9992 31.9999H20.9995V34.9996H23.9992V31.9999Z" fill="#F2F2F2"/>
<path d="M27.0009 31.9999H24.0012V34.9996H27.0009V31.9999Z" fill="#F2F2F2"/>
<path d="M30.0012 31.9999H27.0015V34.9996H30.0012V31.9999Z" fill="#F2F2F2"/>
<path d="M32.9996 31.9999H29.999V34.9996H32.9996V31.9999Z" fill="#F2F2F2"/>
<path d="M36.0004 31.9999H33.0007V34.9996H36.0004V31.9999Z" fill="#F2F2F2"/>
<path d="M39.0016 31.9999H36.001V34.9996H39.0016V31.9999Z" fill="#F2F2F2"/>
<path d="M41.9985 31.9999H38.9988V34.9996H41.9985V31.9999Z" fill="#F2F2F2"/>
<path d="M44.9998 31.9999H41.9993V34.9996H44.9998V31.9999Z" fill="#F2F2F2"/>
<path d="M48.0004 31.9999H45.0007V34.9996H48.0004V31.9999Z" fill="#F2F2F2"/>
<path d="M51.0009 31.9999H48.0012V34.9996H51.0009V31.9999Z" fill="#F2F2F2"/>
<path d="M53.9985 31.9999H50.9988V34.9996H53.9985V31.9999Z" fill="#F2F2F2"/>
<path d="M57 31.9999H54.0002V34.9996H57V31.9999Z" fill="#F2F2F2"/>
<path d="M60.0004 31.9999H57.0007V34.9996H60.0004V31.9999Z" fill="#F2F2F2"/>
<path d="M62.9982 31.9999H59.9985V34.9996H62.9982V31.9999Z" fill="#F2F2F2"/>
<path d="M66.0006 31.9999H63V34.9996H66.0006V31.9999Z" fill="#F2F2F2"/>
<path d="M69 31.9999H66.0002V34.9996H69V31.9999Z" fill="#F2F2F2"/>
<path d="M72.0012 31.9999H69.0015V34.9996H72.0012V31.9999Z" fill="#F2F2F2"/>
<path d="M74.9992 31.9999H71.9995V34.9996H74.9992V31.9999Z" fill="#F2F2F2"/>
<path d="M77.9997 31.9999H75V34.9996H77.9997V31.9999Z" fill="black"/>
<path d="M81.0012 31.9999H78.0015V34.9996H81.0012V31.9999Z" fill="#6F6F6F"/>
<path d="M83.9998 31.9999H80.9993V34.9996H83.9998V31.9999Z" fill="black"/>
<path d="M86.9992 31.9999H83.9995V34.9996H86.9992V31.9999Z" fill="#F2F2F2"/>
<path d="M90.0007 31.9999H87.001V34.9996H90.0007V31.9999Z" fill="#FFCF00"/>
<path d="M93.0009 31.9999H90.0012V34.9996H93.0009V31.9999Z" fill="#EDA507"/>
<path d="M95.9996 31.9999H92.999V34.9996H95.9996V31.9999Z" fill="black"/>
<path d="M14.9997 34.9997H12V37.9994H14.9997V34.9997Z" fill="black"/>
<path d="M18.0002 34.9997H15.0005V37.9994H18.0002V34.9997Z" fill="#F2F2F2"/>
<path d="M20.9987 34.9997H17.999V37.9994H20.9987V34.9997Z" fill="#F2F2F2"/>
<path d="M23.9992 34.9997H20.9995V37.9994H23.9992V34.9997Z" fill="#F2F2F2"/>
<path d="M27.0009 34.9997H24.0012V37.9994H27.0009V34.9997Z" fill="#F2F2F2"/>
<path d="M30.0012 34.9997H27.0015V37.9994H30.0012V34.9997Z" fill="#F2F2F2"/>
<path d="M32.9996 34.9997H29.999V37.9994H32.9996V34.9997Z" fill="#F2F2F2"/>
<path d="M36.0004 34.9997H33.0007V37.9994H36.0004V34.9997Z" fill="#F2F2F2"/>
<path d="M39.0016 34.9997H36.001V37.9994H39.0016V34.9997Z" fill="#F2F2F2"/>
<path d="M41.9985 34.9997H38.9988V37.9994H41.9985V34.9997Z" fill="#F2F2F2"/>
<path d="M44.9998 34.9997H41.9993V37.9994H44.9998V34.9997Z" fill="#F2F2F2"/>
<path d="M48.0004 34.9997H45.0007V37.9994H48.0004V34.9997Z" fill="#F2F2F2"/>
<path d="M51.0009 34.9997H48.0012V37.9994H51.0009V34.9997Z" fill="#F2F2F2"/>
<path d="M53.9985 34.9997H50.9988V37.9994H53.9985V34.9997Z" fill="#F2F2F2"/>
<path d="M57 34.9997H54.0002V37.9994H57V34.9997Z" fill="#F2F2F2"/>
<path d="M60.0004 34.9997H57.0007V37.9994H60.0004V34.9997Z" fill="#F2F2F2"/>
<path d="M62.9982 34.9997H59.9985V37.9994H62.9982V34.9997Z" fill="#F2F2F2"/>
<path d="M66.0006 34.9997H63V37.9994H66.0006V34.9997Z" fill="#F2F2F2"/>
<path d="M69 34.9997H66.0002V37.9994H69V34.9997Z" fill="#F2F2F2"/>
<path d="M72.0012 34.9997H69.0015V37.9994H72.0012V34.9997Z" fill="#F2F2F2"/>
<path d="M74.9992 34.9997H71.9995V37.9994H74.9992V34.9997Z" fill="#F2F2F2"/>
<path d="M77.9997 34.9997H75V37.9994H77.9997V34.9997Z" fill="black"/>
<path d="M81.0012 34.9997H78.0015V37.9994H81.0012V34.9997Z" fill="#6F6F6F"/>
<path d="M83.9998 34.9997H80.9993V37.9994H83.9998V34.9997Z" fill="black"/>
<path d="M86.9992 34.9997H83.9995V37.9994H86.9992V34.9997Z" fill="#FFCF00"/>
<path d="M90.0007 34.9997H87.001V37.9994H90.0007V34.9997Z" fill="#FFCF00"/>
<path d="M93.0009 34.9997H90.0012V37.9994H93.0009V34.9997Z" fill="black"/>
<path d="M14.9997 38.0005H12V41.0002H14.9997V38.0005Z" fill="black"/>
<path d="M18.0002 38.0005H15.0005V41.0002H18.0002V38.0005Z" fill="#A3A3A3"/>
<path d="M20.9987 38.0005H17.999V41.0002H20.9987V38.0005Z" fill="#A3A3A3"/>
<path d="M23.9992 38.0005H20.9995V41.0002H23.9992V38.0005Z" fill="#A3A3A3"/>
<path d="M27.0009 38.0005H24.0012V41.0002H27.0009V38.0005Z" fill="#A3A3A3"/>
<path d="M30.0012 38.0005H27.0015V41.0002H30.0012V38.0005Z" fill="#A3A3A3"/>
<path d="M32.9996 38.0005H29.999V41.0002H32.9996V38.0005Z" fill="#A3A3A3"/>
<path d="M36.0004 38.0005H33.0007V41.0002H36.0004V38.0005Z" fill="#A3A3A3"/>
<path d="M39.0016 38.0005H36.001V41.0002H39.0016V38.0005Z" fill="#A3A3A3"/>
<path d="M41.9985 38.0005H38.9988V41.0002H41.9985V38.0005Z" fill="#A3A3A3"/>
<path d="M44.9998 38.0005H41.9993V41.0002H44.9998V38.0005Z" fill="#A3A3A3"/>
<path d="M48.0004 38.0005H45.0007V41.0002H48.0004V38.0005Z" fill="#A3A3A3"/>
<path d="M51.0009 38.0005H48.0012V41.0002H51.0009V38.0005Z" fill="#A3A3A3"/>
<path d="M53.9985 38.0005H50.9988V41.0002H53.9985V38.0005Z" fill="#A3A3A3"/>
<path d="M57 38.0005H54.0002V41.0002H57V38.0005Z" fill="#A3A3A3"/>
<path d="M60.0004 38.0005H57.0007V41.0002H60.0004V38.0005Z" fill="#A3A3A3"/>
<path d="M62.9982 38.0005H59.9985V41.0002H62.9982V38.0005Z" fill="#A3A3A3"/>
<path d="M66.0006 38.0005H63V41.0002H66.0006V38.0005Z" fill="#A3A3A3"/>
<path d="M69 38.0005H66.0002V41.0002H69V38.0005Z" fill="#A3A3A3"/>
<path d="M72.0012 38.0005H69.0015V41.0002H72.0012V38.0005Z" fill="#A3A3A3"/>
<path d="M74.9992 38.0005H71.9995V41.0002H74.9992V38.0005Z" fill="#A3A3A3"/>
<path d="M77.9997 38.0005H75V41.0002H77.9997V38.0005Z" fill="black"/>
<path d="M81.0012 38.0005H78.0015V41.0002H81.0012V38.0005Z" fill="black"/>
<path d="M83.9998 38.0005H80.9993V41.0002H83.9998V38.0005Z" fill="#F2F2F2"/>
<path d="M86.9992 38.0005H83.9995V41.0002H86.9992V38.0005Z" fill="#FFCF00"/>
<path d="M90.0007 38.0005H87.001V41.0002H90.0007V38.0005Z" fill="#EDA507"/>
<path d="M93.0009 38.0005H90.0012V41.0002H93.0009V38.0005Z" fill="black"/>
<path d="M14.9997 41.0002H12V44H14.9997V41.0002Z" fill="black"/>
<path d="M18.0002 41.0002H15.0005V44H18.0002V41.0002Z" fill="#F2F2F2"/>
<path d="M20.9987 41.0002H17.999V44H20.9987V41.0002Z" fill="#F2F2F2"/>
<path d="M23.9992 41.0002H20.9995V44H23.9992V41.0002Z" fill="#F2F2F2"/>
<path d="M27.0009 41.0002H24.0012V44H27.0009V41.0002Z" fill="#F2F2F2"/>
<path d="M30.0012 41.0002H27.0015V44H30.0012V41.0002Z" fill="#F2F2F2"/>
<path d="M32.9996 41.0002H29.999V44H32.9996V41.0002Z" fill="#F2F2F2"/>
<path d="M36.0004 41.0002H33.0007V44H36.0004V41.0002Z" fill="#F2F2F2"/>
<path d="M39.0016 41.0002H36.001V44H39.0016V41.0002Z" fill="#F2F2F2"/>
<path d="M41.9985 41.0002H38.9988V44H41.9985V41.0002Z" fill="#F2F2F2"/>
<path d="M44.9998 41.0002H41.9993V44H44.9998V41.0002Z" fill="#F2F2F2"/>
<path d="M48.0004 41.0002H45.0007V44H48.0004V41.0002Z" fill="#F2F2F2"/>
<path d="M51.0009 41.0002H48.0012V44H51.0009V41.0002Z" fill="#F2F2F2"/>
<path d="M53.9985 41.0002H50.9988V44H53.9985V41.0002Z" fill="#F2F2F2"/>
<path d="M57 41.0002H54.0002V44H57V41.0002Z" fill="#F2F2F2"/>
<path d="M60.0004 41.0002H57.0007V44H60.0004V41.0002Z" fill="#F2F2F2"/>
<path d="M62.9982 41.0002H59.9985V44H62.9982V41.0002Z" fill="#F2F2F2"/>
<path d="M66.0006 41.0002H63V44H66.0006V41.0002Z" fill="#F2F2F2"/>
<path d="M69 41.0002H66.0002V44H69V41.0002Z" fill="#F2F2F2"/>
<path d="M72.0012 41.0002H69.0015V44H72.0012V41.0002Z" fill="#F2F2F2"/>
<path d="M74.9992 41.0002H71.9995V44H74.9992V41.0002Z" fill="#F2F2F2"/>
<path d="M77.9997 41.0002H75V44H77.9997V41.0002Z" fill="black"/>
<path d="M81.0012 41.0002H78.0015V44H81.0012V41.0002Z" fill="black"/>
<path d="M83.9998 41.0002H80.9993V44H83.9998V41.0002Z" fill="#FFCF00"/>
<path d="M86.9992 41.0002H83.9995V44H86.9992V41.0002Z" fill="#FFCF00"/>
<path d="M90.0007 41.0002H87.001V44H90.0007V41.0002Z" fill="black"/>
<path d="M14.9997 44H12V46.9997H14.9997V44Z" fill="black"/>
<path d="M18.0002 44H15.0005V46.9997H18.0002V44Z" fill="#F2F2F2"/>
<path d="M20.9987 44H17.999V46.9997H20.9987V44Z" fill="#F2F2F2"/>
<path d="M23.9992 44H20.9995V46.9997H23.9992V44Z" fill="#F2F2F2"/>
<path d="M27.0009 44H24.0012V46.9997H27.0009V44Z" fill="#F2F2F2"/>
<path d="M30.0012 44H27.0015V46.9997H30.0012V44Z" fill="#F2F2F2"/>
<path d="M32.9996 44H29.999V46.9997H32.9996V44Z" fill="#F2F2F2"/>
<path d="M36.0004 44H33.0007V46.9997H36.0004V44Z" fill="#F2F2F2"/>
<path d="M39.0016 44H36.001V46.9997H39.0016V44Z" fill="#F2F2F2"/>
<path d="M41.9985 44H38.9988V46.9997H41.9985V44Z" fill="#F2F2F2"/>
<path d="M44.9998 44H41.9993V46.9997H44.9998V44Z" fill="#F2F2F2"/>
<path d="M48.0004 44H45.0007V46.9997H48.0004V44Z" fill="#F2F2F2"/>
<path d="M51.0009 44H48.0012V46.9997H51.0009V44Z" fill="#F2F2F2"/>
<path d="M53.9985 44H50.9988V46.9997H53.9985V44Z" fill="#F2F2F2"/>
<path d="M57 44H54.0002V46.9997H57V44Z" fill="#F2F2F2"/>
<path d="M60.0004 44H57.0007V46.9997H60.0004V44Z" fill="#F2F2F2"/>
<path d="M62.9982 44H59.9985V46.9997H62.9982V44Z" fill="#F2F2F2"/>
<path d="M66.0006 44H63V46.9997H66.0006V44Z" fill="#F2F2F2"/>
<path d="M69 44H66.0002V46.9997H69V44Z" fill="#F2F2F2"/>
<path d="M72.0012 44H69.0015V46.9997H72.0012V44Z" fill="#F2F2F2"/>
<path d="M74.9992 44H71.9995V46.9997H74.9992V44Z" fill="#F2F2F2"/>
<path d="M77.9997 44H75V46.9997H77.9997V44Z" fill="black"/>
<path d="M81.0012 44H78.0015V46.9997H81.0012V44Z" fill="#F2F2F2"/>
<path d="M83.9998 44H80.9993V46.9997H83.9998V44Z" fill="#FFCF00"/>
<path d="M86.9992 44H83.9995V46.9997H86.9992V44Z" fill="#EDA507"/>
<path d="M90.0007 44H87.001V46.9997H90.0007V44Z" fill="black"/>
<path d="M14.9997 47.0003H12V50H14.9997V47.0003Z" fill="black"/>
<path d="M18.0002 47.0003H15.0005V50H18.0002V47.0003Z" fill="#A3A3A3"/>
<path d="M20.9987 47.0003H17.999V50H20.9987V47.0003Z" fill="#A3A3A3"/>
<path d="M23.9992 47.0003H20.9995V50H23.9992V47.0003Z" fill="#A3A3A3"/>
<path d="M27.0009 47.0003H24.0012V50H27.0009V47.0003Z" fill="#A3A3A3"/>
<path d="M30.0012 47.0003H27.0015V50H30.0012V47.0003Z" fill="#A3A3A3"/>
<path d="M32.9996 47.0003H29.999V50H32.9996V47.0003Z" fill="#A3A3A3"/>
<path d="M36.0004 47.0003H33.0007V50H36.0004V47.0003Z" fill="#A3A3A3"/>
<path d="M39.0016 47.0003H36.001V50H39.0016V47.0003Z" fill="#A3A3A3"/>
<path d="M41.9985 47.0003H38.9988V50H41.9985V47.0003Z" fill="#A3A3A3"/>
<path d="M44.9998 47.0003H41.9993V50H44.9998V47.0003Z" fill="#A3A3A3"/>
<path d="M48.0004 47.0003H45.0007V50H48.0004V47.0003Z" fill="#A3A3A3"/>
<path d="M51.0009 47.0003H48.0012V50H51.0009V47.0003Z" fill="#A3A3A3"/>
<path d="M53.9985 47.0003H50.9988V50H53.9985V47.0003Z" fill="#A3A3A3"/>
<path d="M57 47.0003H54.0002V50H57V47.0003Z" fill="#A3A3A3"/>
<path d="M60.0004 47.0003H57.0007V50H60.0004V47.0003Z" fill="#A3A3A3"/>
<path d="M62.9982 47.0003H59.9985V50H62.9982V47.0003Z" fill="#A3A3A3"/>
<path d="M66.0006 47.0003H63V50H66.0006V47.0003Z" fill="#A3A3A3"/>
<path d="M69 47.0003H66.0002V50H69V47.0003Z" fill="#A3A3A3"/>
<path d="M72.0012 47.0003H69.0015V50H72.0012V47.0003Z" fill="#A3A3A3"/>
<path d="M74.9992 47.0003H71.9995V50H74.9992V47.0003Z" fill="#A3A3A3"/>
<path d="M77.9997 47.0003H75V50H77.9997V47.0003Z" fill="black"/>
<path d="M81.0012 47.0003H78.0015V50H81.0012V47.0003Z" fill="#FFCF00"/>
<path d="M83.9998 47.0003H80.9993V50H83.9998V47.0003Z" fill="#FFCF00"/>
<path d="M86.9992 47.0003H83.9995V50H86.9992V47.0003Z" fill="black"/>
<path d="M14.9997 49.9998H12V53.0003H14.9997V49.9998Z" fill="black"/>
<path d="M18.0002 49.9998H15.0005V53.0003H18.0002V49.9998Z" fill="#F2F2F2"/>
<path d="M20.9987 49.9998H17.999V53.0003H20.9987V49.9998Z" fill="#F2F2F2"/>
<path d="M23.9992 49.9998H20.9995V53.0003H23.9992V49.9998Z" fill="#F2F2F2"/>
<path d="M27.0009 49.9998H24.0012V53.0003H27.0009V49.9998Z" fill="#F2F2F2"/>
<path d="M30.0012 49.9998H27.0015V53.0003H30.0012V49.9998Z" fill="#F2F2F2"/>
<path d="M32.9996 49.9998H29.999V53.0003H32.9996V49.9998Z" fill="#F2F2F2"/>
<path d="M36.0004 49.9998H33.0007V53.0003H36.0004V49.9998Z" fill="#F2F2F2"/>
<path d="M39.0016 49.9998H36.001V53.0003H39.0016V49.9998Z" fill="#F2F2F2"/>
<path d="M41.9985 49.9998H38.9988V53.0003H41.9985V49.9998Z" fill="#F2F2F2"/>
<path d="M44.9998 49.9998H41.9993V53.0003H44.9998V49.9998Z" fill="#F2F2F2"/>
<path d="M48.0004 49.9998H45.0007V53.0003H48.0004V49.9998Z" fill="#F2F2F2"/>
<path d="M51.0009 49.9998H48.0012V53.0003H51.0009V49.9998Z" fill="#F2F2F2"/>
<path d="M53.9985 49.9998H50.9988V53.0003H53.9985V49.9998Z" fill="#F2F2F2"/>
<path d="M57 49.9998H54.0002V53.0003H57V49.9998Z" fill="#F2F2F2"/>
<path d="M60.0004 49.9998H57.0007V53.0003H60.0004V49.9998Z" fill="#F2F2F2"/>
<path d="M62.9982 49.9998H59.9985V53.0003H62.9982V49.9998Z" fill="#F2F2F2"/>
<path d="M66.0006 49.9998H63V53.0003H66.0006V49.9998Z" fill="#F2F2F2"/>
<path d="M69 49.9998H66.0002V53.0003H69V49.9998Z" fill="#F2F2F2"/>
<path d="M72.0012 49.9998H69.0015V53.0003H72.0012V49.9998Z" fill="#F2F2F2"/>
<path d="M74.9992 49.9998H71.9995V53.0003H74.9992V49.9998Z" fill="black"/>
<path d="M77.9997 49.9998H75V53.0003H77.9997V49.9998Z" fill="#F2F2F2"/>
<path d="M81.0012 49.9998H78.0015V53.0003H81.0012V49.9998Z" fill="#FFCF00"/>
<path d="M83.9998 49.9998H80.9993V53.0003H83.9998V49.9998Z" fill="#EDA507"/>
<path d="M86.9992 49.9998H83.9995V53.0003H86.9992V49.9998Z" fill="black"/>
<path d="M14.9997 53.0006H12V56.0003H14.9997V53.0006Z" fill="black"/>
<path d="M18.0002 53.0006H15.0005V56.0003H18.0002V53.0006Z" fill="#F2F2F2"/>
<path d="M20.9987 53.0006H17.999V56.0003H20.9987V53.0006Z" fill="#F2F2F2"/>
<path d="M23.9992 53.0006H20.9995V56.0003H23.9992V53.0006Z" fill="#F2F2F2"/>
<path d="M27.0009 53.0006H24.0012V56.0003H27.0009V53.0006Z" fill="#F2F2F2"/>
<path d="M30.0012 53.0006H27.0015V56.0003H30.0012V53.0006Z" fill="#F2F2F2"/>
<path d="M32.9996 53.0006H29.999V56.0003H32.9996V53.0006Z" fill="#F2F2F2"/>
<path d="M36.0004 53.0006H33.0007V56.0003H36.0004V53.0006Z" fill="#F2F2F2"/>
<path d="M39.0016 53.0006H36.001V56.0003H39.0016V53.0006Z" fill="#F2F2F2"/>
<path d="M41.9985 53.0006H38.9988V56.0003H41.9985V53.0006Z" fill="#F2F2F2"/>
<path d="M44.9998 53.0006H41.9993V56.0003H44.9998V53.0006Z" fill="#F2F2F2"/>
<path d="M48.0004 53.0006H45.0007V56.0003H48.0004V53.0006Z" fill="#F2F2F2"/>
<path d="M51.0009 53.0006H48.0012V56.0003H51.0009V53.0006Z" fill="#F2F2F2"/>
<path d="M53.9985 53.0006H50.9988V56.0003H53.9985V53.0006Z" fill="#F2F2F2"/>
<path d="M57 53.0006H54.0002V56.0003H57V53.0006Z" fill="#F2F2F2"/>
<path d="M60.0004 53.0006H57.0007V56.0003H60.0004V53.0006Z" fill="#F2F2F2"/>
<path d="M62.9982 53.0006H59.9985V56.0003H62.9982V53.0006Z" fill="#F2F2F2"/>
<path d="M66.0006 53.0006H63V56.0003H66.0006V53.0006Z" fill="#F2F2F2"/>
<path d="M69 53.0006H66.0002V56.0003H69V53.0006Z" fill="#F2F2F2"/>
<path d="M72.0012 53.0006H69.0015V56.0003H72.0012V53.0006Z" fill="#F2F2F2"/>
<path d="M74.9992 53.0006H71.9995V56.0003H74.9992V53.0006Z" fill="black"/>
<path d="M77.9997 53.0006H75V56.0003H77.9997V53.0006Z" fill="#FFCF00"/>
<path d="M81.0012 53.0006H78.0015V56.0003H81.0012V53.0006Z" fill="#FFCF00"/>
<path d="M83.9998 53.0006H80.9993V56.0003H83.9998V53.0006Z" fill="black"/>
<path d="M14.9997 56.0004H12V59.0001H14.9997V56.0004Z" fill="black"/>
<path d="M18.0002 56.0004H15.0005V59.0001H18.0002V56.0004Z" fill="#A3A3A3"/>
<path d="M20.9987 56.0004H17.999V59.0001H20.9987V56.0004Z" fill="#A3A3A3"/>
<path d="M23.9992 56.0004H20.9995V59.0001H23.9992V56.0004Z" fill="#A3A3A3"/>
<path d="M27.0009 56.0004H24.0012V59.0001H27.0009V56.0004Z" fill="#A3A3A3"/>
<path d="M30.0012 56.0004H27.0015V59.0001H30.0012V56.0004Z" fill="#A3A3A3"/>
<path d="M32.9996 56.0004H29.999V59.0001H32.9996V56.0004Z" fill="#A3A3A3"/>
<path d="M36.0004 56.0004H33.0007V59.0001H36.0004V56.0004Z" fill="#A3A3A3"/>
<path d="M39.0016 56.0004H36.001V59.0001H39.0016V56.0004Z" fill="#A3A3A3"/>
<path d="M41.9985 56.0004H38.9988V59.0001H41.9985V56.0004Z" fill="#A3A3A3"/>
<path d="M44.9998 56.0004H41.9993V59.0001H44.9998V56.0004Z" fill="#A3A3A3"/>
<path d="M48.0004 56.0004H45.0007V59.0001H48.0004V56.0004Z" fill="#A3A3A3"/>
<path d="M51.0009 56.0004H48.0012V59.0001H51.0009V56.0004Z" fill="#A3A3A3"/>
<path d="M53.9985 56.0004H50.9988V59.0001H53.9985V56.0004Z" fill="#A3A3A3"/>
<path d="M57 56.0004H54.0002V59.0001H57V56.0004Z" fill="#A3A3A3"/>
<path d="M60.0004 56.0004H57.0007V59.0001H60.0004V56.0004Z" fill="#A3A3A3"/>
<path d="M62.9982 56.0004H59.9985V59.0001H62.9982V56.0004Z" fill="#A3A3A3"/>
<path d="M66.0006 56.0004H63V59.0001H66.0006V56.0004Z" fill="#A3A3A3"/>
<path d="M69 56.0004H66.0002V59.0001H69V56.0004Z" fill="#A3A3A3"/>
<path d="M72.0012 56.0004H69.0015V59.0001H72.0012V56.0004Z" fill="black"/>
<path d="M74.9992 56.0004H71.9995V59.0001H74.9992V56.0004Z" fill="#F2F2F2"/>
<path d="M77.9997 56.0004H75V59.0001H77.9997V56.0004Z" fill="#FFCF00"/>
<path d="M81.0012 56.0004H78.0015V59.0001H81.0012V56.0004Z" fill="#EDA507"/>
<path d="M83.9998 56.0004H80.9993V59.0001H83.9998V56.0004Z" fill="black"/>
<path d="M14.9997 58.9994H12V61.9991H14.9997V58.9994Z" fill="black"/>
<path d="M18.0002 58.9994H15.0005V61.9991H18.0002V58.9994Z" fill="#F2F2F2"/>
<path d="M20.9987 58.9994H17.999V61.9991H20.9987V58.9994Z" fill="#F2F2F2"/>
<path d="M23.9992 58.9994H20.9995V61.9991H23.9992V58.9994Z" fill="#F2F2F2"/>
<path d="M27.0009 58.9994H24.0012V61.9991H27.0009V58.9994Z" fill="#F2F2F2"/>
<path d="M30.0012 58.9994H27.0015V61.9991H30.0012V58.9994Z" fill="#F2F2F2"/>
<path d="M32.9996 58.9994H29.999V61.9991H32.9996V58.9994Z" fill="#F2F2F2"/>
<path d="M36.0004 58.9994H33.0007V61.9991H36.0004V58.9994Z" fill="#F2F2F2"/>
<path d="M39.0016 58.9994H36.001V61.9991H39.0016V58.9994Z" fill="#F2F2F2"/>
<path d="M41.9985 58.9994H38.9988V61.9991H41.9985V58.9994Z" fill="#F2F2F2"/>
<path d="M44.9998 58.9994H41.9993V61.9991H44.9998V58.9994Z" fill="#F2F2F2"/>
<path d="M48.0004 58.9994H45.0007V61.9991H48.0004V58.9994Z" fill="#F2F2F2"/>
<path d="M51.0009 58.9994H48.0012V61.9991H51.0009V58.9994Z" fill="#F2F2F2"/>
<path d="M53.9985 58.9994H50.9988V61.9991H53.9985V58.9994Z" fill="#F2F2F2"/>
<path d="M57 58.9994H54.0002V61.9991H57V58.9994Z" fill="#F2F2F2"/>
<path d="M60.0004 58.9994H57.0007V61.9991H60.0004V58.9994Z" fill="#F2F2F2"/>
<path d="M62.9982 58.9994H59.9985V61.9991H62.9982V58.9994Z" fill="#F2F2F2"/>
<path d="M66.0006 58.9994H63V61.9991H66.0006V58.9994Z" fill="#F2F2F2"/>
<path d="M69 58.9994H66.0002V61.9991H69V58.9994Z" fill="#F2F2F2"/>
<path d="M72.0012 58.9994H69.0015V61.9991H72.0012V58.9994Z" fill="black"/>
<path d="M74.9992 58.9994H71.9995V61.9991H74.9992V58.9994Z" fill="#FFCF00"/>
<path d="M77.9997 58.9994H75V61.9991H77.9997V58.9994Z" fill="#FFCF00"/>
<path d="M81.0012 58.9994H78.0015V61.9991H81.0012V58.9994Z" fill="black"/>
<path d="M83.9998 58.9994H80.9993V61.9991H83.9998V58.9994Z" fill="black"/>
<path d="M14.9997 62.001H12V65.0007H14.9997V62.001Z" fill="black"/>
<path d="M18.0002 62.001H15.0005V65.0007H18.0002V62.001Z" fill="#F2F2F2"/>
<path d="M20.9987 62.001H17.999V65.0007H20.9987V62.001Z" fill="#F2F2F2"/>
<path d="M23.9992 62.001H20.9995V65.0007H23.9992V62.001Z" fill="#F2F2F2"/>
<path d="M27.0009 62.001H24.0012V65.0007H27.0009V62.001Z" fill="#F2F2F2"/>
<path d="M30.0012 62.001H27.0015V65.0007H30.0012V62.001Z" fill="#F2F2F2"/>
<path d="M32.9996 62.001H29.999V65.0007H32.9996V62.001Z" fill="#F2F2F2"/>
<path d="M36.0004 62.001H33.0007V65.0007H36.0004V62.001Z" fill="#F2F2F2"/>
<path d="M39.0016 62.001H36.001V65.0007H39.0016V62.001Z" fill="#F2F2F2"/>
<path d="M41.9985 62.001H38.9988V65.0007H41.9985V62.001Z" fill="#F2F2F2"/>
<path d="M44.9998 62.001H41.9993V65.0007H44.9998V62.001Z" fill="#F2F2F2"/>
<path d="M48.0004 62.001H45.0007V65.0007H48.0004V62.001Z" fill="#F2F2F2"/>
<path d="M51.0009 62.001H48.0012V65.0007H51.0009V62.001Z" fill="#F2F2F2"/>
<path d="M53.9985 62.001H50.9988V65.0007H53.9985V62.001Z" fill="#F2F2F2"/>
<path d="M57 62.001H54.0002V65.0007H57V62.001Z" fill="#F2F2F2"/>
<path d="M60.0004 62.001H57.0007V65.0007H60.0004V62.001Z" fill="#F2F2F2"/>
<path d="M62.9982 62.001H59.9985V65.0007H62.9982V62.001Z" fill="#F2F2F2"/>
<path d="M66.0006 62.001H63V65.0007H66.0006V62.001Z" fill="#F2F2F2"/>
<path d="M69 62.001H66.0002V65.0007H69V62.001Z" fill="black"/>
<path d="M72.0012 62.001H69.0015V65.0007H72.0012V62.001Z" fill="#F2F2F2"/>
<path d="M74.9992 62.001H71.9995V65.0007H74.9992V62.001Z" fill="#FFCF00"/>
<path d="M77.9997 62.001H75V65.0007H77.9997V62.001Z" fill="#EDA507"/>
<path d="M81.0012 62.001H78.0015V65.0007H81.0012V62.001Z" fill="black"/>
<path d="M83.9998 62.001H80.9993V65.0007H83.9998V62.001Z" fill="black"/>
<path d="M14.9997 65H12V67.9997H14.9997V65Z" fill="black"/>
<path d="M18.0002 65H15.0005V67.9997H18.0002V65Z" fill="#A3A3A3"/>
<path d="M20.9987 65H17.999V67.9997H20.9987V65Z" fill="#A3A3A3"/>
<path d="M23.9992 65H20.9995V67.9997H23.9992V65Z" fill="#A3A3A3"/>
<path d="M27.0009 65H24.0012V67.9997H27.0009V65Z" fill="#A3A3A3"/>
<path d="M30.0012 65H27.0015V67.9997H30.0012V65Z" fill="#A3A3A3"/>
<path d="M32.9996 65H29.999V67.9997H32.9996V65Z" fill="#A3A3A3"/>
<path d="M36.0004 65H33.0007V67.9997H36.0004V65Z" fill="#A3A3A3"/>
<path d="M39.0016 65H36.001V67.9997H39.0016V65Z" fill="#A3A3A3"/>
<path d="M41.9985 65H38.9988V67.9997H41.9985V65Z" fill="#A3A3A3"/>
<path d="M44.9998 65H41.9993V67.9997H44.9998V65Z" fill="#A3A3A3"/>
<path d="M48.0004 65H45.0007V67.9997H48.0004V65Z" fill="#A3A3A3"/>
<path d="M51.0009 65H48.0012V67.9997H51.0009V65Z" fill="#A3A3A3"/>
<path d="M53.9985 65H50.9988V67.9997H53.9985V65Z" fill="#A3A3A3"/>
<path d="M57 65H54.0002V67.9997H57V65Z" fill="#A3A3A3"/>
<path d="M60.0004 65H57.0007V67.9997H60.0004V65Z" fill="#A3A3A3"/>
<path d="M62.9982 65H59.9985V67.9997H62.9982V65Z" fill="#A3A3A3"/>
<path d="M66.0006 65H63V67.9997H66.0006V65Z" fill="#A3A3A3"/>
<path d="M69 65H66.0002V67.9997H69V65Z" fill="black"/>
<path d="M72.0012 65H69.0015V67.9997H72.0012V65Z" fill="#FFCF00"/>
<path d="M74.9992 65H71.9995V67.9997H74.9992V65Z" fill="#FFCF00"/>
<path d="M77.9997 65H75V67.9997H77.9997V65Z" fill="black"/>
<path d="M81.0012 65H78.0015V67.9997H81.0012V65Z" fill="#6F6F6F"/>
<path d="M83.9998 65H80.9993V67.9997H83.9998V65Z" fill="black"/>
<path d="M14.9997 68.0005H12V71.0011H14.9997V68.0005Z" fill="black"/>
<path d="M18.0002 68.0005H15.0005V71.0011H18.0002V68.0005Z" fill="#F2F2F2"/>
<path d="M20.9987 68.0005H17.999V71.0011H20.9987V68.0005Z" fill="#F2F2F2"/>
<path d="M23.9992 68.0005H20.9995V71.0011H23.9992V68.0005Z" fill="#F2F2F2"/>
<path d="M27.0009 68.0005H24.0012V71.0011H27.0009V68.0005Z" fill="#F2F2F2"/>
<path d="M30.0012 68.0005H27.0015V71.0011H30.0012V68.0005Z" fill="#F2F2F2"/>
<path d="M32.9996 68.0005H29.999V71.0011H32.9996V68.0005Z" fill="#F2F2F2"/>
<path d="M36.0004 68.0005H33.0007V71.0011H36.0004V68.0005Z" fill="#F2F2F2"/>
<path d="M39.0016 68.0005H36.001V71.0011H39.0016V68.0005Z" fill="#F2F2F2"/>
<path d="M41.9985 68.0005H38.9988V71.0011H41.9985V68.0005Z" fill="#F2F2F2"/>
<path d="M44.9998 68.0005H41.9993V71.0011H44.9998V68.0005Z" fill="#F2F2F2"/>
<path d="M48.0004 68.0005H45.0007V71.0011H48.0004V68.0005Z" fill="#F2F2F2"/>
<path d="M51.0009 68.0005H48.0012V71.0011H51.0009V68.0005Z" fill="#F2F2F2"/>
<path d="M53.9985 68.0005H50.9988V71.0011H53.9985V68.0005Z" fill="#F2F2F2"/>
<path d="M57 68.0005H54.0002V71.0011H57V68.0005Z" fill="#F2F2F2"/>
<path d="M60.0004 68.0005H57.0007V71.0011H60.0004V68.0005Z" fill="#F2F2F2"/>
<path d="M62.9982 68.0005H59.9985V71.0011H62.9982V68.0005Z" fill="#F2F2F2"/>
<path d="M66.0006 68.0005H63V71.0011H66.0006V68.0005Z" fill="black"/>
<path d="M69 68.0005H66.0002V71.0011H69V68.0005Z" fill="#F2F2F2"/>
<path d="M72.0012 68.0005H69.0015V71.0011H72.0012V68.0005Z" fill="#FFCF00"/>
<path d="M74.9992 68.0005H71.9995V71.0011H74.9992V68.0005Z" fill="#EDA507"/>
<path d="M77.9997 68.0005H75V71.0011H77.9997V68.0005Z" fill="black"/>
<path d="M81.0012 68.0005H78.0015V71.0011H81.0012V68.0005Z" fill="#6F6F6F"/>
<path d="M83.9998 68.0005H80.9993V71.0011H83.9998V68.0005Z" fill="black"/>
<path d="M14.9997 71.0006H12V74.0003H14.9997V71.0006Z" fill="black"/>
<path d="M18.0002 71.0006H15.0005V74.0003H18.0002V71.0006Z" fill="#F2F2F2"/>
<path d="M20.9987 71.0006H17.999V74.0003H20.9987V71.0006Z" fill="#F2F2F2"/>
<path d="M23.9992 71.0006H20.9995V74.0003H23.9992V71.0006Z" fill="#F2F2F2"/>
<path d="M27.0009 71.0006H24.0012V74.0003H27.0009V71.0006Z" fill="#F2F2F2"/>
<path d="M30.0012 71.0006H27.0015V74.0003H30.0012V71.0006Z" fill="#F2F2F2"/>
<path d="M32.9996 71.0006H29.999V74.0003H32.9996V71.0006Z" fill="#F2F2F2"/>
<path d="M36.0004 71.0006H33.0007V74.0003H36.0004V71.0006Z" fill="#F2F2F2"/>
<path d="M39.0016 71.0006H36.001V74.0003H39.0016V71.0006Z" fill="#F2F2F2"/>
<path d="M41.9985 71.0006H38.9988V74.0003H41.9985V71.0006Z" fill="#F2F2F2"/>
<path d="M44.9998 71.0006H41.9993V74.0003H44.9998V71.0006Z" fill="#F2F2F2"/>
<path d="M48.0004 71.0006H45.0007V74.0003H48.0004V71.0006Z" fill="#F2F2F2"/>
<path d="M51.0009 71.0006H48.0012V74.0003H51.0009V71.0006Z" fill="#F2F2F2"/>
<path d="M53.9985 71.0006H50.9988V74.0003H53.9985V71.0006Z" fill="#F2F2F2"/>
<path d="M57 71.0006H54.0002V74.0003H57V71.0006Z" fill="#F2F2F2"/>
<path d="M60.0004 71.0006H57.0007V74.0003H60.0004V71.0006Z" fill="#F2F2F2"/>
<path d="M62.9982 71.0006H59.9985V74.0003H62.9982V71.0006Z" fill="#F2F2F2"/>
<path d="M66.0006 71.0006H63V74.0003H66.0006V71.0006Z" fill="black"/>
<path d="M69 71.0006H66.0002V74.0003H69V71.0006Z" fill="#F2F2F2"/>
<path d="M72.0012 71.0006H69.0015V74.0003H72.0012V71.0006Z" fill="#F2F2F2"/>
<path d="M74.9992 71.0006H71.9995V74.0003H74.9992V71.0006Z" fill="black"/>
<path d="M77.9997 71.0006H75V74.0003H77.9997V71.0006Z" fill="black"/>
<path d="M81.0012 71.0006H78.0015V74.0003H81.0012V71.0006Z" fill="#6F6F6F"/>
<path d="M83.9998 71.0006H80.9993V74.0003H83.9998V71.0006Z" fill="black"/>
<path d="M14.9997 74.0006H12V77.0003H14.9997V74.0006Z" fill="black"/>
<path d="M18.0002 74.0006H15.0005V77.0003H18.0002V74.0006Z" fill="#A3A3A3"/>
<path d="M20.9987 74.0006H17.999V77.0003H20.9987V74.0006Z" fill="#A3A3A3"/>
<path d="M23.9992 74.0006H20.9995V77.0003H23.9992V74.0006Z" fill="#A3A3A3"/>
<path d="M27.0009 74.0006H24.0012V77.0003H27.0009V74.0006Z" fill="#A3A3A3"/>
<path d="M30.0012 74.0006H27.0015V77.0003H30.0012V74.0006Z" fill="#A3A3A3"/>
<path d="M32.9996 74.0006H29.999V77.0003H32.9996V74.0006Z" fill="#A3A3A3"/>
<path d="M36.0004 74.0006H33.0007V77.0003H36.0004V74.0006Z" fill="#A3A3A3"/>
<path d="M39.0016 74.0006H36.001V77.0003H39.0016V74.0006Z" fill="#A3A3A3"/>
<path d="M41.9985 74.0006H38.9988V77.0003H41.9985V74.0006Z" fill="#A3A3A3"/>
<path d="M44.9998 74.0006H41.9993V77.0003H44.9998V74.0006Z" fill="#A3A3A3"/>
<path d="M48.0004 74.0006H45.0007V77.0003H48.0004V74.0006Z" fill="#A3A3A3"/>
<path d="M51.0009 74.0006H48.0012V77.0003H51.0009V74.0006Z" fill="#A3A3A3"/>
<path d="M53.9985 74.0006H50.9988V77.0003H53.9985V74.0006Z" fill="#A3A3A3"/>
<path d="M57 74.0006H54.0002V77.0003H57V74.0006Z" fill="#A3A3A3"/>
<path d="M60.0004 74.0006H57.0007V77.0003H60.0004V74.0006Z" fill="#A3A3A3"/>
<path d="M62.9982 74.0006H59.9985V77.0003H62.9982V74.0006Z" fill="#A3A3A3"/>
<path d="M66.0006 74.0006H63V77.0003H66.0006V74.0006Z" fill="black"/>
<path d="M69 74.0006H66.0002V77.0003H69V74.0006Z" fill="black"/>
<path d="M72.0012 74.0006H69.0015V77.0003H72.0012V74.0006Z" fill="black"/>
<path d="M74.9992 74.0006H71.9995V77.0003H74.9992V74.0006Z" fill="#A3A3A3"/>
<path d="M77.9997 74.0006H75V77.0003H77.9997V74.0006Z" fill="black"/>
<path d="M81.0012 74.0006H78.0015V77.0003H81.0012V74.0006Z" fill="#6F6F6F"/>
<path d="M83.9998 74.0006H80.9993V77.0003H83.9998V74.0006Z" fill="black"/>
<path d="M14.9997 77H12V79.9997H14.9997V77Z" fill="black"/>
<path d="M18.0002 77H15.0005V79.9997H18.0002V77Z" fill="#F2F2F2"/>
<path d="M20.9987 77H17.999V79.9997H20.9987V77Z" fill="#F2F2F2"/>
<path d="M23.9992 77H20.9995V79.9997H23.9992V77Z" fill="#F2F2F2"/>
<path d="M27.0009 77H24.0012V79.9997H27.0009V77Z" fill="#F2F2F2"/>
<path d="M30.0012 77H27.0015V79.9997H30.0012V77Z" fill="#F2F2F2"/>
<path d="M32.9996 77H29.999V79.9997H32.9996V77Z" fill="#F2F2F2"/>
<path d="M36.0004 77H33.0007V79.9997H36.0004V77Z" fill="#F2F2F2"/>
<path d="M39.0016 77H36.001V79.9997H39.0016V77Z" fill="#F2F2F2"/>
<path d="M41.9985 77H38.9988V79.9997H41.9985V77Z" fill="#F2F2F2"/>
<path d="M44.9998 77H41.9993V79.9997H44.9998V77Z" fill="#F2F2F2"/>
<path d="M48.0004 77H45.0007V79.9997H48.0004V77Z" fill="#F2F2F2"/>
<path d="M51.0009 77H48.0012V79.9997H51.0009V77Z" fill="#F2F2F2"/>
<path d="M53.9985 77H50.9988V79.9997H53.9985V77Z" fill="#F2F2F2"/>
<path d="M57 77H54.0002V79.9997H57V77Z" fill="#F2F2F2"/>
<path d="M60.0004 77H57.0007V79.9997H60.0004V77Z" fill="#F2F2F2"/>
<path d="M62.9982 77H59.9985V79.9997H62.9982V77Z" fill="black"/>
<path d="M66.0006 77H63V79.9997H66.0006V77Z" fill="black"/>
<path d="M69 77H66.0002V79.9997H69V77Z" fill="#F2F2F2"/>
<path d="M72.0012 77H69.0015V79.9997H72.0012V77Z" fill="#F2F2F2"/>
<path d="M74.9992 77H71.9995V79.9997H74.9992V77Z" fill="#F2F2F2"/>
<path d="M77.9997 77H75V79.9997H77.9997V77Z" fill="black"/>
<path d="M81.0012 77H78.0015V79.9997H81.0012V77Z" fill="#6F6F6F"/>
<path d="M83.9998 77H80.9993V79.9997H83.9998V77Z" fill="black"/>
<path d="M14.9997 80.0001H12V83.0007H14.9997V80.0001Z" fill="black"/>
<path d="M18.0002 80.0001H15.0005V83.0007H18.0002V80.0001Z" fill="#F2F2F2"/>
<path d="M20.9987 80.0001H17.999V83.0007H20.9987V80.0001Z" fill="#F2F2F2"/>
<path d="M23.9992 80.0001H20.9995V83.0007H23.9992V80.0001Z" fill="#F2F2F2"/>
<path d="M27.0009 80.0001H24.0012V83.0007H27.0009V80.0001Z" fill="#F2F2F2"/>
<path d="M30.0012 80.0001H27.0015V83.0007H30.0012V80.0001Z" fill="#F2F2F2"/>
<path d="M32.9996 80.0001H29.999V83.0007H32.9996V80.0001Z" fill="#F2F2F2"/>
<path d="M36.0004 80.0001H33.0007V83.0007H36.0004V80.0001Z" fill="#F2F2F2"/>
<path d="M39.0016 80.0001H36.001V83.0007H39.0016V80.0001Z" fill="#F2F2F2"/>
<path d="M41.9985 80.0001H38.9988V83.0007H41.9985V80.0001Z" fill="#F2F2F2"/>
<path d="M44.9998 80.0001H41.9993V83.0007H44.9998V80.0001Z" fill="#F2F2F2"/>
<path d="M48.0004 80.0001H45.0007V83.0007H48.0004V80.0001Z" fill="#F2F2F2"/>
<path d="M51.0009 80.0001H48.0012V83.0007H51.0009V80.0001Z" fill="#F2F2F2"/>
<path d="M53.9985 80.0001H50.9988V83.0007H53.9985V80.0001Z" fill="#F2F2F2"/>
<path d="M57 80.0001H54.0002V83.0007H57V80.0001Z" fill="#F2F2F2"/>
<path d="M60.0004 80.0001H57.0007V83.0007H60.0004V80.0001Z" fill="#F2F2F2"/>
<path d="M62.9982 80.0001H59.9985V83.0007H62.9982V80.0001Z" fill="#F2F2F2"/>
<path d="M66.0006 80.0001H63V83.0007H66.0006V80.0001Z" fill="#F2F2F2"/>
<path d="M69 80.0001H66.0002V83.0007H69V80.0001Z" fill="#F2F2F2"/>
<path d="M72.0012 80.0001H69.0015V83.0007H72.0012V80.0001Z" fill="#F2F2F2"/>
<path d="M74.9992 80.0001H71.9995V83.0007H74.9992V80.0001Z" fill="#F2F2F2"/>
<path d="M77.9997 80.0001H75V83.0007H77.9997V80.0001Z" fill="black"/>
<path d="M81.0012 80.0001H78.0015V83.0007H81.0012V80.0001Z" fill="#6F6F6F"/>
<path d="M83.9998 80.0001H80.9993V83.0007H83.9998V80.0001Z" fill="black"/>
<path d="M14.9997 83.0006H12V86.0003H14.9997V83.0006Z" fill="black"/>
<path d="M18.0002 83.0006H15.0005V86.0003H18.0002V83.0006Z" fill="#A3A3A3"/>
<path d="M20.9987 83.0006H17.999V86.0003H20.9987V83.0006Z" fill="#A3A3A3"/>
<path d="M23.9992 83.0006H20.9995V86.0003H23.9992V83.0006Z" fill="#A3A3A3"/>
<path d="M27.0009 83.0006H24.0012V86.0003H27.0009V83.0006Z" fill="#A3A3A3"/>
<path d="M30.0012 83.0006H27.0015V86.0003H30.0012V83.0006Z" fill="#A3A3A3"/>
<path d="M32.9996 83.0006H29.999V86.0003H32.9996V83.0006Z" fill="#A3A3A3"/>
<path d="M36.0004 83.0006H33.0007V86.0003H36.0004V83.0006Z" fill="#A3A3A3"/>
<path d="M39.0016 83.0006H36.001V86.0003H39.0016V83.0006Z" fill="#A3A3A3"/>
<path d="M41.9985 83.0006H38.9988V86.0003H41.9985V83.0006Z" fill="#A3A3A3"/>
<path d="M44.9998 83.0006H41.9993V86.0003H44.9998V83.0006Z" fill="#A3A3A3"/>
<path d="M48.0004 83.0006H45.0007V86.0003H48.0004V83.0006Z" fill="#A3A3A3"/>
<path d="M51.0009 83.0006H48.0012V86.0003H51.0009V83.0006Z" fill="#A3A3A3"/>
<path d="M53.9985 83.0006H50.9988V86.0003H53.9985V83.0006Z" fill="#A3A3A3"/>
<path d="M57 83.0006H54.0002V86.0003H57V83.0006Z" fill="#A3A3A3"/>
<path d="M60.0004 83.0006H57.0007V86.0003H60.0004V83.0006Z" fill="#A3A3A3"/>
<path d="M62.9982 83.0006H59.9985V86.0003H62.9982V83.0006Z" fill="#A3A3A3"/>
<path d="M66.0006 83.0006H63V86.0003H66.0006V83.0006Z" fill="#A3A3A3"/>
<path d="M69 83.0006H66.0002V86.0003H69V83.0006Z" fill="#A3A3A3"/>
<path d="M72.0012 83.0006H69.0015V86.0003H72.0012V83.0006Z" fill="#A3A3A3"/>
<path d="M74.9992 83.0006H71.9995V86.0003H74.9992V83.0006Z" fill="#A3A3A3"/>
<path d="M77.9997 83.0006H75V86.0003H77.9997V83.0006Z" fill="black"/>
<path d="M81.0012 83.0006H78.0015V86.0003H81.0012V83.0006Z" fill="#6F6F6F"/>
<path d="M83.9998 83.0006H80.9993V86.0003H83.9998V83.0006Z" fill="black"/>
<path d="M14.9997 85.9998H12V88.9995H14.9997V85.9998Z" fill="black"/>
<path d="M18.0002 85.9998H15.0005V88.9995H18.0002V85.9998Z" fill="#F2F2F2"/>
<path d="M20.9987 85.9998H17.999V88.9995H20.9987V85.9998Z" fill="#F2F2F2"/>
<path d="M23.9992 85.9998H20.9995V88.9995H23.9992V85.9998Z" fill="#F2F2F2"/>
<path d="M27.0009 85.9998H24.0012V88.9995H27.0009V85.9998Z" fill="#F2F2F2"/>
<path d="M30.0012 85.9998H27.0015V88.9995H30.0012V85.9998Z" fill="#F2F2F2"/>
<path d="M32.9996 85.9998H29.999V88.9995H32.9996V85.9998Z" fill="#F2F2F2"/>
<path d="M36.0004 85.9998H33.0007V88.9995H36.0004V85.9998Z" fill="#F2F2F2"/>
<path d="M39.0016 85.9998H36.001V88.9995H39.0016V85.9998Z" fill="#F2F2F2"/>
<path d="M41.9985 85.9998H38.9988V88.9995H41.9985V85.9998Z" fill="#F2F2F2"/>
<path d="M44.9998 85.9998H41.9993V88.9995H44.9998V85.9998Z" fill="#F2F2F2"/>
<path d="M48.0004 85.9998H45.0007V88.9995H48.0004V85.9998Z" fill="#F2F2F2"/>
<path d="M51.0009 85.9998H48.0012V88.9995H51.0009V85.9998Z" fill="#F2F2F2"/>
<path d="M53.9985 85.9998H50.9988V88.9995H53.9985V85.9998Z" fill="#F2F2F2"/>
<path d="M57 85.9998H54.0002V88.9995H57V85.9998Z" fill="#F2F2F2"/>
<path d="M60.0004 85.9998H57.0007V88.9995H60.0004V85.9998Z" fill="#F2F2F2"/>
<path d="M62.9982 85.9998H59.9985V88.9995H62.9982V85.9998Z" fill="#F2F2F2"/>
<path d="M66.0006 85.9998H63V88.9995H66.0006V85.9998Z" fill="#F2F2F2"/>
<path d="M69 85.9998H66.0002V88.9995H69V85.9998Z" fill="#F2F2F2"/>
<path d="M72.0012 85.9998H69.0015V88.9995H72.0012V85.9998Z" fill="#F2F2F2"/>
<path d="M74.9992 85.9998H71.9995V88.9995H74.9992V85.9998Z" fill="#F2F2F2"/>
<path d="M77.9997 85.9998H75V88.9995H77.9997V85.9998Z" fill="black"/>
<path d="M81.0012 85.9998H78.0015V88.9995H81.0012V85.9998Z" fill="#6F6F6F"/>
<path d="M83.9998 85.9998H80.9993V88.9995H83.9998V85.9998Z" fill="black"/>
<path d="M14.9997 89.0012H12V92.0009H14.9997V89.0012Z" fill="black"/>
<path d="M18.0002 89.0012H15.0005V92.0009H18.0002V89.0012Z" fill="#6F6F6F"/>
<path d="M20.9987 89.0012H17.999V92.0009H20.9987V89.0012Z" fill="#F2F2F2"/>
<path d="M23.9992 89.0012H20.9995V92.0009H23.9992V89.0012Z" fill="#F2F2F2"/>
<path d="M27.0009 89.0012H24.0012V92.0009H27.0009V89.0012Z" fill="#F2F2F2"/>
<path d="M30.0012 89.0012H27.0015V92.0009H30.0012V89.0012Z" fill="#F2F2F2"/>
<path d="M32.9996 89.0012H29.999V92.0009H32.9996V89.0012Z" fill="#F2F2F2"/>
<path d="M36.0004 89.0012H33.0007V92.0009H36.0004V89.0012Z" fill="#F2F2F2"/>
<path d="M39.0016 89.0012H36.001V92.0009H39.0016V89.0012Z" fill="#F2F2F2"/>
<path d="M41.9985 89.0012H38.9988V92.0009H41.9985V89.0012Z" fill="#F2F2F2"/>
<path d="M44.9998 89.0012H41.9993V92.0009H44.9998V89.0012Z" fill="#F2F2F2"/>
<path d="M48.0004 89.0012H45.0007V92.0009H48.0004V89.0012Z" fill="#F2F2F2"/>
<path d="M51.0009 89.0012H48.0012V92.0009H51.0009V89.0012Z" fill="#F2F2F2"/>
<path d="M53.9985 89.0012H50.9988V92.0009H53.9985V89.0012Z" fill="#F2F2F2"/>
<path d="M57 89.0012H54.0002V92.0009H57V89.0012Z" fill="#F2F2F2"/>
<path d="M60.0004 89.0012H57.0007V92.0009H60.0004V89.0012Z" fill="#F2F2F2"/>
<path d="M62.9982 89.0012H59.9985V92.0009H62.9982V89.0012Z" fill="#F2F2F2"/>
<path d="M66.0006 89.0012H63V92.0009H66.0006V89.0012Z" fill="#F2F2F2"/>
<path d="M69 89.0012H66.0002V92.0009H69V89.0012Z" fill="#F2F2F2"/>
<path d="M72.0012 89.0012H69.0015V92.0009H72.0012V89.0012Z" fill="#F2F2F2"/>
<path d="M74.9992 89.0012H71.9995V92.0009H74.9992V89.0012Z" fill="#6F6F6F"/>
<path d="M77.9997 89.0012H75V92.0009H77.9997V89.0012Z" fill="black"/>
<path d="M81.0012 89.0012H78.0015V92.0009H81.0012V89.0012Z" fill="#6F6F6F"/>
<path d="M83.9998 89.0012H80.9993V92.0009H83.9998V89.0012Z" fill="black"/>
<path d="M18.0002 92.0001H15.0005V94.9998H18.0002V92.0001Z" fill="black"/>
<path d="M20.9987 92.0001H17.999V94.9998H20.9987V92.0001Z" fill="#6F6F6F"/>
<path d="M23.9992 92.0001H20.9995V94.9998H23.9992V92.0001Z" fill="#6F6F6F"/>
<path d="M27.0009 92.0001H24.0012V94.9998H27.0009V92.0001Z" fill="#6F6F6F"/>
<path d="M30.0012 92.0001H27.0015V94.9998H30.0012V92.0001Z" fill="#6F6F6F"/>
<path d="M32.9996 92.0001H29.999V94.9998H32.9996V92.0001Z" fill="#6F6F6F"/>
<path d="M36.0004 92.0001H33.0007V94.9998H36.0004V92.0001Z" fill="#6F6F6F"/>
<path d="M39.0016 92.0001H36.001V94.9998H39.0016V92.0001Z" fill="#6F6F6F"/>
<path d="M41.9985 92.0001H38.9988V94.9998H41.9985V92.0001Z" fill="#6F6F6F"/>
<path d="M44.9998 92.0001H41.9993V94.9998H44.9998V92.0001Z" fill="#6F6F6F"/>
<path d="M48.0004 92.0001H45.0007V94.9998H48.0004V92.0001Z" fill="#6F6F6F"/>
<path d="M51.0009 92.0001H48.0012V94.9998H51.0009V92.0001Z" fill="#6F6F6F"/>
<path d="M53.9985 92.0001H50.9988V94.9998H53.9985V92.0001Z" fill="#6F6F6F"/>
<path d="M57 92.0001H54.0002V94.9998H57V92.0001Z" fill="#6F6F6F"/>
<path d="M60.0004 92.0001H57.0007V94.9998H60.0004V92.0001Z" fill="#6F6F6F"/>
<path d="M62.9982 92.0001H59.9985V94.9998H62.9982V92.0001Z" fill="#6F6F6F"/>
<path d="M66.0006 92.0001H63V94.9998H66.0006V92.0001Z" fill="#6F6F6F"/>
<path d="M69 92.0001H66.0002V94.9998H69V92.0001Z" fill="#6F6F6F"/>
<path d="M72.0012 92.0001H69.0015V94.9998H72.0012V92.0001Z" fill="#6F6F6F"/>
<path d="M74.9992 92.0001H71.9995V94.9998H74.9992V92.0001Z" fill="black"/>
<path d="M77.9997 92.0001H75V94.9998H77.9997V92.0001Z" fill="#6F6F6F"/>
<path d="M81.0012 92.0001H78.0015V94.9998H81.0012V92.0001Z" fill="black"/>
<path d="M20.9987 95.0005H17.999V98.0002H20.9987V95.0005Z" fill="black"/>
<path d="M23.9992 95.0005H20.9995V98.0002H23.9992V95.0005Z" fill="black"/>
<path d="M27.0009 95.0005H24.0012V98.0002H27.0009V95.0005Z" fill="black"/>
<path d="M30.0012 95.0005H27.0015V98.0002H30.0012V95.0005Z" fill="black"/>
<path d="M32.9996 95.0005H29.999V98.0002H32.9996V95.0005Z" fill="black"/>
<path d="M36.0004 95.0005H33.0007V98.0002H36.0004V95.0005Z" fill="black"/>
<path d="M39.0016 95.0005H36.001V98.0002H39.0016V95.0005Z" fill="black"/>
<path d="M41.9985 95.0005H38.9988V98.0002H41.9985V95.0005Z" fill="black"/>
<path d="M44.9998 95.0005H41.9993V98.0002H44.9998V95.0005Z" fill="black"/>
<path d="M48.0004 95.0005H45.0007V98.0002H48.0004V95.0005Z" fill="black"/>
<path d="M51.0009 95.0005H48.0012V98.0002H51.0009V95.0005Z" fill="black"/>
<path d="M53.9985 95.0005H50.9988V98.0002H53.9985V95.0005Z" fill="black"/>
<path d="M57 95.0005H54.0002V98.0002H57V95.0005Z" fill="black"/>
<path d="M60.0004 95.0005H57.0007V98.0002H60.0004V95.0005Z" fill="black"/>
<path d="M62.9982 95.0005H59.9985V98.0002H62.9982V95.0005Z" fill="black"/>
<path d="M66.0006 95.0005H63V98.0002H66.0006V95.0005Z" fill="black"/>
<path d="M69 95.0005H66.0002V98.0002H69V95.0005Z" fill="black"/>
<path d="M72.0012 95.0005H69.0015V98.0002H72.0012V95.0005Z" fill="black"/>
<path d="M74.9992 95.0005H71.9995V98.0002H74.9992V95.0005Z" fill="black"/>
<path d="M77.9997 95.0005H75V98.0002H77.9997V95.0005Z" fill="black"/>
</svg>
