<svg width="112" height="112" viewBox="0 0 112 112" fill="none" xmlns="http://www.w3.org/2000/svg">
<path d="M31.9997 2H28.0002V6.00035H31.9997V2Z" fill="black"/>
<path d="M35.9999 2H31.9995V6.00035H35.9999V2Z" fill="black"/>
<path d="M40.0011 2H36.0007V6.00035H40.0011V2Z" fill="black"/>
<path d="M28.0008 6.00031H24.0005V10.0007H28.0008V6.00031Z" fill="black"/>
<path d="M31.9997 6.00031H28.0002V10.0007H31.9997V6.00031Z" fill="black"/>
<path d="M35.9999 6.00031H31.9995V10.0007H35.9999V6.00031Z" fill="black"/>
<path d="M40.0011 6.00031H36.0007V10.0007H40.0011V6.00031Z" fill="black"/>
<path d="M43.9996 6.00031H39.9993V10.0007H43.9996V6.00031Z" fill="black"/>
<path d="M28.0008 9.99957H24.0005V13.999H28.0008V9.99957Z" fill="black"/>
<path d="M31.9997 9.99957H28.0002V13.999H31.9997V9.99957Z" fill="black"/>
<path d="M35.9999 9.99957H31.9995V13.999H35.9999V9.99957Z" fill="black"/>
<path d="M40.0011 9.99957H36.0007V13.999H40.0011V9.99957Z" fill="black"/>
<path d="M43.9996 9.99957H39.9993V13.999H43.9996V9.99957Z" fill="black"/>
<path d="M47.9987 9.99957H43.9993V13.999H47.9987V9.99957Z" fill="black"/>
<path d="M28.0008 14.0003H24.0005V18.0007H28.0008V14.0003Z" fill="black"/>
<path d="M31.9997 14.0003H28.0002V18.0007H31.9997V14.0003Z" fill="black"/>
<path d="M40.0011 14.0003H36.0007V18.0007H40.0011V14.0003Z" fill="black"/>
<path d="M43.9996 14.0003H39.9993V18.0007H43.9996V14.0003Z" fill="black"/>
<path d="M47.9987 14.0003H43.9993V18.0007H47.9987V14.0003Z" fill="black"/>
<path d="M52.0004 14.0003H48V18.0007H52.0004V14.0003Z" fill="black"/>
<path d="M28.0008 18.0006H24.0005V22H28.0008V18.0006Z" fill="black"/>
<path d="M31.9997 18.0006H28.0002V22H31.9997V18.0006Z" fill="black"/>
<path d="M43.9996 18.0006H39.9993V22H43.9996V18.0006Z" fill="black"/>
<path d="M47.9987 18.0006H43.9993V22H47.9987V18.0006Z" fill="black"/>
<path d="M52.0004 18.0006H48V22H52.0004V18.0006Z" fill="black"/>
<path d="M56.0001 18.0006H51.9998V22H56.0001V18.0006Z" fill="black"/>
<path d="M28.0008 22H24.0005V26.0004H28.0008V22Z" fill="black"/>
<path d="M31.9997 22H28.0002V26.0004H31.9997V22Z" fill="black"/>
<path d="M47.9987 22H43.9993V26.0004H47.9987V22Z" fill="black"/>
<path d="M52.0004 22H48V26.0004H52.0004V22Z" fill="black"/>
<path d="M56.0001 22H51.9998V26.0004H56.0001V22Z" fill="black"/>
<path d="M19.9991 26.0002H15.9988V29.9996H19.9991V26.0002Z" fill="black"/>
<path d="M24.0008 26.0002H20.0005V29.9996H24.0008V26.0002Z" fill="black"/>
<path d="M28.0008 26.0002H24.0005V29.9996H28.0008V26.0002Z" fill="black"/>
<path d="M31.9997 26.0002H28.0002V29.9996H31.9997V26.0002Z" fill="black"/>
<path d="M52.0004 26.0002H48V29.9996H52.0004V26.0002Z" fill="black"/>
<path d="M56.0001 26.0002H51.9998V29.9996H56.0001V26.0002Z" fill="black"/>
<path d="M15.9994 29.9995H12V33.9999H15.9994V29.9995Z" fill="black"/>
<path d="M19.9991 29.9995H15.9988V33.9999H19.9991V29.9995Z" fill="#F2F2F2"/>
<path d="M24.0008 29.9995H20.0005V33.9999H24.0008V29.9995Z" fill="black"/>
<path d="M28.0008 29.9995H24.0005V33.9999H28.0008V29.9995Z" fill="black"/>
<path d="M31.9997 29.9995H28.0002V33.9999H31.9997V29.9995Z" fill="black"/>
<path d="M47.9987 29.9995H43.9993V33.9999H47.9987V29.9995Z" fill="black"/>
<path d="M52.0004 29.9995H48V33.9999H52.0004V29.9995Z" fill="black"/>
<path d="M56.0001 29.9995H51.9998V33.9999H56.0001V29.9995Z" fill="black"/>
<path d="M59.9992 29.9995H55.9998V33.9999H59.9992V29.9995Z" fill="black"/>
<path d="M64.0006 29.9995H60.0002V33.9999H64.0006V29.9995Z" fill="black"/>
<path d="M68.0004 29.9995H64V33.9999H68.0004V29.9995Z" fill="black"/>
<path d="M71.9994 29.9995H68V33.9999H71.9994V29.9995Z" fill="black"/>
<path d="M75.9994 29.9995H71.999V33.9999H75.9994V29.9995Z" fill="black"/>
<path d="M15.9994 34.0001H12V37.9995H15.9994V34.0001Z" fill="black"/>
<path d="M19.9991 34.0001H15.9988V37.9995H19.9991V34.0001Z" fill="black"/>
<path d="M24.0008 34.0001H20.0005V37.9995H24.0008V34.0001Z" fill="black"/>
<path d="M28.0008 34.0001H24.0005V37.9995H28.0008V34.0001Z" fill="black"/>
<path d="M31.9997 34.0001H28.0002V37.9995H31.9997V34.0001Z" fill="black"/>
<path d="M40.0011 34.0001H36.0007V37.9995H40.0011V34.0001Z" fill="black"/>
<path d="M43.9996 34.0001H39.9993V37.9995H43.9996V34.0001Z" fill="black"/>
<path d="M47.9987 34.0001H43.9993V37.9995H47.9987V34.0001Z" fill="#FFCF00"/>
<path d="M52.0004 34.0001H48V37.9995H52.0004V34.0001Z" fill="black"/>
<path d="M56.0001 34.0001H51.9998V37.9995H56.0001V34.0001Z" fill="black"/>
<path d="M59.9992 34.0001H55.9998V37.9995H59.9992V34.0001Z" fill="#3EE4ED"/>
<path d="M64.0006 34.0001H60.0002V37.9995H64.0006V34.0001Z" fill="#FFCF00"/>
<path d="M68.0004 34.0001H64V37.9995H68.0004V34.0001Z" fill="#FFCF00"/>
<path d="M71.9994 34.0001H68V37.9995H71.9994V34.0001Z" fill="#F2F2F2"/>
<path d="M75.9994 34.0001H71.999V37.9995H75.9994V34.0001Z" fill="#F2F2F2"/>
<path d="M80.0008 34.0001H76.0005V37.9995H80.0008V34.0001Z" fill="black"/>
<path d="M83.9999 34.0001H79.9995V37.9995H83.9999V34.0001Z" fill="black"/>
<path d="M19.9991 37.9996H15.9988V41.9999H19.9991V37.9996Z" fill="black"/>
<path d="M24.0008 37.9996H20.0005V41.9999H24.0008V37.9996Z" fill="black"/>
<path d="M28.0008 37.9996H24.0005V41.9999H28.0008V37.9996Z" fill="black"/>
<path d="M35.9999 37.9996H31.9995V41.9999H35.9999V37.9996Z" fill="black"/>
<path d="M40.0011 37.9996H36.0007V41.9999H40.0011V37.9996Z" fill="#FFCF00"/>
<path d="M43.9996 37.9996H39.9993V41.9999H43.9996V37.9996Z" fill="#FFCF00"/>
<path d="M47.9987 37.9996H43.9993V41.9999H47.9987V37.9996Z" fill="#A3A3A3"/>
<path d="M52.0004 37.9996H48V41.9999H52.0004V37.9996Z" fill="black"/>
<path d="M56.0001 37.9996H51.9998V41.9999H56.0001V37.9996Z" fill="black"/>
<path d="M59.9992 37.9996H55.9998V41.9999H59.9992V37.9996Z" fill="#3EE4ED"/>
<path d="M64.0006 37.9996H60.0002V41.9999H64.0006V37.9996Z" fill="#FFCF00"/>
<path d="M68.0004 37.9996H64V41.9999H68.0004V37.9996Z" fill="#6F6F6F"/>
<path d="M71.9994 37.9996H68V41.9999H71.9994V37.9996Z" fill="#FFCF00"/>
<path d="M75.9994 37.9996H71.999V41.9999H75.9994V37.9996Z" fill="#6F6F6F"/>
<path d="M80.0008 37.9996H76.0005V41.9999H80.0008V37.9996Z" fill="#F2F2F2"/>
<path d="M83.9999 37.9996H79.9995V41.9999H83.9999V37.9996Z" fill="#6F6F6F"/>
<path d="M87.9987 37.9996H83.9993V41.9999H87.9987V37.9996Z" fill="black"/>
<path d="M31.9997 41.9998H28.0002V46.0002H31.9997V41.9998Z" fill="black"/>
<path d="M35.9999 41.9998H31.9995V46.0002H35.9999V41.9998Z" fill="#3EE4ED"/>
<path d="M40.0011 41.9998H36.0007V46.0002H40.0011V41.9998Z" fill="#A3A3A3"/>
<path d="M43.9996 41.9998H39.9993V46.0002H43.9996V41.9998Z" fill="black"/>
<path d="M47.9987 41.9998H43.9993V46.0002H47.9987V41.9998Z" fill="black"/>
<path d="M52.0004 41.9998H48V46.0002H52.0004V41.9998Z" fill="black"/>
<path d="M56.0001 41.9998H51.9998V46.0002H56.0001V41.9998Z" fill="black"/>
<path d="M59.9992 41.9998H55.9998V46.0002H59.9992V41.9998Z" fill="#3EE4ED"/>
<path d="M64.0006 41.9998H60.0002V46.0002H64.0006V41.9998Z" fill="#FFCF00"/>
<path d="M68.0004 41.9998H64V46.0002H68.0004V41.9998Z" fill="#FFCF00"/>
<path d="M71.9994 41.9998H68V46.0002H71.9994V41.9998Z" fill="#6F6F6F"/>
<path d="M75.9994 41.9998H71.999V46.0002H75.9994V41.9998Z" fill="#A3A3A3"/>
<path d="M80.0008 41.9998H76.0005V46.0002H80.0008V41.9998Z" fill="#6F6F6F"/>
<path d="M83.9999 41.9998H79.9995V46.0002H83.9999V41.9998Z" fill="#A3A3A3"/>
<path d="M87.9987 41.9998H83.9993V46.0002H87.9987V41.9998Z" fill="#F2F2F2"/>
<path d="M92.0001 41.9998H87.9998V46.0002H92.0001V41.9998Z" fill="black"/>
<path d="M28.0008 46.0002H24.0005V50.0005H28.0008V46.0002Z" fill="black"/>
<path d="M31.9997 46.0002H28.0002V50.0005H31.9997V46.0002Z" fill="#F2F2F2"/>
<path d="M35.9999 46.0002H31.9995V50.0005H35.9999V46.0002Z" fill="#A3A3A3"/>
<path d="M40.0011 46.0002H36.0007V50.0005H40.0011V46.0002Z" fill="black"/>
<path d="M43.9996 46.0002H39.9993V50.0005H43.9996V46.0002Z" fill="#F2F2F2"/>
<path d="M47.9987 46.0002H43.9993V50.0005H47.9987V46.0002Z" fill="black"/>
<path d="M52.0004 46.0002H48V50.0005H52.0004V46.0002Z" fill="black"/>
<path d="M56.0001 46.0002H51.9998V50.0005H56.0001V46.0002Z" fill="black"/>
<path d="M59.9992 46.0002H55.9998V50.0005H59.9992V46.0002Z" fill="#3EE4ED"/>
<path d="M64.0006 46.0002H60.0002V50.0005H64.0006V46.0002Z" fill="#FFCF00"/>
<path d="M68.0004 46.0002H64V50.0005H68.0004V46.0002Z" fill="#6F6F6F"/>
<path d="M71.9994 46.0002H68V50.0005H71.9994V46.0002Z" fill="#FFCF00"/>
<path d="M75.9994 46.0002H71.999V50.0005H75.9994V46.0002Z" fill="#6F6F6F"/>
<path d="M80.0008 46.0002H76.0005V50.0005H80.0008V46.0002Z" fill="#A3A3A3"/>
<path d="M83.9999 46.0002H79.9995V50.0005H83.9999V46.0002Z" fill="#F2F2F2"/>
<path d="M87.9987 46.0002H83.9993V50.0005H87.9987V46.0002Z" fill="#3EE4ED"/>
<path d="M92.0001 46.0002H87.9998V50.0005H92.0001V46.0002Z" fill="#F2F2F2"/>
<path d="M96.0004 46.0002H92V50.0005H96.0004V46.0002Z" fill="black"/>
<path d="M28.0008 49.9995H24.0005V53.9999H28.0008V49.9995Z" fill="black"/>
<path d="M31.9997 49.9995H28.0002V53.9999H31.9997V49.9995Z" fill="#F2F2F2"/>
<path d="M35.9999 49.9995H31.9995V53.9999H35.9999V49.9995Z" fill="#A3A3A3"/>
<path d="M40.0011 49.9995H36.0007V53.9999H40.0011V49.9995Z" fill="black"/>
<path d="M43.9996 49.9995H39.9993V53.9999H43.9996V49.9995Z" fill="black"/>
<path d="M47.9987 49.9995H43.9993V53.9999H47.9987V49.9995Z" fill="black"/>
<path d="M52.0004 49.9995H48V53.9999H52.0004V49.9995Z" fill="black"/>
<path d="M56.0001 49.9995H51.9998V53.9999H56.0001V49.9995Z" fill="black"/>
<path d="M59.9992 49.9995H55.9998V53.9999H59.9992V49.9995Z" fill="#3EE4ED"/>
<path d="M64.0006 49.9995H60.0002V53.9999H64.0006V49.9995Z" fill="#FFCF00"/>
<path d="M68.0004 49.9995H64V53.9999H68.0004V49.9995Z" fill="#FFCF00"/>
<path d="M71.9994 49.9995H68V53.9999H71.9994V49.9995Z" fill="#6F6F6F"/>
<path d="M75.9994 49.9995H71.999V53.9999H75.9994V49.9995Z" fill="#A3A3A3"/>
<path d="M80.0008 49.9995H76.0005V53.9999H80.0008V49.9995Z" fill="#F2F2F2"/>
<path d="M83.9999 49.9995H79.9995V53.9999H83.9999V49.9995Z" fill="#3EE4ED"/>
<path d="M87.9987 49.9995H83.9993V53.9999H87.9987V49.9995Z" fill="#F2F2F2"/>
<path d="M92.0001 49.9995H87.9998V53.9999H92.0001V49.9995Z" fill="#A3A3A3"/>
<path d="M96.0004 49.9995H92V53.9999H96.0004V49.9995Z" fill="black"/>
<path d="M24.0008 54.0002H20.0005V58.0006H24.0008V54.0002Z" fill="black"/>
<path d="M28.0008 54.0002H24.0005V58.0006H28.0008V54.0002Z" fill="#F2F2F2"/>
<path d="M31.9997 54.0002H28.0002V58.0006H31.9997V54.0002Z" fill="#A3A3A3"/>
<path d="M35.9999 54.0002H31.9995V58.0006H35.9999V54.0002Z" fill="#6F6F6F"/>
<path d="M40.0011 54.0002H36.0007V58.0006H40.0011V54.0002Z" fill="#A3A3A3"/>
<path d="M43.9996 54.0002H39.9993V58.0006H43.9996V54.0002Z" fill="black"/>
<path d="M47.9987 54.0002H43.9993V58.0006H47.9987V54.0002Z" fill="black"/>
<path d="M52.0004 54.0002H48V58.0006H52.0004V54.0002Z" fill="black"/>
<path d="M56.0001 54.0002H51.9998V58.0006H56.0001V54.0002Z" fill="#3EE4ED"/>
<path d="M59.9992 54.0002H55.9998V58.0006H59.9992V54.0002Z" fill="#3EE4ED"/>
<path d="M64.0006 54.0002H60.0002V58.0006H64.0006V54.0002Z" fill="#FFCF00"/>
<path d="M68.0004 54.0002H64V58.0006H68.0004V54.0002Z" fill="#6F6F6F"/>
<path d="M71.9994 54.0002H68V58.0006H71.9994V54.0002Z" fill="#FFCF00"/>
<path d="M75.9994 54.0002H71.999V58.0006H75.9994V54.0002Z" fill="#F2F2F2"/>
<path d="M80.0008 54.0002H76.0005V58.0006H80.0008V54.0002Z" fill="#3EE4ED"/>
<path d="M83.9999 54.0002H79.9995V58.0006H83.9999V54.0002Z" fill="#F2F2F2"/>
<path d="M87.9987 54.0002H83.9993V58.0006H87.9987V54.0002Z" fill="#A3A3A3"/>
<path d="M92.0001 54.0002H87.9998V58.0006H92.0001V54.0002Z" fill="#6F6F6F"/>
<path d="M96.0004 54.0002H92V58.0006H96.0004V54.0002Z" fill="#A3A3A3"/>
<path d="M99.9992 54.0002H95.9998V58.0006H99.9992V54.0002Z" fill="black"/>
<path d="M24.0008 57.999H20.0005V61.9994H24.0008V57.999Z" fill="black"/>
<path d="M28.0008 57.999H24.0005V61.9994H28.0008V57.999Z" fill="#A3A3A3"/>
<path d="M31.9997 57.999H28.0002V61.9994H31.9997V57.999Z" fill="#6F6F6F"/>
<path d="M35.9999 57.999H31.9995V61.9994H35.9999V57.999Z" fill="#A3A3A3"/>
<path d="M40.0011 57.999H36.0007V61.9994H40.0011V57.999Z" fill="#6F6F6F"/>
<path d="M43.9996 57.999H39.9993V61.9994H43.9996V57.999Z" fill="#A3A3A3"/>
<path d="M47.9987 57.999H43.9993V61.9994H47.9987V57.999Z" fill="#6F6F6F"/>
<path d="M52.0004 57.999H48V61.9994H52.0004V57.999Z" fill="#3EE4ED"/>
<path d="M56.0001 57.999H51.9998V61.9994H56.0001V57.999Z" fill="black"/>
<path d="M59.9992 57.999H55.9998V61.9994H59.9992V57.999Z" fill="black"/>
<path d="M64.0006 57.999H60.0002V61.9994H64.0006V57.999Z" fill="black"/>
<path d="M68.0004 57.999H64V61.9994H68.0004V57.999Z" fill="black"/>
<path d="M71.9994 57.999H68V61.9994H71.9994V57.999Z" fill="#F2F2F2"/>
<path d="M75.9994 57.999H71.999V61.9994H75.9994V57.999Z" fill="#3EE4ED"/>
<path d="M80.0008 57.999H76.0005V61.9994H80.0008V57.999Z" fill="#F2F2F2"/>
<path d="M83.9999 57.999H79.9995V61.9994H83.9999V57.999Z" fill="#A3A3A3"/>
<path d="M87.9987 57.999H83.9993V61.9994H87.9987V57.999Z" fill="#6F6F6F"/>
<path d="M92.0001 57.999H87.9998V61.9994H92.0001V57.999Z" fill="#A3A3A3"/>
<path d="M96.0004 57.999H92V61.9994H96.0004V57.999Z" fill="#6F6F6F"/>
<path d="M99.9992 57.999H95.9998V61.9994H99.9992V57.999Z" fill="black"/>
<path d="M24.0008 61.9998H20.0005V66.0001H24.0008V61.9998Z" fill="black"/>
<path d="M28.0008 61.9998H24.0005V66.0001H28.0008V61.9998Z" fill="#6F6F6F"/>
<path d="M31.9997 61.9998H28.0002V66.0001H31.9997V61.9998Z" fill="#A3A3A3"/>
<path d="M35.9999 61.9998H31.9995V66.0001H35.9999V61.9998Z" fill="#6F6F6F"/>
<path d="M40.0011 61.9998H36.0007V66.0001H40.0011V61.9998Z" fill="#A3A3A3"/>
<path d="M43.9996 61.9998H39.9993V66.0001H43.9996V61.9998Z" fill="#6F6F6F"/>
<path d="M47.9987 61.9998H43.9993V66.0001H47.9987V61.9998Z" fill="#A3A3A3"/>
<path d="M52.0004 61.9998H48V66.0001H52.0004V61.9998Z" fill="black"/>
<path d="M56.0001 61.9998H51.9998V66.0001H56.0001V61.9998Z" fill="#A3A3A3"/>
<path d="M59.9992 61.9998H55.9998V66.0001H59.9992V61.9998Z" fill="#A3A3A3"/>
<path d="M64.0006 61.9998H60.0002V66.0001H64.0006V61.9998Z" fill="#A3A3A3"/>
<path d="M68.0004 61.9998H64V66.0001H68.0004V61.9998Z" fill="#A3A3A3"/>
<path d="M71.9994 61.9998H68V66.0001H71.9994V61.9998Z" fill="black"/>
<path d="M75.9994 61.9998H71.999V66.0001H75.9994V61.9998Z" fill="#F2F2F2"/>
<path d="M80.0008 61.9998H76.0005V66.0001H80.0008V61.9998Z" fill="#A3A3A3"/>
<path d="M83.9999 61.9998H79.9995V66.0001H83.9999V61.9998Z" fill="#6F6F6F"/>
<path d="M87.9987 61.9998H83.9993V66.0001H87.9987V61.9998Z" fill="#A3A3A3"/>
<path d="M92.0001 61.9998H87.9998V66.0001H92.0001V61.9998Z" fill="#6F6F6F"/>
<path d="M96.0004 61.9998H92V66.0001H96.0004V61.9998Z" fill="#A3A3A3"/>
<path d="M99.9992 61.9998H95.9998V66.0001H99.9992V61.9998Z" fill="black"/>
<path d="M24.0008 66.0002H20.0005V69.9997H24.0008V66.0002Z" fill="black"/>
<path d="M28.0008 66.0002H24.0005V69.9997H28.0008V66.0002Z" fill="#F2F2F2"/>
<path d="M31.9997 66.0002H28.0002V69.9997H31.9997V66.0002Z" fill="#F2F2F2"/>
<path d="M35.9999 66.0002H31.9995V69.9997H35.9999V66.0002Z" fill="#F2F2F2"/>
<path d="M40.0011 66.0002H36.0007V69.9997H40.0011V66.0002Z" fill="#F2F2F2"/>
<path d="M43.9996 66.0002H39.9993V69.9997H43.9996V66.0002Z" fill="#F2F2F2"/>
<path d="M47.9987 66.0002H43.9993V69.9997H47.9987V66.0002Z" fill="#F2F2F2"/>
<path d="M52.0004 66.0002H48V69.9997H52.0004V66.0002Z" fill="black"/>
<path d="M56.0001 66.0002H51.9998V69.9997H56.0001V66.0002Z" fill="#A3A3A3"/>
<path d="M59.9992 66.0002H55.9998V69.9997H59.9992V66.0002Z" fill="#F2F2F2"/>
<path d="M64.0006 66.0002H60.0002V69.9997H64.0006V66.0002Z" fill="#F2F2F2"/>
<path d="M68.0004 66.0002H64V69.9997H68.0004V66.0002Z" fill="#A3A3A3"/>
<path d="M71.9994 66.0002H68V69.9997H71.9994V66.0002Z" fill="black"/>
<path d="M75.9994 66.0002H71.999V69.9997H75.9994V66.0002Z" fill="#A3A3A3"/>
<path d="M80.0008 66.0002H76.0005V69.9997H80.0008V66.0002Z" fill="#6F6F6F"/>
<path d="M83.9999 66.0002H79.9995V69.9997H83.9999V66.0002Z" fill="#A3A3A3"/>
<path d="M87.9987 66.0002H83.9993V69.9997H87.9987V66.0002Z" fill="#6F6F6F"/>
<path d="M92.0001 66.0002H87.9998V69.9997H92.0001V66.0002Z" fill="#A3A3A3"/>
<path d="M96.0004 66.0002H92V69.9997H96.0004V66.0002Z" fill="#6F6F6F"/>
<path d="M99.9992 66.0002H95.9998V69.9997H99.9992V66.0002Z" fill="black"/>
<path d="M24.0008 69.9994H20.0005V73.9997H24.0008V69.9994Z" fill="black"/>
<path d="M28.0008 69.9994H24.0005V73.9997H28.0008V69.9994Z" fill="#6F6F6F"/>
<path d="M31.9997 69.9994H28.0002V73.9997H31.9997V69.9994Z" fill="#A3A3A3"/>
<path d="M35.9999 69.9994H31.9995V73.9997H35.9999V69.9994Z" fill="#6F6F6F"/>
<path d="M40.0011 69.9994H36.0007V73.9997H40.0011V69.9994Z" fill="#A3A3A3"/>
<path d="M43.9996 69.9994H39.9993V73.9997H43.9996V69.9994Z" fill="#6F6F6F"/>
<path d="M47.9987 69.9994H43.9993V73.9997H47.9987V69.9994Z" fill="#A3A3A3"/>
<path d="M52.0004 69.9994H48V73.9997H52.0004V69.9994Z" fill="black"/>
<path d="M56.0001 69.9994H51.9998V73.9997H56.0001V69.9994Z" fill="#A3A3A3"/>
<path d="M59.9992 69.9994H55.9998V73.9997H59.9992V69.9994Z" fill="#F2F2F2"/>
<path d="M64.0006 69.9994H60.0002V73.9997H64.0006V69.9994Z" fill="#F2F2F2"/>
<path d="M68.0004 69.9994H64V73.9997H68.0004V69.9994Z" fill="#A3A3A3"/>
<path d="M71.9994 69.9994H68V73.9997H71.9994V69.9994Z" fill="black"/>
<path d="M75.9994 69.9994H71.999V73.9997H75.9994V69.9994Z" fill="#F2F2F2"/>
<path d="M80.0008 69.9994H76.0005V73.9997H80.0008V69.9994Z" fill="#F2F2F2"/>
<path d="M83.9999 69.9994H79.9995V73.9997H83.9999V69.9994Z" fill="#F2F2F2"/>
<path d="M87.9987 69.9994H83.9993V73.9997H87.9987V69.9994Z" fill="#F2F2F2"/>
<path d="M92.0001 69.9994H87.9998V73.9997H92.0001V69.9994Z" fill="#F2F2F2"/>
<path d="M96.0004 69.9994H92V73.9997H96.0004V69.9994Z" fill="#F2F2F2"/>
<path d="M99.9992 69.9994H95.9998V73.9997H99.9992V69.9994Z" fill="black"/>
<path d="M24.0008 74.0001H20.0005V77.9995H24.0008V74.0001Z" fill="black"/>
<path d="M28.0008 74.0001H24.0005V77.9995H28.0008V74.0001Z" fill="#A3A3A3"/>
<path d="M31.9997 74.0001H28.0002V77.9995H31.9997V74.0001Z" fill="#6F6F6F"/>
<path d="M35.9999 74.0001H31.9995V77.9995H35.9999V74.0001Z" fill="#A3A3A3"/>
<path d="M40.0011 74.0001H36.0007V77.9995H40.0011V74.0001Z" fill="#6F6F6F"/>
<path d="M43.9996 74.0001H39.9993V77.9995H43.9996V74.0001Z" fill="#A3A3A3"/>
<path d="M47.9987 74.0001H43.9993V77.9995H47.9987V74.0001Z" fill="#F2F2F2"/>
<path d="M52.0004 74.0001H48V77.9995H52.0004V74.0001Z" fill="black"/>
<path d="M56.0001 74.0001H51.9998V77.9995H56.0001V74.0001Z" fill="#A3A3A3"/>
<path d="M59.9992 74.0001H55.9998V77.9995H59.9992V74.0001Z" fill="#A3A3A3"/>
<path d="M64.0006 74.0001H60.0002V77.9995H64.0006V74.0001Z" fill="#A3A3A3"/>
<path d="M68.0004 74.0001H64V77.9995H68.0004V74.0001Z" fill="#A3A3A3"/>
<path d="M71.9994 74.0001H68V77.9995H71.9994V74.0001Z" fill="black"/>
<path d="M75.9994 74.0001H71.999V77.9995H75.9994V74.0001Z" fill="#A3A3A3"/>
<path d="M80.0008 74.0001H76.0005V77.9995H80.0008V74.0001Z" fill="#6F6F6F"/>
<path d="M83.9999 74.0001H79.9995V77.9995H83.9999V74.0001Z" fill="#A3A3A3"/>
<path d="M87.9987 74.0001H83.9993V77.9995H87.9987V74.0001Z" fill="#6F6F6F"/>
<path d="M92.0001 74.0001H87.9998V77.9995H92.0001V74.0001Z" fill="#A3A3A3"/>
<path d="M96.0004 74.0001H92V77.9995H96.0004V74.0001Z" fill="#6F6F6F"/>
<path d="M99.9992 74.0001H95.9998V77.9995H99.9992V74.0001Z" fill="black"/>
<path d="M24.0008 77.999H20.0005V81.9994H24.0008V77.999Z" fill="black"/>
<path d="M28.0008 77.999H24.0005V81.9994H28.0008V77.999Z" fill="#6F6F6F"/>
<path d="M31.9997 77.999H28.0002V81.9994H31.9997V77.999Z" fill="#A3A3A3"/>
<path d="M35.9999 77.999H31.9995V81.9994H35.9999V77.999Z" fill="#6F6F6F"/>
<path d="M40.0011 77.999H36.0007V81.9994H40.0011V77.999Z" fill="#A3A3A3"/>
<path d="M43.9996 77.999H39.9993V81.9994H43.9996V77.999Z" fill="#F2F2F2"/>
<path d="M47.9987 77.999H43.9993V81.9994H47.9987V77.999Z" fill="#FFCF00"/>
<path d="M52.0004 77.999H48V81.9994H52.0004V77.999Z" fill="#F2F2F2"/>
<path d="M56.0001 77.999H51.9998V81.9994H56.0001V77.999Z" fill="black"/>
<path d="M59.9992 77.999H55.9998V81.9994H59.9992V77.999Z" fill="black"/>
<path d="M64.0006 77.999H60.0002V81.9994H64.0006V77.999Z" fill="black"/>
<path d="M68.0004 77.999H64V81.9994H68.0004V77.999Z" fill="black"/>
<path d="M71.9994 77.999H68V81.9994H71.9994V77.999Z" fill="#3EE4ED"/>
<path d="M75.9994 77.999H71.999V81.9994H75.9994V77.999Z" fill="#6F6F6F"/>
<path d="M80.0008 77.999H76.0005V81.9994H80.0008V77.999Z" fill="#A3A3A3"/>
<path d="M83.9999 77.999H79.9995V81.9994H83.9999V77.999Z" fill="#6F6F6F"/>
<path d="M87.9987 77.999H83.9993V81.9994H87.9987V77.999Z" fill="#A3A3A3"/>
<path d="M92.0001 77.999H87.9998V81.9994H92.0001V77.999Z" fill="#6F6F6F"/>
<path d="M96.0004 77.999H92V81.9994H96.0004V77.999Z" fill="#A3A3A3"/>
<path d="M99.9992 77.999H95.9998V81.9994H99.9992V77.999Z" fill="black"/>
<path d="M24.0008 81.9996H20.0005V86H24.0008V81.9996Z" fill="black"/>
<path d="M28.0008 81.9996H24.0005V86H28.0008V81.9996Z" fill="#A3A3A3"/>
<path d="M31.9997 81.9996H28.0002V86H31.9997V81.9996Z" fill="#6F6F6F"/>
<path d="M35.9999 81.9996H31.9995V86H35.9999V81.9996Z" fill="#A3A3A3"/>
<path d="M40.0011 81.9996H36.0007V86H40.0011V81.9996Z" fill="#F2F2F2"/>
<path d="M43.9996 81.9996H39.9993V86H43.9996V81.9996Z" fill="#FFCF00"/>
<path d="M47.9987 81.9996H43.9993V86H47.9987V81.9996Z" fill="#F2F2F2"/>
<path d="M52.0004 81.9996H48V86H52.0004V81.9996Z" fill="#FFCF00"/>
<path d="M56.0001 81.9996H51.9998V86H56.0001V81.9996Z" fill="#6F6F6F"/>
<path d="M59.9992 81.9996H55.9998V86H59.9992V81.9996Z" fill="#FFCF00"/>
<path d="M64.0006 81.9996H60.0002V86H64.0006V81.9996Z" fill="#3EE4ED"/>
<path d="M68.0004 81.9996H64V86H68.0004V81.9996Z" fill="#3EE4ED"/>
<path d="M71.9994 81.9996H68V86H71.9994V81.9996Z" fill="#A3A3A3"/>
<path d="M75.9994 81.9996H71.999V86H75.9994V81.9996Z" fill="#3EE4ED"/>
<path d="M80.0008 81.9996H76.0005V86H80.0008V81.9996Z" fill="#6F6F6F"/>
<path d="M83.9999 81.9996H79.9995V86H83.9999V81.9996Z" fill="#A3A3A3"/>
<path d="M87.9987 81.9996H83.9993V86H87.9987V81.9996Z" fill="#6F6F6F"/>
<path d="M92.0001 81.9996H87.9998V86H92.0001V81.9996Z" fill="#A3A3A3"/>
<path d="M96.0004 81.9996H92V86H96.0004V81.9996Z" fill="#F2F2F2"/>
<path d="M99.9992 81.9996H95.9998V86H99.9992V81.9996Z" fill="black"/>
<path d="M28.0008 85.9995H24.0005V89.9999H28.0008V85.9995Z" fill="black"/>
<path d="M31.9997 85.9995H28.0002V89.9999H31.9997V85.9995Z" fill="#A3A3A3"/>
<path d="M35.9999 85.9995H31.9995V89.9999H35.9999V85.9995Z" fill="#F2F2F2"/>
<path d="M40.0011 85.9995H36.0007V89.9999H40.0011V85.9995Z" fill="#FFCF00"/>
<path d="M43.9996 85.9995H39.9993V89.9999H43.9996V85.9995Z" fill="#F2F2F2"/>
<path d="M47.9987 85.9995H43.9993V89.9999H47.9987V85.9995Z" fill="#A3A3A3"/>
<path d="M52.0004 85.9995H48V89.9999H52.0004V85.9995Z" fill="#6F6F6F"/>
<path d="M56.0001 85.9995H51.9998V89.9999H56.0001V85.9995Z" fill="#FFCF00"/>
<path d="M59.9992 85.9995H55.9998V89.9999H59.9992V85.9995Z" fill="#FFCF00"/>
<path d="M64.0006 85.9995H60.0002V89.9999H64.0006V85.9995Z" fill="#3EE4ED"/>
<path d="M68.0004 85.9995H64V89.9999H68.0004V85.9995Z" fill="#A3A3A3"/>
<path d="M71.9994 85.9995H68V89.9999H71.9994V85.9995Z" fill="#3EE4ED"/>
<path d="M75.9994 85.9995H71.999V89.9999H75.9994V85.9995Z" fill="#A3A3A3"/>
<path d="M80.0008 85.9995H76.0005V89.9999H80.0008V85.9995Z" fill="#3EE4ED"/>
<path d="M83.9999 85.9995H79.9995V89.9999H83.9999V85.9995Z" fill="#A3A3A3"/>
<path d="M87.9987 85.9995H83.9993V89.9999H87.9987V85.9995Z" fill="#A3A3A3"/>
<path d="M92.0001 85.9995H87.9998V89.9999H92.0001V85.9995Z" fill="#F2F2F2"/>
<path d="M96.0004 85.9995H92V89.9999H96.0004V85.9995Z" fill="black"/>
<path d="M28.0008 89.9994H24.0005V93.9997H28.0008V89.9994Z" fill="black"/>
<path d="M31.9997 89.9994H28.0002V93.9997H31.9997V89.9994Z" fill="#F2F2F2"/>
<path d="M35.9999 89.9994H31.9995V93.9997H35.9999V89.9994Z" fill="#FFCF00"/>
<path d="M40.0011 89.9994H36.0007V93.9997H40.0011V89.9994Z" fill="#F2F2F2"/>
<path d="M43.9996 89.9994H39.9993V93.9997H43.9996V89.9994Z" fill="#A3A3A3"/>
<path d="M47.9987 89.9994H43.9993V93.9997H47.9987V89.9994Z" fill="#6F6F6F"/>
<path d="M52.0004 89.9994H48V93.9997H52.0004V89.9994Z" fill="#FFCF00"/>
<path d="M56.0001 89.9994H51.9998V93.9997H56.0001V89.9994Z" fill="#6F6F6F"/>
<path d="M59.9992 89.9994H55.9998V93.9997H59.9992V89.9994Z" fill="#FFCF00"/>
<path d="M64.0006 89.9994H60.0002V93.9997H64.0006V89.9994Z" fill="#3EE4ED"/>
<path d="M68.0004 89.9994H64V93.9997H68.0004V89.9994Z" fill="#3EE4ED"/>
<path d="M71.9994 89.9994H68V93.9997H71.9994V89.9994Z" fill="#A3A3A3"/>
<path d="M75.9994 89.9994H71.999V93.9997H75.9994V89.9994Z" fill="#A3A3A3"/>
<path d="M80.0008 89.9994H76.0005V93.9997H80.0008V89.9994Z" fill="#A3A3A3"/>
<path d="M83.9999 89.9994H79.9995V93.9997H83.9999V89.9994Z" fill="#3EE4ED"/>
<path d="M87.9987 89.9994H83.9993V93.9997H87.9987V89.9994Z" fill="#A3A3A3"/>
<path d="M92.0001 89.9994H87.9998V93.9997H92.0001V89.9994Z" fill="#F2F2F2"/>
<path d="M96.0004 89.9994H92V93.9997H96.0004V89.9994Z" fill="black"/>
<path d="M31.9997 94H28.0002V97.9994H31.9997V94Z" fill="black"/>
<path d="M35.9999 94H31.9995V97.9994H35.9999V94Z" fill="#F2F2F2"/>
<path d="M40.0011 94H36.0007V97.9994H40.0011V94Z" fill="#A3A3A3"/>
<path d="M43.9996 94H39.9993V97.9994H43.9996V94Z" fill="#6F6F6F"/>
<path d="M47.9987 94H43.9993V97.9994H47.9987V94Z" fill="#A3A3A3"/>
<path d="M52.0004 94H48V97.9994H52.0004V94Z" fill="#6F6F6F"/>
<path d="M56.0001 94H51.9998V97.9994H56.0001V94Z" fill="#FFCF00"/>
<path d="M59.9992 94H55.9998V97.9994H59.9992V94Z" fill="#FFCF00"/>
<path d="M64.0006 94H60.0002V97.9994H64.0006V94Z" fill="#3EE4ED"/>
<path d="M68.0004 94H64V97.9994H68.0004V94Z" fill="#A3A3A3"/>
<path d="M71.9994 94H68V97.9994H71.9994V94Z" fill="#3EE4ED"/>
<path d="M75.9994 94H71.999V97.9994H75.9994V94Z" fill="#A3A3A3"/>
<path d="M80.0008 94H76.0005V97.9994H80.0008V94Z" fill="#A3A3A3"/>
<path d="M83.9999 94H79.9995V97.9994H83.9999V94Z" fill="#A3A3A3"/>
<path d="M87.9987 94H83.9993V97.9994H87.9987V94Z" fill="#3EE4ED"/>
<path d="M92.0001 94H87.9998V97.9994H92.0001V94Z" fill="black"/>
<path d="M35.9999 97.999H31.9995V101.999H35.9999V97.999Z" fill="black"/>
<path d="M40.0011 97.999H36.0007V101.999H40.0011V97.999Z" fill="#6F6F6F"/>
<path d="M43.9996 97.999H39.9993V101.999H43.9996V97.999Z" fill="#F2F2F2"/>
<path d="M47.9987 97.999H43.9993V101.999H47.9987V97.999Z" fill="#6F6F6F"/>
<path d="M52.0004 97.999H48V101.999H52.0004V97.999Z" fill="#FFCF00"/>
<path d="M56.0001 97.999H51.9998V101.999H56.0001V97.999Z" fill="#6F6F6F"/>
<path d="M59.9992 97.999H55.9998V101.999H59.9992V97.999Z" fill="#FFCF00"/>
<path d="M64.0006 97.999H60.0002V101.999H64.0006V97.999Z" fill="#3EE4ED"/>
<path d="M68.0004 97.999H64V101.999H68.0004V97.999Z" fill="#3EE4ED"/>
<path d="M71.9994 97.999H68V101.999H71.9994V97.999Z" fill="#A3A3A3"/>
<path d="M75.9994 97.999H71.999V101.999H75.9994V97.999Z" fill="#A3A3A3"/>
<path d="M80.0008 97.999H76.0005V101.999H80.0008V97.999Z" fill="#FFCF00"/>
<path d="M83.9999 97.999H79.9995V101.999H83.9999V97.999Z" fill="#FFCF00"/>
<path d="M87.9987 97.999H83.9993V101.999H87.9987V97.999Z" fill="black"/>
<path d="M40.0011 102H36.0007V105.999H40.0011V102Z" fill="black"/>
<path d="M43.9996 102H39.9993V105.999H43.9996V102Z" fill="black"/>
<path d="M47.9987 102H43.9993V105.999H47.9987V102Z" fill="#F2F2F2"/>
<path d="M52.0004 102H48V105.999H52.0004V102Z" fill="#F2F2F2"/>
<path d="M56.0001 102H51.9998V105.999H56.0001V102Z" fill="#FFCF00"/>
<path d="M59.9992 102H55.9998V105.999H59.9992V102Z" fill="#FFCF00"/>
<path d="M64.0006 102H60.0002V105.999H64.0006V102Z" fill="#3EE4ED"/>
<path d="M68.0004 102H64V105.999H68.0004V102Z" fill="#A3A3A3"/>
<path d="M71.9994 102H68V105.999H71.9994V102Z" fill="#3EE4ED"/>
<path d="M75.9994 102H71.999V105.999H75.9994V102Z" fill="#FFCF00"/>
<path d="M80.0008 102H76.0005V105.999H80.0008V102Z" fill="black"/>
<path d="M83.9999 102H79.9995V105.999H83.9999V102Z" fill="black"/>
<path d="M47.9987 105.999H43.9993V110H47.9987V105.999Z" fill="black"/>
<path d="M52.0004 105.999H48V110H52.0004V105.999Z" fill="black"/>
<path d="M56.0001 105.999H51.9998V110H56.0001V105.999Z" fill="black"/>
<path d="M59.9992 105.999H55.9998V110H59.9992V105.999Z" fill="black"/>
<path d="M64.0006 105.999H60.0002V110H64.0006V105.999Z" fill="black"/>
<path d="M68.0004 105.999H64V110H68.0004V105.999Z" fill="black"/>
<path d="M71.9994 105.999H68V110H71.9994V105.999Z" fill="black"/>
<path d="M75.9994 105.999H71.999V110H75.9994V105.999Z" fill="black"/>
</svg>
