<svg width="112" height="112" viewBox="0 0 112 112" fill="none" xmlns="http://www.w3.org/2000/svg">
<path d="M22.999 11H19.9985V13.9995H22.999V11Z" fill="black"/>
<path d="M25.9998 11H23.0002V13.9995H25.9998V11Z" fill="black"/>
<path d="M28.9992 11H25.9988V13.9995H28.9992V11Z" fill="black"/>
<path d="M32.0004 11H29V13.9995H32.0004V11Z" fill="black"/>
<path d="M34.9993 11H31.9998V13.9995H34.9993V11Z" fill="black"/>
<path d="M38.0007 11H35.0002V13.9995H38.0007V11Z" fill="black"/>
<path d="M40.9994 11H37.999V13.9995H40.9994V11Z" fill="black"/>
<path d="M43.9998 11H41.0002V13.9995H43.9998V11Z" fill="black"/>
<path d="M46.9992 11H43.9988V13.9995H46.9992V11Z" fill="black"/>
<path d="M50.0009 11H47.0005V13.9995H50.0009V11Z" fill="black"/>
<path d="M52.9992 11H49.9988V13.9995H52.9992V11Z" fill="black"/>
<path d="M56 11H53.0005V13.9995H56V11Z" fill="black"/>
<path d="M58.9994 11H55.999V13.9995H58.9994V11Z" fill="black"/>
<path d="M61.9999 11H58.9995V13.9995H61.9999V11Z" fill="black"/>
<path d="M20.0004 13.9995H17V16.9999H20.0004V13.9995Z" fill="black"/>
<path d="M22.999 13.9995H19.9985V16.9999H22.999V13.9995Z" fill="#F2F2F2"/>
<path d="M25.9998 13.9995H23.0002V16.9999H25.9998V13.9995Z" fill="#F2F2F2"/>
<path d="M28.9992 13.9995H25.9988V16.9999H28.9992V13.9995Z" fill="#F2F2F2"/>
<path d="M32.0004 13.9995H29V16.9999H32.0004V13.9995Z" fill="#F2F2F2"/>
<path d="M34.9993 13.9995H31.9998V16.9999H34.9993V13.9995Z" fill="#F2F2F2"/>
<path d="M38.0007 13.9995H35.0002V16.9999H38.0007V13.9995Z" fill="#F2F2F2"/>
<path d="M40.9994 13.9995H37.999V16.9999H40.9994V13.9995Z" fill="#F2F2F2"/>
<path d="M43.9998 13.9995H41.0002V16.9999H43.9998V13.9995Z" fill="#F2F2F2"/>
<path d="M46.9992 13.9995H43.9988V16.9999H46.9992V13.9995Z" fill="#F2F2F2"/>
<path d="M50.0009 13.9995H47.0005V16.9999H50.0009V13.9995Z" fill="#F2F2F2"/>
<path d="M52.9992 13.9995H49.9988V16.9999H52.9992V13.9995Z" fill="#F2F2F2"/>
<path d="M56 13.9995H53.0005V16.9999H56V13.9995Z" fill="#F2F2F2"/>
<path d="M58.9994 13.9995H55.999V16.9999H58.9994V13.9995Z" fill="#F2F2F2"/>
<path d="M61.9999 13.9995H58.9995V16.9999H61.9999V13.9995Z" fill="#F2F2F2"/>
<path d="M65.0004 13.9995H62V16.9999H65.0004V13.9995Z" fill="black"/>
<path d="M16.999 17.0001H13.9995V19.9996H16.999V17.0001Z" fill="black"/>
<path d="M20.0004 17.0001H17V19.9996H20.0004V17.0001Z" fill="#F2F2F2"/>
<path d="M22.999 17.0001H19.9985V19.9996H22.999V17.0001Z" fill="#A3A3A3"/>
<path d="M25.9998 17.0001H23.0002V19.9996H25.9998V17.0001Z" fill="#A3A3A3"/>
<path d="M28.9992 17.0001H25.9988V19.9996H28.9992V17.0001Z" fill="#A3A3A3"/>
<path d="M32.0004 17.0001H29V19.9996H32.0004V17.0001Z" fill="#A3A3A3"/>
<path d="M34.9993 17.0001H31.9998V19.9996H34.9993V17.0001Z" fill="#A3A3A3"/>
<path d="M38.0007 17.0001H35.0002V19.9996H38.0007V17.0001Z" fill="#A3A3A3"/>
<path d="M40.9994 17.0001H37.999V19.9996H40.9994V17.0001Z" fill="#A3A3A3"/>
<path d="M43.9998 17.0001H41.0002V19.9996H43.9998V17.0001Z" fill="#A3A3A3"/>
<path d="M46.9992 17.0001H43.9988V19.9996H46.9992V17.0001Z" fill="#A3A3A3"/>
<path d="M50.0009 17.0001H47.0005V19.9996H50.0009V17.0001Z" fill="#A3A3A3"/>
<path d="M52.9992 17.0001H49.9988V19.9996H52.9992V17.0001Z" fill="#A3A3A3"/>
<path d="M56 17.0001H53.0005V19.9996H56V17.0001Z" fill="#A3A3A3"/>
<path d="M58.9994 17.0001H55.999V19.9996H58.9994V17.0001Z" fill="#A3A3A3"/>
<path d="M61.9999 17.0001H58.9995V19.9996H61.9999V17.0001Z" fill="#F2F2F2"/>
<path d="M65.0004 17.0001H62V19.9996H65.0004V17.0001Z" fill="#6F6F6F"/>
<path d="M67.9983 17.0001H64.9988V19.9996H67.9983V17.0001Z" fill="black"/>
<path d="M16.999 19.9996H13.9995V23.0001H16.999V19.9996Z" fill="black"/>
<path d="M20.0004 19.9996H17V23.0001H20.0004V19.9996Z" fill="#F2F2F2"/>
<path d="M22.999 19.9996H19.9985V23.0001H22.999V19.9996Z" fill="#A3A3A3"/>
<path d="M25.9998 19.9996H23.0002V23.0001H25.9998V19.9996Z" fill="black"/>
<path d="M28.9992 19.9996H25.9988V23.0001H28.9992V19.9996Z" fill="black"/>
<path d="M32.0004 19.9996H29V23.0001H32.0004V19.9996Z" fill="black"/>
<path d="M34.9993 19.9996H31.9998V23.0001H34.9993V19.9996Z" fill="black"/>
<path d="M38.0007 19.9996H35.0002V23.0001H38.0007V19.9996Z" fill="black"/>
<path d="M40.9994 19.9996H37.999V23.0001H40.9994V19.9996Z" fill="black"/>
<path d="M43.9998 19.9996H41.0002V23.0001H43.9998V19.9996Z" fill="black"/>
<path d="M46.9992 19.9996H43.9988V23.0001H46.9992V19.9996Z" fill="black"/>
<path d="M50.0009 19.9996H47.0005V23.0001H50.0009V19.9996Z" fill="black"/>
<path d="M52.9992 19.9996H49.9988V23.0001H52.9992V19.9996Z" fill="black"/>
<path d="M56 19.9996H53.0005V23.0001H56V19.9996Z" fill="black"/>
<path d="M58.9994 19.9996H55.999V23.0001H58.9994V19.9996Z" fill="#A3A3A3"/>
<path d="M61.9999 19.9996H58.9995V23.0001H61.9999V19.9996Z" fill="#F2F2F2"/>
<path d="M65.0004 19.9996H62V23.0001H65.0004V19.9996Z" fill="#6F6F6F"/>
<path d="M67.9983 19.9996H64.9988V23.0001H67.9983V19.9996Z" fill="black"/>
<path d="M16.999 22.9999H13.9995V25.9994H16.999V22.9999Z" fill="black"/>
<path d="M20.0004 22.9999H17V25.9994H20.0004V22.9999Z" fill="#F2F2F2"/>
<path d="M22.999 22.9999H19.9985V25.9994H22.999V22.9999Z" fill="#A3A3A3"/>
<path d="M25.9998 22.9999H23.0002V25.9994H25.9998V22.9999Z" fill="black"/>
<path d="M28.9992 22.9999H25.9988V25.9994H28.9992V22.9999Z" fill="#033FC0"/>
<path d="M32.0004 22.9999H29V25.9994H32.0004V22.9999Z" fill="#033FC0"/>
<path d="M34.9993 22.9999H31.9998V25.9994H34.9993V22.9999Z" fill="#033FC0"/>
<path d="M38.0007 22.9999H35.0002V25.9994H38.0007V22.9999Z" fill="#033FC0"/>
<path d="M40.9994 22.9999H37.999V25.9994H40.9994V22.9999Z" fill="#033FC0"/>
<path d="M43.9998 22.9999H41.0002V25.9994H43.9998V22.9999Z" fill="#033FC0"/>
<path d="M46.9992 22.9999H43.9988V25.9994H46.9992V22.9999Z" fill="#033FC0"/>
<path d="M50.0009 22.9999H47.0005V25.9994H50.0009V22.9999Z" fill="#033FC0"/>
<path d="M52.9992 22.9999H49.9988V25.9994H52.9992V22.9999Z" fill="#033FC0"/>
<path d="M56 22.9999H53.0005V25.9994H56V22.9999Z" fill="#011E75"/>
<path d="M58.9994 22.9999H55.999V25.9994H58.9994V22.9999Z" fill="#A3A3A3"/>
<path d="M61.9999 22.9999H58.9995V25.9994H61.9999V22.9999Z" fill="#F2F2F2"/>
<path d="M65.0004 22.9999H62V25.9994H65.0004V22.9999Z" fill="#6F6F6F"/>
<path d="M67.9983 22.9999H64.9988V25.9994H67.9983V22.9999Z" fill="black"/>
<path d="M16.999 25.9992H13.9995V28.9996H16.999V25.9992Z" fill="black"/>
<path d="M20.0004 25.9992H17V28.9996H20.0004V25.9992Z" fill="#F2F2F2"/>
<path d="M22.999 25.9992H19.9985V28.9996H22.999V25.9992Z" fill="#A3A3A3"/>
<path d="M25.9998 25.9992H23.0002V28.9996H25.9998V25.9992Z" fill="black"/>
<path d="M28.9992 25.9992H25.9988V28.9996H28.9992V25.9992Z" fill="#033FC0"/>
<path d="M32.0004 25.9992H29V28.9996H32.0004V25.9992Z" fill="#3EE4ED"/>
<path d="M34.9993 25.9992H31.9998V28.9996H34.9993V25.9992Z" fill="#033FC0"/>
<path d="M38.0007 25.9992H35.0002V28.9996H38.0007V25.9992Z" fill="#033FC0"/>
<path d="M40.9994 25.9992H37.999V28.9996H40.9994V25.9992Z" fill="#033FC0"/>
<path d="M43.9998 25.9992H41.0002V28.9996H43.9998V25.9992Z" fill="#033FC0"/>
<path d="M46.9992 25.9992H43.9988V28.9996H46.9992V25.9992Z" fill="#033FC0"/>
<path d="M50.0009 25.9992H47.0005V28.9996H50.0009V25.9992Z" fill="#033FC0"/>
<path d="M52.9992 25.9992H49.9988V28.9996H52.9992V25.9992Z" fill="#033FC0"/>
<path d="M56 25.9992H53.0005V28.9996H56V25.9992Z" fill="#011E75"/>
<path d="M58.9994 25.9992H55.999V28.9996H58.9994V25.9992Z" fill="#A3A3A3"/>
<path d="M61.9999 25.9992H58.9995V28.9996H61.9999V25.9992Z" fill="#F2F2F2"/>
<path d="M65.0004 25.9992H62V28.9996H65.0004V25.9992Z" fill="#6F6F6F"/>
<path d="M67.9983 25.9992H64.9988V28.9996H67.9983V25.9992Z" fill="black"/>
<path d="M16.999 28.9997H13.9995V31.9992H16.999V28.9997Z" fill="black"/>
<path d="M20.0004 28.9997H17V31.9992H20.0004V28.9997Z" fill="#F2F2F2"/>
<path d="M22.999 28.9997H19.9985V31.9992H22.999V28.9997Z" fill="#A3A3A3"/>
<path d="M25.9998 28.9997H23.0002V31.9992H25.9998V28.9997Z" fill="black"/>
<path d="M28.9992 28.9997H25.9988V31.9992H28.9992V28.9997Z" fill="#033FC0"/>
<path d="M32.0004 28.9997H29V31.9992H32.0004V28.9997Z" fill="#3EE4ED"/>
<path d="M34.9993 28.9997H31.9998V31.9992H34.9993V28.9997Z" fill="#033FC0"/>
<path d="M38.0007 28.9997H35.0002V31.9992H38.0007V28.9997Z" fill="#033FC0"/>
<path d="M40.9994 28.9997H37.999V31.9992H40.9994V28.9997Z" fill="#033FC0"/>
<path d="M43.9998 28.9997H41.0002V31.9992H43.9998V28.9997Z" fill="#033FC0"/>
<path d="M46.9992 28.9997H43.9988V31.9992H46.9992V28.9997Z" fill="#033FC0"/>
<path d="M50.0009 28.9997H47.0005V31.9992H50.0009V28.9997Z" fill="#033FC0"/>
<path d="M52.9992 28.9997H49.9988V31.9992H52.9992V28.9997Z" fill="#033FC0"/>
<path d="M56 28.9997H53.0005V31.9992H56V28.9997Z" fill="#011E75"/>
<path d="M58.9994 28.9997H55.999V31.9992H58.9994V28.9997Z" fill="#A3A3A3"/>
<path d="M61.9999 28.9997H58.9995V31.9992H61.9999V28.9997Z" fill="#F2F2F2"/>
<path d="M65.0004 28.9997H62V31.9992H65.0004V28.9997Z" fill="#6F6F6F"/>
<path d="M67.9983 28.9997H64.9988V31.9992H67.9983V28.9997Z" fill="black"/>
<path d="M16.999 32.0002H13.9995V34.9998H16.999V32.0002Z" fill="black"/>
<path d="M20.0004 32.0002H17V34.9998H20.0004V32.0002Z" fill="#F2F2F2"/>
<path d="M22.999 32.0002H19.9985V34.9998H22.999V32.0002Z" fill="#A3A3A3"/>
<path d="M25.9998 32.0002H23.0002V34.9998H25.9998V32.0002Z" fill="black"/>
<path d="M28.9992 32.0002H25.9988V34.9998H28.9992V32.0002Z" fill="#033FC0"/>
<path d="M32.0004 32.0002H29V34.9998H32.0004V32.0002Z" fill="#033FC0"/>
<path d="M34.9993 32.0002H31.9998V34.9998H34.9993V32.0002Z" fill="#033FC0"/>
<path d="M38.0007 32.0002H35.0002V34.9998H38.0007V32.0002Z" fill="#033FC0"/>
<path d="M40.9994 32.0002H37.999V34.9998H40.9994V32.0002Z" fill="#033FC0"/>
<path d="M43.9998 32.0002H41.0002V34.9998H43.9998V32.0002Z" fill="#033FC0"/>
<path d="M46.9992 32.0002H43.9988V34.9998H46.9992V32.0002Z" fill="#033FC0"/>
<path d="M50.0009 32.0002H47.0005V34.9998H50.0009V32.0002Z" fill="#033FC0"/>
<path d="M52.9992 32.0002H49.9988V34.9998H52.9992V32.0002Z" fill="#033FC0"/>
<path d="M56 32.0002H53.0005V34.9998H56V32.0002Z" fill="#011E75"/>
<path d="M58.9994 32.0002H55.999V34.9998H58.9994V32.0002Z" fill="#A3A3A3"/>
<path d="M61.9999 32.0002H58.9995V34.9998H61.9999V32.0002Z" fill="#F2F2F2"/>
<path d="M65.0004 32.0002H62V34.9998H65.0004V32.0002Z" fill="#6F6F6F"/>
<path d="M67.9983 32.0002H64.9988V34.9998H67.9983V32.0002Z" fill="black"/>
<path d="M16.999 34.9998H13.9995V38.0002H16.999V34.9998Z" fill="black"/>
<path d="M20.0004 34.9998H17V38.0002H20.0004V34.9998Z" fill="#F2F2F2"/>
<path d="M22.999 34.9998H19.9985V38.0002H22.999V34.9998Z" fill="#A3A3A3"/>
<path d="M25.9998 34.9998H23.0002V38.0002H25.9998V34.9998Z" fill="black"/>
<path d="M28.9992 34.9998H25.9988V38.0002H28.9992V34.9998Z" fill="#033FC0"/>
<path d="M32.0004 34.9998H29V38.0002H32.0004V34.9998Z" fill="#033FC0"/>
<path d="M34.9993 34.9998H31.9998V38.0002H34.9993V34.9998Z" fill="#033FC0"/>
<path d="M38.0007 34.9998H35.0002V38.0002H38.0007V34.9998Z" fill="#033FC0"/>
<path d="M40.9994 34.9998H37.999V38.0002H40.9994V34.9998Z" fill="#033FC0"/>
<path d="M43.9998 34.9998H41.0002V38.0002H43.9998V34.9998Z" fill="#033FC0"/>
<path d="M46.9992 34.9998H43.9988V38.0002H46.9992V34.9998Z" fill="#033FC0"/>
<path d="M50.0009 34.9998H47.0005V38.0002H50.0009V34.9998Z" fill="#033FC0"/>
<path d="M52.9992 34.9998H49.9988V38.0002H52.9992V34.9998Z" fill="#033FC0"/>
<path d="M56 34.9998H53.0005V38.0002H56V34.9998Z" fill="#011E75"/>
<path d="M58.9994 34.9998H55.999V38.0002H58.9994V34.9998Z" fill="#A3A3A3"/>
<path d="M61.9999 34.9998H58.9995V38.0002H61.9999V34.9998Z" fill="#F2F2F2"/>
<path d="M65.0004 34.9998H62V38.0002H65.0004V34.9998Z" fill="#6F6F6F"/>
<path d="M67.9983 34.9998H64.9988V38.0002H67.9983V34.9998Z" fill="black"/>
<path d="M16.999 38.0003H13.9995V40.9998H16.999V38.0003Z" fill="black"/>
<path d="M20.0004 38.0003H17V40.9998H20.0004V38.0003Z" fill="#F2F2F2"/>
<path d="M22.999 38.0003H19.9985V40.9998H22.999V38.0003Z" fill="#A3A3A3"/>
<path d="M25.9998 38.0003H23.0002V40.9998H25.9998V38.0003Z" fill="black"/>
<path d="M28.9992 38.0003H25.9988V40.9998H28.9992V38.0003Z" fill="#033FC0"/>
<path d="M32.0004 38.0003H29V40.9998H32.0004V38.0003Z" fill="#033FC0"/>
<path d="M34.9993 38.0003H31.9998V40.9998H34.9993V38.0003Z" fill="#033FC0"/>
<path d="M38.0007 38.0003H35.0002V40.9998H38.0007V38.0003Z" fill="#033FC0"/>
<path d="M40.9994 38.0003H37.999V40.9998H40.9994V38.0003Z" fill="#033FC0"/>
<path d="M43.9998 38.0003H41.0002V40.9998H43.9998V38.0003Z" fill="#033FC0"/>
<path d="M46.9992 38.0003H43.9988V40.9998H46.9992V38.0003Z" fill="#033FC0"/>
<path d="M50.0009 38.0003H47.0005V40.9998H50.0009V38.0003Z" fill="#033FC0"/>
<path d="M52.9992 38.0003H49.9988V40.9998H52.9992V38.0003Z" fill="#033FC0"/>
<path d="M56 38.0003H53.0005V40.9998H56V38.0003Z" fill="#011E75"/>
<path d="M58.9994 38.0003H55.999V40.9998H58.9994V38.0003Z" fill="#A3A3A3"/>
<path d="M61.9999 38.0003H58.9995V40.9998H61.9999V38.0003Z" fill="#F2F2F2"/>
<path d="M65.0004 38.0003H62V40.9998H65.0004V38.0003Z" fill="#6F6F6F"/>
<path d="M67.9983 38.0003H64.9988V40.9998H67.9983V38.0003Z" fill="black"/>
<path d="M16.999 40.9998H13.9995V44.0002H16.999V40.9998Z" fill="black"/>
<path d="M20.0004 40.9998H17V44.0002H20.0004V40.9998Z" fill="#F2F2F2"/>
<path d="M22.999 40.9998H19.9985V44.0002H22.999V40.9998Z" fill="#A3A3A3"/>
<path d="M25.9998 40.9998H23.0002V44.0002H25.9998V40.9998Z" fill="black"/>
<path d="M28.9992 40.9998H25.9988V44.0002H28.9992V40.9998Z" fill="#033FC0"/>
<path d="M32.0004 40.9998H29V44.0002H32.0004V40.9998Z" fill="#033FC0"/>
<path d="M34.9993 40.9998H31.9998V44.0002H34.9993V40.9998Z" fill="#033FC0"/>
<path d="M38.0007 40.9998H35.0002V44.0002H38.0007V40.9998Z" fill="#033FC0"/>
<path d="M40.9994 40.9998H37.999V44.0002H40.9994V40.9998Z" fill="#033FC0"/>
<path d="M43.9998 40.9998H41.0002V44.0002H43.9998V40.9998Z" fill="#033FC0"/>
<path d="M46.9992 40.9998H43.9988V44.0002H46.9992V40.9998Z" fill="#033FC0"/>
<path d="M50.0009 40.9998H47.0005V44.0002H50.0009V40.9998Z" fill="#033FC0"/>
<path d="M52.9992 40.9998H49.9988V44.0002H52.9992V40.9998Z" fill="#033FC0"/>
<path d="M56 40.9998H53.0005V44.0002H56V40.9998Z" fill="#011E75"/>
<path d="M58.9994 40.9998H55.999V44.0002H58.9994V40.9998Z" fill="#A3A3A3"/>
<path d="M61.9999 40.9998H58.9995V44.0002H61.9999V40.9998Z" fill="#F2F2F2"/>
<path d="M65.0004 40.9998H62V44.0002H65.0004V40.9998Z" fill="#6F6F6F"/>
<path d="M67.9983 40.9998H64.9988V44.0002H67.9983V40.9998Z" fill="black"/>
<path d="M16.999 44.0001H13.9995V46.9996H16.999V44.0001Z" fill="black"/>
<path d="M20.0004 44.0001H17V46.9996H20.0004V44.0001Z" fill="#F2F2F2"/>
<path d="M22.999 44.0001H19.9985V46.9996H22.999V44.0001Z" fill="#A3A3A3"/>
<path d="M25.9998 44.0001H23.0002V46.9996H25.9998V44.0001Z" fill="black"/>
<path d="M28.9992 44.0001H25.9988V46.9996H28.9992V44.0001Z" fill="#033FC0"/>
<path d="M32.0004 44.0001H29V46.9996H32.0004V44.0001Z" fill="#033FC0"/>
<path d="M34.9993 44.0001H31.9998V46.9996H34.9993V44.0001Z" fill="#033FC0"/>
<path d="M38.0007 44.0001H35.0002V46.9996H38.0007V44.0001Z" fill="#033FC0"/>
<path d="M40.9994 44.0001H37.999V46.9996H40.9994V44.0001Z" fill="#033FC0"/>
<path d="M43.9998 44.0001H41.0002V46.9996H43.9998V44.0001Z" fill="#033FC0"/>
<path d="M46.9992 44.0001H43.9988V46.9996H46.9992V44.0001Z" fill="#033FC0"/>
<path d="M50.0009 44.0001H47.0005V46.9996H50.0009V44.0001Z" fill="#033FC0"/>
<path d="M52.9992 44.0001H49.9988V46.9996H52.9992V44.0001Z" fill="#033FC0"/>
<path d="M56 44.0001H53.0005V46.9996H56V44.0001Z" fill="#011E75"/>
<path d="M58.9994 44.0001H55.999V46.9996H58.9994V44.0001Z" fill="black"/>
<path d="M61.9999 44.0001H58.9995V46.9996H61.9999V44.0001Z" fill="black"/>
<path d="M65.0004 44.0001H62V46.9996H65.0004V44.0001Z" fill="black"/>
<path d="M67.9983 44.0001H64.9988V46.9996H67.9983V44.0001Z" fill="black"/>
<path d="M70.9997 44.0001H67.9993V46.9996H70.9997V44.0001Z" fill="black"/>
<path d="M73.999 44.0001H70.9985V46.9996H73.999V44.0001Z" fill="black"/>
<path d="M76.9998 44.0001H74.0002V46.9996H76.9998V44.0001Z" fill="black"/>
<path d="M79.9992 44.0001H76.9988V46.9996H79.9992V44.0001Z" fill="black"/>
<path d="M82.9997 44.0001H79.9993V46.9996H82.9997V44.0001Z" fill="black"/>
<path d="M85.9983 44.0001H82.9988V46.9996H85.9983V44.0001Z" fill="black"/>
<path d="M88.9997 44.0001H85.9993V46.9996H88.9997V44.0001Z" fill="black"/>
<path d="M91.9994 44.0001H88.999V46.9996H91.9994V44.0001Z" fill="black"/>
<path d="M95.0009 44.0001H92.0005V46.9996H95.0009V44.0001Z" fill="black"/>
<path d="M16.999 46.9995H13.9995V49.999H16.999V46.9995Z" fill="black"/>
<path d="M20.0004 46.9995H17V49.999H20.0004V46.9995Z" fill="#F2F2F2"/>
<path d="M22.999 46.9995H19.9985V49.999H22.999V46.9995Z" fill="#A3A3A3"/>
<path d="M25.9998 46.9995H23.0002V49.999H25.9998V46.9995Z" fill="black"/>
<path d="M28.9992 46.9995H25.9988V49.999H28.9992V46.9995Z" fill="#011E75"/>
<path d="M32.0004 46.9995H29V49.999H32.0004V46.9995Z" fill="#011E75"/>
<path d="M34.9993 46.9995H31.9998V49.999H34.9993V46.9995Z" fill="#011E75"/>
<path d="M38.0007 46.9995H35.0002V49.999H38.0007V46.9995Z" fill="#011E75"/>
<path d="M40.9994 46.9995H37.999V49.999H40.9994V46.9995Z" fill="#011E75"/>
<path d="M43.9998 46.9995H41.0002V49.999H43.9998V46.9995Z" fill="#011E75"/>
<path d="M46.9992 46.9995H43.9988V49.999H46.9992V46.9995Z" fill="#011E75"/>
<path d="M50.0009 46.9995H47.0005V49.999H50.0009V46.9995Z" fill="#011E75"/>
<path d="M52.9992 46.9995H49.9988V49.999H52.9992V46.9995Z" fill="#011E75"/>
<path d="M56 46.9995H53.0005V49.999H56V46.9995Z" fill="black"/>
<path d="M58.9994 46.9995H55.999V49.999H58.9994V46.9995Z" fill="#F2F2F2"/>
<path d="M61.9999 46.9995H58.9995V49.999H61.9999V46.9995Z" fill="#6F6F6F"/>
<path d="M65.0004 46.9995H62V49.999H65.0004V46.9995Z" fill="#6F6F6F"/>
<path d="M67.9983 46.9995H64.9988V49.999H67.9983V46.9995Z" fill="#6F6F6F"/>
<path d="M70.9997 46.9995H67.9993V49.999H70.9997V46.9995Z" fill="#6F6F6F"/>
<path d="M73.999 46.9995H70.9985V49.999H73.999V46.9995Z" fill="#6F6F6F"/>
<path d="M76.9998 46.9995H74.0002V49.999H76.9998V46.9995Z" fill="#6F6F6F"/>
<path d="M79.9992 46.9995H76.9988V49.999H79.9992V46.9995Z" fill="#6F6F6F"/>
<path d="M82.9997 46.9995H79.9993V49.999H82.9997V46.9995Z" fill="#6F6F6F"/>
<path d="M85.9983 46.9995H82.9988V49.999H85.9983V46.9995Z" fill="#6F6F6F"/>
<path d="M88.9997 46.9995H85.9993V49.999H88.9997V46.9995Z" fill="#6F6F6F"/>
<path d="M91.9994 46.9995H88.999V49.999H91.9994V46.9995Z" fill="#6F6F6F"/>
<path d="M95.0009 46.9995H92.0005V49.999H95.0009V46.9995Z" fill="#6F6F6F"/>
<path d="M97.9983 46.9995H94.9988V49.999H97.9983V46.9995Z" fill="black"/>
<path d="M16.999 50H13.9995V53.0004H16.999V50Z" fill="black"/>
<path d="M20.0004 50H17V53.0004H20.0004V50Z" fill="#F2F2F2"/>
<path d="M22.999 50H19.9985V53.0004H22.999V50Z" fill="#A3A3A3"/>
<path d="M25.9998 50H23.0002V53.0004H25.9998V50Z" fill="#A3A3A3"/>
<path d="M28.9992 50H25.9988V53.0004H28.9992V50Z" fill="#A3A3A3"/>
<path d="M32.0004 50H29V53.0004H32.0004V50Z" fill="#A3A3A3"/>
<path d="M34.9993 50H31.9998V53.0004H34.9993V50Z" fill="#A3A3A3"/>
<path d="M38.0007 50H35.0002V53.0004H38.0007V50Z" fill="#A3A3A3"/>
<path d="M40.9994 50H37.999V53.0004H40.9994V50Z" fill="#A3A3A3"/>
<path d="M43.9998 50H41.0002V53.0004H43.9998V50Z" fill="#A3A3A3"/>
<path d="M46.9992 50H43.9988V53.0004H46.9992V50Z" fill="#A3A3A3"/>
<path d="M50.0009 50H47.0005V53.0004H50.0009V50Z" fill="#A3A3A3"/>
<path d="M52.9992 50H49.9988V53.0004H52.9992V50Z" fill="black"/>
<path d="M56 50H53.0005V53.0004H56V50Z" fill="#F2F2F2"/>
<path d="M58.9994 50H55.999V53.0004H58.9994V50Z" fill="#A3A3A3"/>
<path d="M61.9999 50H58.9995V53.0004H61.9999V50Z" fill="#A3A3A3"/>
<path d="M65.0004 50H62V53.0004H65.0004V50Z" fill="#A3A3A3"/>
<path d="M67.9983 50H64.9988V53.0004H67.9983V50Z" fill="#A3A3A3"/>
<path d="M70.9997 50H67.9993V53.0004H70.9997V50Z" fill="#A3A3A3"/>
<path d="M73.999 50H70.9985V53.0004H73.999V50Z" fill="#A3A3A3"/>
<path d="M76.9998 50H74.0002V53.0004H76.9998V50Z" fill="#A3A3A3"/>
<path d="M79.9992 50H76.9988V53.0004H79.9992V50Z" fill="#A3A3A3"/>
<path d="M82.9997 50H79.9993V53.0004H82.9997V50Z" fill="#A3A3A3"/>
<path d="M85.9983 50H82.9988V53.0004H85.9983V50Z" fill="#A3A3A3"/>
<path d="M88.9997 50H85.9993V53.0004H88.9997V50Z" fill="#A3A3A3"/>
<path d="M91.9994 50H88.999V53.0004H91.9994V50Z" fill="#A3A3A3"/>
<path d="M95.0009 50H92.0005V53.0004H95.0009V50Z" fill="#F2F2F2"/>
<path d="M97.9983 50H94.9988V53.0004H97.9983V50Z" fill="#6F6F6F"/>
<path d="M101 50H97.9995V53.0004H101V50Z" fill="black"/>
<path d="M16.999 52.9994H13.9995V55.9989H16.999V52.9994Z" fill="black"/>
<path d="M20.0004 52.9994H17V55.9989H20.0004V52.9994Z" fill="#6F6F6F"/>
<path d="M22.999 52.9994H19.9985V55.9989H22.999V52.9994Z" fill="#6F6F6F"/>
<path d="M25.9998 52.9994H23.0002V55.9989H25.9998V52.9994Z" fill="#6F6F6F"/>
<path d="M28.9992 52.9994H25.9988V55.9989H28.9992V52.9994Z" fill="#6F6F6F"/>
<path d="M32.0004 52.9994H29V55.9989H32.0004V52.9994Z" fill="#6F6F6F"/>
<path d="M34.9993 52.9994H31.9998V55.9989H34.9993V52.9994Z" fill="#6F6F6F"/>
<path d="M38.0007 52.9994H35.0002V55.9989H38.0007V52.9994Z" fill="#6F6F6F"/>
<path d="M40.9994 52.9994H37.999V55.9989H40.9994V52.9994Z" fill="#6F6F6F"/>
<path d="M43.9998 52.9994H41.0002V55.9989H43.9998V52.9994Z" fill="#6F6F6F"/>
<path d="M46.9992 52.9994H43.9988V55.9989H46.9992V52.9994Z" fill="#6F6F6F"/>
<path d="M50.0009 52.9994H47.0005V55.9989H50.0009V52.9994Z" fill="black"/>
<path d="M52.9992 52.9994H49.9988V55.9989H52.9992V52.9994Z" fill="#F2F2F2"/>
<path d="M56 52.9994H53.0005V55.9989H56V52.9994Z" fill="#F2F2F2"/>
<path d="M58.9994 52.9994H55.999V55.9989H58.9994V52.9994Z" fill="#F2F2F2"/>
<path d="M61.9999 52.9994H58.9995V55.9989H61.9999V52.9994Z" fill="#F2F2F2"/>
<path d="M65.0004 52.9994H62V55.9989H65.0004V52.9994Z" fill="#F2F2F2"/>
<path d="M67.9983 52.9994H64.9988V55.9989H67.9983V52.9994Z" fill="#F2F2F2"/>
<path d="M70.9997 52.9994H67.9993V55.9989H70.9997V52.9994Z" fill="#F2F2F2"/>
<path d="M73.999 52.9994H70.9985V55.9989H73.999V52.9994Z" fill="#F2F2F2"/>
<path d="M76.9998 52.9994H74.0002V55.9989H76.9998V52.9994Z" fill="#F2F2F2"/>
<path d="M79.9992 52.9994H76.9988V55.9989H79.9992V52.9994Z" fill="#F2F2F2"/>
<path d="M82.9997 52.9994H79.9993V55.9989H82.9997V52.9994Z" fill="#F2F2F2"/>
<path d="M85.9983 52.9994H82.9988V55.9989H85.9983V52.9994Z" fill="#F2F2F2"/>
<path d="M88.9997 52.9994H85.9993V55.9989H88.9997V52.9994Z" fill="#F2F2F2"/>
<path d="M91.9994 52.9994H88.999V55.9989H91.9994V52.9994Z" fill="#F2F2F2"/>
<path d="M95.0009 52.9994H92.0005V55.9989H95.0009V52.9994Z" fill="#6F6F6F"/>
<path d="M97.9983 52.9994H94.9988V55.9989H97.9983V52.9994Z" fill="#6F6F6F"/>
<path d="M101 52.9994H97.9995V55.9989H101V52.9994Z" fill="black"/>
<path d="M16.999 56H13.9995V59.0004H16.999V56Z" fill="black"/>
<path d="M20.0004 56H17V59.0004H20.0004V56Z" fill="black"/>
<path d="M22.999 56H19.9985V59.0004H22.999V56Z" fill="black"/>
<path d="M25.9998 56H23.0002V59.0004H25.9998V56Z" fill="black"/>
<path d="M28.9992 56H25.9988V59.0004H28.9992V56Z" fill="black"/>
<path d="M32.0004 56H29V59.0004H32.0004V56Z" fill="black"/>
<path d="M34.9993 56H31.9998V59.0004H34.9993V56Z" fill="black"/>
<path d="M38.0007 56H35.0002V59.0004H38.0007V56Z" fill="black"/>
<path d="M40.9994 56H37.999V59.0004H40.9994V56Z" fill="black"/>
<path d="M43.9998 56H41.0002V59.0004H43.9998V56Z" fill="black"/>
<path d="M46.9992 56H43.9988V59.0004H46.9992V56Z" fill="black"/>
<path d="M50.0009 56H47.0005V59.0004H50.0009V56Z" fill="#F2F2F2"/>
<path d="M52.9992 56H49.9988V59.0004H52.9992V56Z" fill="#A3A3A3"/>
<path d="M56 56H53.0005V59.0004H56V56Z" fill="#A3A3A3"/>
<path d="M58.9994 56H55.999V59.0004H58.9994V56Z" fill="#A3A3A3"/>
<path d="M61.9999 56H58.9995V59.0004H61.9999V56Z" fill="#A3A3A3"/>
<path d="M65.0004 56H62V59.0004H65.0004V56Z" fill="#A3A3A3"/>
<path d="M67.9983 56H64.9988V59.0004H67.9983V56Z" fill="#A3A3A3"/>
<path d="M70.9997 56H67.9993V59.0004H70.9997V56Z" fill="#A3A3A3"/>
<path d="M73.999 56H70.9985V59.0004H73.999V56Z" fill="#A3A3A3"/>
<path d="M76.9998 56H74.0002V59.0004H76.9998V56Z" fill="#A3A3A3"/>
<path d="M79.9992 56H76.9988V59.0004H79.9992V56Z" fill="#A3A3A3"/>
<path d="M82.9997 56H79.9993V59.0004H82.9997V56Z" fill="#A3A3A3"/>
<path d="M85.9983 56H82.9988V59.0004H85.9983V56Z" fill="#A3A3A3"/>
<path d="M88.9997 56H85.9993V59.0004H88.9997V56Z" fill="#A3A3A3"/>
<path d="M91.9994 56H88.999V59.0004H91.9994V56Z" fill="#F2F2F2"/>
<path d="M95.0009 56H92.0005V59.0004H95.0009V56Z" fill="#6F6F6F"/>
<path d="M97.9983 56H94.9988V59.0004H97.9983V56Z" fill="#6F6F6F"/>
<path d="M101 56H97.9995V59.0004H101V56Z" fill="black"/>
<path d="M14.0004 58.9995H11V61.999H14.0004V58.9995Z" fill="black"/>
<path d="M16.999 58.9995H13.9995V61.999H16.999V58.9995Z" fill="#F2F2F2"/>
<path d="M20.0004 58.9995H17V61.999H20.0004V58.9995Z" fill="#F2F2F2"/>
<path d="M22.999 58.9995H19.9985V61.999H22.999V58.9995Z" fill="#F2F2F2"/>
<path d="M25.9998 58.9995H23.0002V61.999H25.9998V58.9995Z" fill="#F2F2F2"/>
<path d="M28.9992 58.9995H25.9988V61.999H28.9992V58.9995Z" fill="#F2F2F2"/>
<path d="M32.0004 58.9995H29V61.999H32.0004V58.9995Z" fill="#F2F2F2"/>
<path d="M34.9993 58.9995H31.9998V61.999H34.9993V58.9995Z" fill="#F2F2F2"/>
<path d="M38.0007 58.9995H35.0002V61.999H38.0007V58.9995Z" fill="#F2F2F2"/>
<path d="M40.9994 58.9995H37.999V61.999H40.9994V58.9995Z" fill="#F2F2F2"/>
<path d="M43.9998 58.9995H41.0002V61.999H43.9998V58.9995Z" fill="#F2F2F2"/>
<path d="M46.9992 58.9995H43.9988V61.999H46.9992V58.9995Z" fill="black"/>
<path d="M50.0009 58.9995H47.0005V61.999H50.0009V58.9995Z" fill="#F2F2F2"/>
<path d="M52.9992 58.9995H49.9988V61.999H52.9992V58.9995Z" fill="#A3A3A3"/>
<path d="M56 58.9995H53.0005V61.999H56V58.9995Z" fill="#A3A3A3"/>
<path d="M58.9994 58.9995H55.999V61.999H58.9994V58.9995Z" fill="black"/>
<path d="M61.9999 58.9995H58.9995V61.999H61.9999V58.9995Z" fill="black"/>
<path d="M65.0004 58.9995H62V61.999H65.0004V58.9995Z" fill="black"/>
<path d="M67.9983 58.9995H64.9988V61.999H67.9983V58.9995Z" fill="black"/>
<path d="M70.9997 58.9995H67.9993V61.999H70.9997V58.9995Z" fill="black"/>
<path d="M73.999 58.9995H70.9985V61.999H73.999V58.9995Z" fill="black"/>
<path d="M76.9998 58.9995H74.0002V61.999H76.9998V58.9995Z" fill="black"/>
<path d="M79.9992 58.9995H76.9988V61.999H79.9992V58.9995Z" fill="black"/>
<path d="M82.9997 58.9995H79.9993V61.999H82.9997V58.9995Z" fill="black"/>
<path d="M85.9983 58.9995H82.9988V61.999H85.9983V58.9995Z" fill="#A3A3A3"/>
<path d="M88.9997 58.9995H85.9993V61.999H88.9997V58.9995Z" fill="#A3A3A3"/>
<path d="M91.9994 58.9995H88.999V61.999H91.9994V58.9995Z" fill="#F2F2F2"/>
<path d="M95.0009 58.9995H92.0005V61.999H95.0009V58.9995Z" fill="#6F6F6F"/>
<path d="M97.9983 58.9995H94.9988V61.999H97.9983V58.9995Z" fill="#6F6F6F"/>
<path d="M101 58.9995H97.9995V61.999H101V58.9995Z" fill="black"/>
<path d="M14.0004 62.0001H11V65.0005H14.0004V62.0001Z" fill="black"/>
<path d="M16.999 62.0001H13.9995V65.0005H16.999V62.0001Z" fill="#F2F2F2"/>
<path d="M20.0004 62.0001H17V65.0005H20.0004V62.0001Z" fill="#048504"/>
<path d="M22.999 62.0001H19.9985V65.0005H22.999V62.0001Z" fill="#F2F2F2"/>
<path d="M25.9998 62.0001H23.0002V65.0005H25.9998V62.0001Z" fill="#048504"/>
<path d="M28.9992 62.0001H25.9988V65.0005H28.9992V62.0001Z" fill="#F2F2F2"/>
<path d="M32.0004 62.0001H29V65.0005H32.0004V62.0001Z" fill="black"/>
<path d="M34.9993 62.0001H31.9998V65.0005H34.9993V62.0001Z" fill="black"/>
<path d="M38.0007 62.0001H35.0002V65.0005H38.0007V62.0001Z" fill="black"/>
<path d="M40.9994 62.0001H37.999V65.0005H40.9994V62.0001Z" fill="#F2F2F2"/>
<path d="M43.9998 62.0001H41.0002V65.0005H43.9998V62.0001Z" fill="#F2F2F2"/>
<path d="M46.9992 62.0001H43.9988V65.0005H46.9992V62.0001Z" fill="black"/>
<path d="M50.0009 62.0001H47.0005V65.0005H50.0009V62.0001Z" fill="#F2F2F2"/>
<path d="M52.9992 62.0001H49.9988V65.0005H52.9992V62.0001Z" fill="#A3A3A3"/>
<path d="M56 62.0001H53.0005V65.0005H56V62.0001Z" fill="black"/>
<path d="M58.9994 62.0001H55.999V65.0005H58.9994V62.0001Z" fill="#F2F2F2"/>
<path d="M61.9999 62.0001H58.9995V65.0005H61.9999V62.0001Z" fill="#F2F2F2"/>
<path d="M65.0004 62.0001H62V65.0005H65.0004V62.0001Z" fill="#F2F2F2"/>
<path d="M67.9983 62.0001H64.9988V65.0005H67.9983V62.0001Z" fill="#F2F2F2"/>
<path d="M70.9997 62.0001H67.9993V65.0005H70.9997V62.0001Z" fill="#F2F2F2"/>
<path d="M73.999 62.0001H70.9985V65.0005H73.999V62.0001Z" fill="#F2F2F2"/>
<path d="M76.9998 62.0001H74.0002V65.0005H76.9998V62.0001Z" fill="#F2F2F2"/>
<path d="M79.9992 62.0001H76.9988V65.0005H79.9992V62.0001Z" fill="#F2F2F2"/>
<path d="M82.9997 62.0001H79.9993V65.0005H82.9997V62.0001Z" fill="#F2F2F2"/>
<path d="M85.9983 62.0001H82.9988V65.0005H85.9983V62.0001Z" fill="black"/>
<path d="M88.9997 62.0001H85.9993V65.0005H88.9997V62.0001Z" fill="#A3A3A3"/>
<path d="M91.9994 62.0001H88.999V65.0005H91.9994V62.0001Z" fill="#F2F2F2"/>
<path d="M95.0009 62.0001H92.0005V65.0005H95.0009V62.0001Z" fill="#6F6F6F"/>
<path d="M97.9983 62.0001H94.9988V65.0005H97.9983V62.0001Z" fill="#6F6F6F"/>
<path d="M101 62.0001H97.9995V65.0005H101V62.0001Z" fill="black"/>
<path d="M14.0004 64.9996H11V67.9991H14.0004V64.9996Z" fill="black"/>
<path d="M16.999 64.9996H13.9995V67.9991H16.999V64.9996Z" fill="#A3A3A3"/>
<path d="M20.0004 64.9996H17V67.9991H20.0004V64.9996Z" fill="#A3A3A3"/>
<path d="M22.999 64.9996H19.9985V67.9991H22.999V64.9996Z" fill="#A3A3A3"/>
<path d="M25.9998 64.9996H23.0002V67.9991H25.9998V64.9996Z" fill="#A3A3A3"/>
<path d="M28.9992 64.9996H25.9988V67.9991H28.9992V64.9996Z" fill="#A3A3A3"/>
<path d="M32.0004 64.9996H29V67.9991H32.0004V64.9996Z" fill="#A3A3A3"/>
<path d="M34.9993 64.9996H31.9998V67.9991H34.9993V64.9996Z" fill="#A3A3A3"/>
<path d="M38.0007 64.9996H35.0002V67.9991H38.0007V64.9996Z" fill="#A3A3A3"/>
<path d="M40.9994 64.9996H37.999V67.9991H40.9994V64.9996Z" fill="#A3A3A3"/>
<path d="M43.9998 64.9996H41.0002V67.9991H43.9998V64.9996Z" fill="#A3A3A3"/>
<path d="M46.9992 64.9996H43.9988V67.9991H46.9992V64.9996Z" fill="black"/>
<path d="M50.0009 64.9996H47.0005V67.9991H50.0009V64.9996Z" fill="#F2F2F2"/>
<path d="M52.9992 64.9996H49.9988V67.9991H52.9992V64.9996Z" fill="#A3A3A3"/>
<path d="M56 64.9996H53.0005V67.9991H56V64.9996Z" fill="black"/>
<path d="M58.9994 64.9996H55.999V67.9991H58.9994V64.9996Z" fill="#F2F2F2"/>
<path d="M61.9999 64.9996H58.9995V67.9991H61.9999V64.9996Z" fill="#A3A3A3"/>
<path d="M65.0004 64.9996H62V67.9991H65.0004V64.9996Z" fill="#A3A3A3"/>
<path d="M67.9983 64.9996H64.9988V67.9991H67.9983V64.9996Z" fill="#A3A3A3"/>
<path d="M70.9997 64.9996H67.9993V67.9991H70.9997V64.9996Z" fill="#A3A3A3"/>
<path d="M73.999 64.9996H70.9985V67.9991H73.999V64.9996Z" fill="#A3A3A3"/>
<path d="M76.9998 64.9996H74.0002V67.9991H76.9998V64.9996Z" fill="#A3A3A3"/>
<path d="M79.9992 64.9996H76.9988V67.9991H79.9992V64.9996Z" fill="#A3A3A3"/>
<path d="M82.9997 64.9996H79.9993V67.9991H82.9997V64.9996Z" fill="#F2F2F2"/>
<path d="M85.9983 64.9996H82.9988V67.9991H85.9983V64.9996Z" fill="black"/>
<path d="M88.9997 64.9996H85.9993V67.9991H88.9997V64.9996Z" fill="#A3A3A3"/>
<path d="M91.9994 64.9996H88.999V67.9991H91.9994V64.9996Z" fill="#F2F2F2"/>
<path d="M95.0009 64.9996H92.0005V67.9991H95.0009V64.9996Z" fill="#6F6F6F"/>
<path d="M97.9983 64.9996H94.9988V67.9991H97.9983V64.9996Z" fill="#6F6F6F"/>
<path d="M101 64.9996H97.9995V67.9991H101V64.9996Z" fill="black"/>
<path d="M16.999 68.0001H13.9995V70.9996H16.999V68.0001Z" fill="black"/>
<path d="M20.0004 68.0001H17V70.9996H20.0004V68.0001Z" fill="black"/>
<path d="M22.999 68.0001H19.9985V70.9996H22.999V68.0001Z" fill="black"/>
<path d="M25.9998 68.0001H23.0002V70.9996H25.9998V68.0001Z" fill="black"/>
<path d="M28.9992 68.0001H25.9988V70.9996H28.9992V68.0001Z" fill="black"/>
<path d="M32.0004 68.0001H29V70.9996H32.0004V68.0001Z" fill="black"/>
<path d="M34.9993 68.0001H31.9998V70.9996H34.9993V68.0001Z" fill="black"/>
<path d="M38.0007 68.0001H35.0002V70.9996H38.0007V68.0001Z" fill="black"/>
<path d="M40.9994 68.0001H37.999V70.9996H40.9994V68.0001Z" fill="black"/>
<path d="M43.9998 68.0001H41.0002V70.9996H43.9998V68.0001Z" fill="black"/>
<path d="M46.9992 68.0001H43.9988V70.9996H46.9992V68.0001Z" fill="black"/>
<path d="M50.0009 68.0001H47.0005V70.9996H50.0009V68.0001Z" fill="#F2F2F2"/>
<path d="M52.9992 68.0001H49.9988V70.9996H52.9992V68.0001Z" fill="black"/>
<path d="M56 68.0001H53.0005V70.9996H56V68.0001Z" fill="black"/>
<path d="M58.9994 68.0001H55.999V70.9996H58.9994V68.0001Z" fill="black"/>
<path d="M61.9999 68.0001H58.9995V70.9996H61.9999V68.0001Z" fill="#A3A3A3"/>
<path d="M65.0004 68.0001H62V70.9996H65.0004V68.0001Z" fill="#A3A3A3"/>
<path d="M67.9983 68.0001H64.9988V70.9996H67.9983V68.0001Z" fill="#A3A3A3"/>
<path d="M70.9997 68.0001H67.9993V70.9996H70.9997V68.0001Z" fill="#A3A3A3"/>
<path d="M73.999 68.0001H70.9985V70.9996H73.999V68.0001Z" fill="#A3A3A3"/>
<path d="M76.9998 68.0001H74.0002V70.9996H76.9998V68.0001Z" fill="#A3A3A3"/>
<path d="M79.9992 68.0001H76.9988V70.9996H79.9992V68.0001Z" fill="#A3A3A3"/>
<path d="M82.9997 68.0001H79.9993V70.9996H82.9997V68.0001Z" fill="#A3A3A3"/>
<path d="M85.9983 68.0001H82.9988V70.9996H85.9983V68.0001Z" fill="black"/>
<path d="M88.9997 68.0001H85.9993V70.9996H88.9997V68.0001Z" fill="#A3A3A3"/>
<path d="M91.9994 68.0001H88.999V70.9996H91.9994V68.0001Z" fill="#F2F2F2"/>
<path d="M95.0009 68.0001H92.0005V70.9996H95.0009V68.0001Z" fill="#6F6F6F"/>
<path d="M97.9983 68.0001H94.9988V70.9996H97.9983V68.0001Z" fill="#6F6F6F"/>
<path d="M101 68.0001H97.9995V70.9996H101V68.0001Z" fill="black"/>
<path d="M46.9992 70.9996H43.9988V74.0001H46.9992V70.9996Z" fill="black"/>
<path d="M50.0009 70.9996H47.0005V74.0001H50.0009V70.9996Z" fill="#F2F2F2"/>
<path d="M52.9992 70.9996H49.9988V74.0001H52.9992V70.9996Z" fill="#A3A3A3"/>
<path d="M56 70.9996H53.0005V74.0001H56V70.9996Z" fill="black"/>
<path d="M58.9994 70.9996H55.999V74.0001H58.9994V70.9996Z" fill="#A3A3A3"/>
<path d="M61.9999 70.9996H58.9995V74.0001H61.9999V70.9996Z" fill="#A3A3A3"/>
<path d="M65.0004 70.9996H62V74.0001H65.0004V70.9996Z" fill="#A3A3A3"/>
<path d="M67.9983 70.9996H64.9988V74.0001H67.9983V70.9996Z" fill="#A3A3A3"/>
<path d="M70.9997 70.9996H67.9993V74.0001H70.9997V70.9996Z" fill="#A3A3A3"/>
<path d="M73.999 70.9996H70.9985V74.0001H73.999V70.9996Z" fill="black"/>
<path d="M76.9998 70.9996H74.0002V74.0001H76.9998V70.9996Z" fill="black"/>
<path d="M79.9992 70.9996H76.9988V74.0001H79.9992V70.9996Z" fill="#A3A3A3"/>
<path d="M82.9997 70.9996H79.9993V74.0001H82.9997V70.9996Z" fill="#A3A3A3"/>
<path d="M85.9983 70.9996H82.9988V74.0001H85.9983V70.9996Z" fill="black"/>
<path d="M88.9997 70.9996H85.9993V74.0001H88.9997V70.9996Z" fill="#A3A3A3"/>
<path d="M91.9994 70.9996H88.999V74.0001H91.9994V70.9996Z" fill="#F2F2F2"/>
<path d="M95.0009 70.9996H92.0005V74.0001H95.0009V70.9996Z" fill="#6F6F6F"/>
<path d="M97.9983 70.9996H94.9988V74.0001H97.9983V70.9996Z" fill="#6F6F6F"/>
<path d="M101 70.9996H97.9995V74.0001H101V70.9996Z" fill="black"/>
<path d="M16.999 74H13.9995V76.9995H16.999V74Z" fill="black"/>
<path d="M20.0004 74H17V76.9995H20.0004V74Z" fill="black"/>
<path d="M22.999 74H19.9985V76.9995H22.999V74Z" fill="black"/>
<path d="M46.9992 74H43.9988V76.9995H46.9992V74Z" fill="black"/>
<path d="M50.0009 74H47.0005V76.9995H50.0009V74Z" fill="#F2F2F2"/>
<path d="M52.9992 74H49.9988V76.9995H52.9992V74Z" fill="#A3A3A3"/>
<path d="M56 74H53.0005V76.9995H56V74Z" fill="black"/>
<path d="M58.9994 74H55.999V76.9995H58.9994V74Z" fill="#A3A3A3"/>
<path d="M61.9999 74H58.9995V76.9995H61.9999V74Z" fill="#A3A3A3"/>
<path d="M65.0004 74H62V76.9995H65.0004V74Z" fill="#A3A3A3"/>
<path d="M67.9983 74H64.9988V76.9995H67.9983V74Z" fill="#A3A3A3"/>
<path d="M70.9997 74H67.9993V76.9995H70.9997V74Z" fill="black"/>
<path d="M73.999 74H70.9985V76.9995H73.999V74Z" fill="#F2F2F2"/>
<path d="M76.9998 74H74.0002V76.9995H76.9998V74Z" fill="#F2F2F2"/>
<path d="M79.9992 74H76.9988V76.9995H79.9992V74Z" fill="black"/>
<path d="M82.9997 74H79.9993V76.9995H82.9997V74Z" fill="#A3A3A3"/>
<path d="M85.9983 74H82.9988V76.9995H85.9983V74Z" fill="black"/>
<path d="M88.9997 74H85.9993V76.9995H88.9997V74Z" fill="#A3A3A3"/>
<path d="M91.9994 74H88.999V76.9995H91.9994V74Z" fill="#F2F2F2"/>
<path d="M95.0009 74H92.0005V76.9995H95.0009V74Z" fill="#6F6F6F"/>
<path d="M97.9983 74H94.9988V76.9995H97.9983V74Z" fill="#6F6F6F"/>
<path d="M101 74H97.9995V76.9995H101V74Z" fill="black"/>
<path d="M16.999 76.9998H13.9995V80.0002H16.999V76.9998Z" fill="black"/>
<path d="M20.0004 76.9998H17V80.0002H20.0004V76.9998Z" fill="#F65734"/>
<path d="M22.999 76.9998H19.9985V80.0002H22.999V76.9998Z" fill="black"/>
<path d="M46.9992 76.9998H43.9988V80.0002H46.9992V76.9998Z" fill="black"/>
<path d="M50.0009 76.9998H47.0005V80.0002H50.0009V76.9998Z" fill="#F2F2F2"/>
<path d="M52.9992 76.9998H49.9988V80.0002H52.9992V76.9998Z" fill="#A3A3A3"/>
<path d="M56 76.9998H53.0005V80.0002H56V76.9998Z" fill="black"/>
<path d="M58.9994 76.9998H55.999V80.0002H58.9994V76.9998Z" fill="#A3A3A3"/>
<path d="M61.9999 76.9998H58.9995V80.0002H61.9999V76.9998Z" fill="#A3A3A3"/>
<path d="M65.0004 76.9998H62V80.0002H65.0004V76.9998Z" fill="#A3A3A3"/>
<path d="M67.9983 76.9998H64.9988V80.0002H67.9983V76.9998Z" fill="#A3A3A3"/>
<path d="M70.9997 76.9998H67.9993V80.0002H70.9997V76.9998Z" fill="black"/>
<path d="M73.999 76.9998H70.9985V80.0002H73.999V76.9998Z" fill="#A3A3A3"/>
<path d="M76.9998 76.9998H74.0002V80.0002H76.9998V76.9998Z" fill="#A3A3A3"/>
<path d="M79.9992 76.9998H76.9988V80.0002H79.9992V76.9998Z" fill="black"/>
<path d="M82.9997 76.9998H79.9993V80.0002H82.9997V76.9998Z" fill="#A3A3A3"/>
<path d="M85.9983 76.9998H82.9988V80.0002H85.9983V76.9998Z" fill="black"/>
<path d="M88.9997 76.9998H85.9993V80.0002H88.9997V76.9998Z" fill="#A3A3A3"/>
<path d="M91.9994 76.9998H88.999V80.0002H91.9994V76.9998Z" fill="#F2F2F2"/>
<path d="M95.0009 76.9998H92.0005V80.0002H95.0009V76.9998Z" fill="#6F6F6F"/>
<path d="M97.9983 76.9998H94.9988V80.0002H97.9983V76.9998Z" fill="#6F6F6F"/>
<path d="M101 76.9998H97.9995V80.0002H101V76.9998Z" fill="black"/>
<path d="M16.999 80H13.9995V82.9995H16.999V80Z" fill="black"/>
<path d="M20.0004 80H17V82.9995H20.0004V80Z" fill="#F65734"/>
<path d="M22.999 80H19.9985V82.9995H22.999V80Z" fill="black"/>
<path d="M28.9992 80H25.9988V82.9995H28.9992V80Z" fill="black"/>
<path d="M32.0004 80H29V82.9995H32.0004V80Z" fill="black"/>
<path d="M46.9992 80H43.9988V82.9995H46.9992V80Z" fill="black"/>
<path d="M50.0009 80H47.0005V82.9995H50.0009V80Z" fill="#F2F2F2"/>
<path d="M52.9992 80H49.9988V82.9995H52.9992V80Z" fill="#A3A3A3"/>
<path d="M56 80H53.0005V82.9995H56V80Z" fill="black"/>
<path d="M58.9994 80H55.999V82.9995H58.9994V80Z" fill="#A3A3A3"/>
<path d="M61.9999 80H58.9995V82.9995H61.9999V80Z" fill="#A3A3A3"/>
<path d="M65.0004 80H62V82.9995H65.0004V80Z" fill="#A3A3A3"/>
<path d="M67.9983 80H64.9988V82.9995H67.9983V80Z" fill="#A3A3A3"/>
<path d="M70.9997 80H67.9993V82.9995H70.9997V80Z" fill="#6F6F6F"/>
<path d="M73.999 80H70.9985V82.9995H73.999V80Z" fill="black"/>
<path d="M76.9998 80H74.0002V82.9995H76.9998V80Z" fill="black"/>
<path d="M79.9992 80H76.9988V82.9995H79.9992V80Z" fill="#6F6F6F"/>
<path d="M82.9997 80H79.9993V82.9995H82.9997V80Z" fill="#A3A3A3"/>
<path d="M85.9983 80H82.9988V82.9995H85.9983V80Z" fill="black"/>
<path d="M88.9997 80H85.9993V82.9995H88.9997V80Z" fill="#A3A3A3"/>
<path d="M91.9994 80H88.999V82.9995H91.9994V80Z" fill="#F2F2F2"/>
<path d="M95.0009 80H92.0005V82.9995H95.0009V80Z" fill="#6F6F6F"/>
<path d="M97.9983 80H94.9988V82.9995H97.9983V80Z" fill="#6F6F6F"/>
<path d="M101 80H97.9995V82.9995H101V80Z" fill="black"/>
<path d="M16.999 82.9993H13.9995V85.9997H16.999V82.9993Z" fill="black"/>
<path d="M20.0004 82.9993H17V85.9997H20.0004V82.9993Z" fill="#F65734"/>
<path d="M22.999 82.9993H19.9985V85.9997H22.999V82.9993Z" fill="black"/>
<path d="M28.9992 82.9993H25.9988V85.9997H28.9992V82.9993Z" fill="black"/>
<path d="M32.0004 82.9993H29V85.9997H32.0004V82.9993Z" fill="#C51313"/>
<path d="M34.9993 82.9993H31.9998V85.9997H34.9993V82.9993Z" fill="black"/>
<path d="M46.9992 82.9993H43.9988V85.9997H46.9992V82.9993Z" fill="black"/>
<path d="M50.0009 82.9993H47.0005V85.9997H50.0009V82.9993Z" fill="#F2F2F2"/>
<path d="M52.9992 82.9993H49.9988V85.9997H52.9992V82.9993Z" fill="black"/>
<path d="M56 82.9993H53.0005V85.9997H56V82.9993Z" fill="black"/>
<path d="M58.9994 82.9993H55.999V85.9997H58.9994V82.9993Z" fill="black"/>
<path d="M61.9999 82.9993H58.9995V85.9997H61.9999V82.9993Z" fill="#A3A3A3"/>
<path d="M65.0004 82.9993H62V85.9997H65.0004V82.9993Z" fill="#A3A3A3"/>
<path d="M67.9983 82.9993H64.9988V85.9997H67.9983V82.9993Z" fill="#A3A3A3"/>
<path d="M70.9997 82.9993H67.9993V85.9997H70.9997V82.9993Z" fill="#A3A3A3"/>
<path d="M73.999 82.9993H70.9985V85.9997H73.999V82.9993Z" fill="#6F6F6F"/>
<path d="M76.9998 82.9993H74.0002V85.9997H76.9998V82.9993Z" fill="#6F6F6F"/>
<path d="M79.9992 82.9993H76.9988V85.9997H79.9992V82.9993Z" fill="#A3A3A3"/>
<path d="M82.9997 82.9993H79.9993V85.9997H82.9997V82.9993Z" fill="#A3A3A3"/>
<path d="M85.9983 82.9993H82.9988V85.9997H85.9983V82.9993Z" fill="black"/>
<path d="M88.9997 82.9993H85.9993V85.9997H88.9997V82.9993Z" fill="#A3A3A3"/>
<path d="M91.9994 82.9993H88.999V85.9997H91.9994V82.9993Z" fill="#F2F2F2"/>
<path d="M95.0009 82.9993H92.0005V85.9997H95.0009V82.9993Z" fill="#6F6F6F"/>
<path d="M97.9983 82.9993H94.9988V85.9997H97.9983V82.9993Z" fill="#6F6F6F"/>
<path d="M101 82.9993H97.9995V85.9997H101V82.9993Z" fill="black"/>
<path d="M16.999 85.9994H13.9995V88.9989H16.999V85.9994Z" fill="black"/>
<path d="M20.0004 85.9994H17V88.9989H20.0004V85.9994Z" fill="#F65734"/>
<path d="M22.999 85.9994H19.9985V88.9989H22.999V85.9994Z" fill="#C51313"/>
<path d="M25.9998 85.9994H23.0002V88.9989H25.9998V85.9994Z" fill="black"/>
<path d="M28.9992 85.9994H25.9988V88.9989H28.9992V85.9994Z" fill="black"/>
<path d="M32.0004 85.9994H29V88.9989H32.0004V85.9994Z" fill="#F65734"/>
<path d="M34.9993 85.9994H31.9998V88.9989H34.9993V85.9994Z" fill="#C51313"/>
<path d="M38.0007 85.9994H35.0002V88.9989H38.0007V85.9994Z" fill="black"/>
<path d="M46.9992 85.9994H43.9988V88.9989H46.9992V85.9994Z" fill="black"/>
<path d="M50.0009 85.9994H47.0005V88.9989H50.0009V85.9994Z" fill="#F2F2F2"/>
<path d="M52.9992 85.9994H49.9988V88.9989H52.9992V85.9994Z" fill="#A3A3A3"/>
<path d="M56 85.9994H53.0005V88.9989H56V85.9994Z" fill="black"/>
<path d="M58.9994 85.9994H55.999V88.9989H58.9994V85.9994Z" fill="#A3A3A3"/>
<path d="M61.9999 85.9994H58.9995V88.9989H61.9999V85.9994Z" fill="#A3A3A3"/>
<path d="M65.0004 85.9994H62V88.9989H65.0004V85.9994Z" fill="#A3A3A3"/>
<path d="M67.9983 85.9994H64.9988V88.9989H67.9983V85.9994Z" fill="#A3A3A3"/>
<path d="M70.9997 85.9994H67.9993V88.9989H70.9997V85.9994Z" fill="#A3A3A3"/>
<path d="M73.999 85.9994H70.9985V88.9989H73.999V85.9994Z" fill="#A3A3A3"/>
<path d="M76.9998 85.9994H74.0002V88.9989H76.9998V85.9994Z" fill="#A3A3A3"/>
<path d="M79.9992 85.9994H76.9988V88.9989H79.9992V85.9994Z" fill="#A3A3A3"/>
<path d="M82.9997 85.9994H79.9993V88.9989H82.9997V85.9994Z" fill="#A3A3A3"/>
<path d="M85.9983 85.9994H82.9988V88.9989H85.9983V85.9994Z" fill="black"/>
<path d="M88.9997 85.9994H85.9993V88.9989H88.9997V85.9994Z" fill="#A3A3A3"/>
<path d="M91.9994 85.9994H88.999V88.9989H91.9994V85.9994Z" fill="#F2F2F2"/>
<path d="M95.0009 85.9994H92.0005V88.9989H95.0009V85.9994Z" fill="#6F6F6F"/>
<path d="M97.9983 85.9994H94.9988V88.9989H97.9983V85.9994Z" fill="#6F6F6F"/>
<path d="M101 85.9994H97.9995V88.9989H101V85.9994Z" fill="black"/>
<path d="M20.0004 88.999H17V91.9985H20.0004V88.999Z" fill="black"/>
<path d="M22.999 88.999H19.9985V91.9985H22.999V88.999Z" fill="#F65734"/>
<path d="M25.9998 88.999H23.0002V91.9985H25.9998V88.999Z" fill="#F65734"/>
<path d="M28.9992 88.999H25.9988V91.9985H28.9992V88.999Z" fill="#F65734"/>
<path d="M32.0004 88.999H29V91.9985H32.0004V88.999Z" fill="#F65734"/>
<path d="M34.9993 88.999H31.9998V91.9985H34.9993V88.999Z" fill="#F65734"/>
<path d="M38.0007 88.999H35.0002V91.9985H38.0007V88.999Z" fill="#C51313"/>
<path d="M40.9994 88.999H37.999V91.9985H40.9994V88.999Z" fill="black"/>
<path d="M46.9992 88.999H43.9988V91.9985H46.9992V88.999Z" fill="black"/>
<path d="M50.0009 88.999H47.0005V91.9985H50.0009V88.999Z" fill="#F2F2F2"/>
<path d="M52.9992 88.999H49.9988V91.9985H52.9992V88.999Z" fill="#A3A3A3"/>
<path d="M56 88.999H53.0005V91.9985H56V88.999Z" fill="#6F6F6F"/>
<path d="M58.9994 88.999H55.999V91.9985H58.9994V88.999Z" fill="black"/>
<path d="M61.9999 88.999H58.9995V91.9985H61.9999V88.999Z" fill="black"/>
<path d="M65.0004 88.999H62V91.9985H65.0004V88.999Z" fill="black"/>
<path d="M67.9983 88.999H64.9988V91.9985H67.9983V88.999Z" fill="black"/>
<path d="M70.9997 88.999H67.9993V91.9985H70.9997V88.999Z" fill="black"/>
<path d="M73.999 88.999H70.9985V91.9985H73.999V88.999Z" fill="black"/>
<path d="M76.9998 88.999H74.0002V91.9985H76.9998V88.999Z" fill="black"/>
<path d="M79.9992 88.999H76.9988V91.9985H79.9992V88.999Z" fill="black"/>
<path d="M82.9997 88.999H79.9993V91.9985H82.9997V88.999Z" fill="black"/>
<path d="M85.9983 88.999H82.9988V91.9985H85.9983V88.999Z" fill="#6F6F6F"/>
<path d="M88.9997 88.999H85.9993V91.9985H88.9997V88.999Z" fill="#A3A3A3"/>
<path d="M91.9994 88.999H88.999V91.9985H91.9994V88.999Z" fill="#F2F2F2"/>
<path d="M95.0009 88.999H92.0005V91.9985H95.0009V88.999Z" fill="#6F6F6F"/>
<path d="M97.9983 88.999H94.9988V91.9985H97.9983V88.999Z" fill="#6F6F6F"/>
<path d="M101 88.999H97.9995V91.9985H101V88.999Z" fill="black"/>
<path d="M22.999 91.9994H19.9985V94.9998H22.999V91.9994Z" fill="black"/>
<path d="M25.9998 91.9994H23.0002V94.9998H25.9998V91.9994Z" fill="black"/>
<path d="M28.9992 91.9994H25.9988V94.9998H28.9992V91.9994Z" fill="black"/>
<path d="M32.0004 91.9994H29V94.9998H32.0004V91.9994Z" fill="#F65734"/>
<path d="M34.9993 91.9994H31.9998V94.9998H34.9993V91.9994Z" fill="#C51313"/>
<path d="M38.0007 91.9994H35.0002V94.9998H38.0007V91.9994Z" fill="black"/>
<path d="M46.9992 91.9994H43.9988V94.9998H46.9992V91.9994Z" fill="black"/>
<path d="M50.0009 91.9994H47.0005V94.9998H50.0009V91.9994Z" fill="#F2F2F2"/>
<path d="M52.9992 91.9994H49.9988V94.9998H52.9992V91.9994Z" fill="#A3A3A3"/>
<path d="M56 91.9994H53.0005V94.9998H56V91.9994Z" fill="#A3A3A3"/>
<path d="M58.9994 91.9994H55.999V94.9998H58.9994V91.9994Z" fill="#6F6F6F"/>
<path d="M61.9999 91.9994H58.9995V94.9998H61.9999V91.9994Z" fill="#6F6F6F"/>
<path d="M65.0004 91.9994H62V94.9998H65.0004V91.9994Z" fill="#6F6F6F"/>
<path d="M67.9983 91.9994H64.9988V94.9998H67.9983V91.9994Z" fill="#6F6F6F"/>
<path d="M70.9997 91.9994H67.9993V94.9998H70.9997V91.9994Z" fill="#6F6F6F"/>
<path d="M73.999 91.9994H70.9985V94.9998H73.999V91.9994Z" fill="#6F6F6F"/>
<path d="M76.9998 91.9994H74.0002V94.9998H76.9998V91.9994Z" fill="#6F6F6F"/>
<path d="M79.9992 91.9994H76.9988V94.9998H79.9992V91.9994Z" fill="#6F6F6F"/>
<path d="M82.9997 91.9994H79.9993V94.9998H82.9997V91.9994Z" fill="#6F6F6F"/>
<path d="M85.9983 91.9994H82.9988V94.9998H85.9983V91.9994Z" fill="#A3A3A3"/>
<path d="M88.9997 91.9994H85.9993V94.9998H88.9997V91.9994Z" fill="#A3A3A3"/>
<path d="M91.9994 91.9994H88.999V94.9998H91.9994V91.9994Z" fill="#F2F2F2"/>
<path d="M95.0009 91.9994H92.0005V94.9998H95.0009V91.9994Z" fill="#6F6F6F"/>
<path d="M97.9983 91.9994H94.9988V94.9998H97.9983V91.9994Z" fill="black"/>
<path d="M28.9992 94.9989H25.9988V97.9984H28.9992V94.9989Z" fill="black"/>
<path d="M32.0004 94.9989H29V97.9984H32.0004V94.9989Z" fill="#C51313"/>
<path d="M34.9993 94.9989H31.9998V97.9984H34.9993V94.9989Z" fill="black"/>
<path d="M50.0009 94.9989H47.0005V97.9984H50.0009V94.9989Z" fill="black"/>
<path d="M52.9992 94.9989H49.9988V97.9984H52.9992V94.9989Z" fill="black"/>
<path d="M56 94.9989H53.0005V97.9984H56V94.9989Z" fill="black"/>
<path d="M58.9994 94.9989H55.999V97.9984H58.9994V94.9989Z" fill="black"/>
<path d="M61.9999 94.9989H58.9995V97.9984H61.9999V94.9989Z" fill="black"/>
<path d="M65.0004 94.9989H62V97.9984H65.0004V94.9989Z" fill="black"/>
<path d="M67.9983 94.9989H64.9988V97.9984H67.9983V94.9989Z" fill="black"/>
<path d="M70.9997 94.9989H67.9993V97.9984H70.9997V94.9989Z" fill="black"/>
<path d="M73.999 94.9989H70.9985V97.9984H73.999V94.9989Z" fill="black"/>
<path d="M76.9998 94.9989H74.0002V97.9984H76.9998V94.9989Z" fill="black"/>
<path d="M79.9992 94.9989H76.9988V97.9984H79.9992V94.9989Z" fill="black"/>
<path d="M82.9997 94.9989H79.9993V97.9984H82.9997V94.9989Z" fill="black"/>
<path d="M85.9983 94.9989H82.9988V97.9984H85.9983V94.9989Z" fill="black"/>
<path d="M88.9997 94.9989H85.9993V97.9984H88.9997V94.9989Z" fill="black"/>
<path d="M91.9994 94.9989H88.999V97.9984H91.9994V94.9989Z" fill="black"/>
<path d="M95.0009 94.9989H92.0005V97.9984H95.0009V94.9989Z" fill="black"/>
<path d="M28.9992 97.9995H25.9988V101H28.9992V97.9995Z" fill="black"/>
<path d="M32.0004 97.9995H29V101H32.0004V97.9995Z" fill="black"/>
<path d="M52.9992 97.9995H49.9988V101H52.9992V97.9995Z" fill="black"/>
<path d="M56 97.9995H53.0005V101H56V97.9995Z" fill="black"/>
<path d="M58.9994 97.9995H55.999V101H58.9994V97.9995Z" fill="black"/>
<path d="M85.9983 97.9995H82.9988V101H85.9983V97.9995Z" fill="black"/>
<path d="M88.9997 97.9995H85.9993V101H88.9997V97.9995Z" fill="black"/>
<path d="M91.9994 97.9995H88.999V101H91.9994V97.9995Z" fill="black"/>
</svg>
