<svg width="112" height="112" viewBox="0 0 112 112" fill="none" xmlns="http://www.w3.org/2000/svg">
<path d="M4.00035 32H0V35.9994H4.00035V32Z" fill="black"/>
<path d="M7.99992 32H4.00049V35.9994H7.99992V32Z" fill="black"/>
<path d="M12.0001 32H7.99976V35.9994H12.0001V32Z" fill="black"/>
<path d="M16.0008 32H12.0005V35.9994H16.0008V32Z" fill="black"/>
<path d="M4.00035 35.9994H0V39.9997H4.00035V35.9994Z" fill="black"/>
<path d="M7.99992 35.9994H4.00049V39.9997H7.99992V35.9994Z" fill="#033FC0"/>
<path d="M12.0001 35.9994H7.99976V39.9997H12.0001V35.9994Z" fill="#033FC0"/>
<path d="M16.0008 35.9994H12.0005V39.9997H16.0008V35.9994Z" fill="#033FC0"/>
<path d="M20.0004 35.9994H16.001V39.9997H20.0004V35.9994Z" fill="black"/>
<path d="M4.00035 40H0V44.0004H4.00035V40Z" fill="black"/>
<path d="M7.99992 40H4.00049V44.0004H7.99992V40Z" fill="#033FC0"/>
<path d="M12.0001 40H7.99976V44.0004H12.0001V40Z" fill="#033FC0"/>
<path d="M16.0008 40H12.0005V44.0004H16.0008V40Z" fill="#033FC0"/>
<path d="M20.0004 40H16.001V44.0004H20.0004V40Z" fill="#033FC0"/>
<path d="M24.0006 40H20.0002V44.0004H24.0006V40Z" fill="black"/>
<path d="M4.00035 44.0002H0V47.9997H4.00035V44.0002Z" fill="black"/>
<path d="M7.99992 44.0002H4.00049V47.9997H7.99992V44.0002Z" fill="#033FC0"/>
<path d="M12.0001 44.0002H7.99976V47.9997H12.0001V44.0002Z" fill="#033FC0"/>
<path d="M16.0008 44.0002H12.0005V47.9997H16.0008V44.0002Z" fill="#033FC0"/>
<path d="M20.0004 44.0002H16.001V47.9997H20.0004V44.0002Z" fill="#033FC0"/>
<path d="M24.0006 44.0002H20.0002V47.9997H24.0006V44.0002Z" fill="black"/>
<path d="M28.0008 44.0002H24.0005V47.9997H28.0008V44.0002Z" fill="black"/>
<path d="M31.9999 44.0002H28.0005V47.9997H31.9999V44.0002Z" fill="black"/>
<path d="M35.9999 44.0002H31.9995V47.9997H35.9999V44.0002Z" fill="black"/>
<path d="M40.0006 44.0002H36.0002V47.9997H40.0006V44.0002Z" fill="black"/>
<path d="M43.9992 44.0002H39.9998V47.9997H43.9992V44.0002Z" fill="black"/>
<path d="M48.0004 44.0002H44V47.9997H48.0004V44.0002Z" fill="black"/>
<path d="M51.9999 44.0002H47.9995V47.9997H51.9999V44.0002Z" fill="black"/>
<path d="M56.0004 44.0002H52V47.9997H56.0004V44.0002Z" fill="black"/>
<path d="M59.9997 44.0002H56.0002V47.9997H59.9997V44.0002Z" fill="black"/>
<path d="M64.0004 44.0002H60V47.9997H64.0004V44.0002Z" fill="black"/>
<path d="M4.00035 47.9993H0V51.9996H4.00035V47.9993Z" fill="black"/>
<path d="M7.99992 47.9993H4.00049V51.9996H7.99992V47.9993Z" fill="#033FC0"/>
<path d="M12.0001 47.9993H7.99976V51.9996H12.0001V47.9993Z" fill="#033FC0"/>
<path d="M16.0008 47.9993H12.0005V51.9996H16.0008V47.9993Z" fill="#033FC0"/>
<path d="M20.0004 47.9993H16.001V51.9996H20.0004V47.9993Z" fill="#033FC0"/>
<path d="M24.0006 47.9993H20.0002V51.9996H24.0006V47.9993Z" fill="black"/>
<path d="M28.0008 47.9993H24.0005V51.9996H28.0008V47.9993Z" fill="#A3A3A3"/>
<path d="M31.9999 47.9993H28.0005V51.9996H31.9999V47.9993Z" fill="#F2F2F2"/>
<path d="M35.9999 47.9993H31.9995V51.9996H35.9999V47.9993Z" fill="#F2F2F2"/>
<path d="M40.0006 47.9993H36.0002V51.9996H40.0006V47.9993Z" fill="#F2F2F2"/>
<path d="M43.9992 47.9993H39.9998V51.9996H43.9992V47.9993Z" fill="#F2F2F2"/>
<path d="M48.0004 47.9993H44V51.9996H48.0004V47.9993Z" fill="#F2F2F2"/>
<path d="M51.9999 47.9993H47.9995V51.9996H51.9999V47.9993Z" fill="#F2F2F2"/>
<path d="M56.0004 47.9993H52V51.9996H56.0004V47.9993Z" fill="#F2F2F2"/>
<path d="M59.9997 47.9993H56.0002V51.9996H59.9997V47.9993Z" fill="#F2F2F2"/>
<path d="M64.0004 47.9993H60V51.9996H64.0004V47.9993Z" fill="#F2F2F2"/>
<path d="M68.0008 47.9993H64.0005V51.9996H68.0008V47.9993Z" fill="black"/>
<path d="M72.0011 47.9993H68.0007V51.9996H72.0011V47.9993Z" fill="black"/>
<path d="M4.00035 51.9999H0V56.0002H4.00035V51.9999Z" fill="black"/>
<path d="M7.99992 51.9999H4.00049V56.0002H7.99992V51.9999Z" fill="#033FC0"/>
<path d="M12.0001 51.9999H7.99976V56.0002H12.0001V51.9999Z" fill="#033FC0"/>
<path d="M16.0008 51.9999H12.0005V56.0002H16.0008V51.9999Z" fill="#033FC0"/>
<path d="M20.0004 51.9999H16.001V56.0002H20.0004V51.9999Z" fill="#033FC0"/>
<path d="M24.0006 51.9999H20.0002V56.0002H24.0006V51.9999Z" fill="black"/>
<path d="M28.0008 51.9999H24.0005V56.0002H28.0008V51.9999Z" fill="#A3A3A3"/>
<path d="M31.9999 51.9999H28.0005V56.0002H31.9999V51.9999Z" fill="#F2F2F2"/>
<path d="M35.9999 51.9999H31.9995V56.0002H35.9999V51.9999Z" fill="#F2F2F2"/>
<path d="M40.0006 51.9999H36.0002V56.0002H40.0006V51.9999Z" fill="#F2F2F2"/>
<path d="M43.9992 51.9999H39.9998V56.0002H43.9992V51.9999Z" fill="#F2F2F2"/>
<path d="M48.0004 51.9999H44V56.0002H48.0004V51.9999Z" fill="#F2F2F2"/>
<path d="M51.9999 51.9999H47.9995V56.0002H51.9999V51.9999Z" fill="#F2F2F2"/>
<path d="M56.0004 51.9999H52V56.0002H56.0004V51.9999Z" fill="#F2F2F2"/>
<path d="M59.9997 51.9999H56.0002V56.0002H59.9997V51.9999Z" fill="#F2F2F2"/>
<path d="M64.0004 51.9999H60V56.0002H64.0004V51.9999Z" fill="#F2F2F2"/>
<path d="M68.0008 51.9999H64.0005V56.0002H68.0008V51.9999Z" fill="#F2F2F2"/>
<path d="M72.0011 51.9999H68.0007V56.0002H72.0011V51.9999Z" fill="#F2F2F2"/>
<path d="M75.9997 51.9999H72.0002V56.0002H75.9997V51.9999Z" fill="black"/>
<path d="M80.0008 51.9999H76.0005V56.0002H80.0008V51.9999Z" fill="black"/>
<path d="M95.9999 51.9999H91.9995V56.0002H95.9999V51.9999Z" fill="black"/>
<path d="M99.9994 51.9999H96V56.0002H99.9994V51.9999Z" fill="black"/>
<path d="M104 51.9999H99.9995V56.0002H104V51.9999Z" fill="black"/>
<path d="M108 51.9999H104V56.0002H108V51.9999Z" fill="black"/>
<path d="M4.00035 55.9993H0V59.9987H4.00035V55.9993Z" fill="black"/>
<path d="M7.99992 55.9993H4.00049V59.9987H7.99992V55.9993Z" fill="black"/>
<path d="M12.0001 55.9993H7.99976V59.9987H12.0001V55.9993Z" fill="#033FC0"/>
<path d="M16.0008 55.9993H12.0005V59.9987H16.0008V55.9993Z" fill="black"/>
<path d="M20.0004 55.9993H16.001V59.9987H20.0004V55.9993Z" fill="#033FC0"/>
<path d="M24.0006 55.9993H20.0002V59.9987H24.0006V55.9993Z" fill="black"/>
<path d="M28.0008 55.9993H24.0005V59.9987H28.0008V55.9993Z" fill="#A3A3A3"/>
<path d="M31.9999 55.9993H28.0005V59.9987H31.9999V55.9993Z" fill="#F2F2F2"/>
<path d="M35.9999 55.9993H31.9995V59.9987H35.9999V55.9993Z" fill="#F2F2F2"/>
<path d="M40.0006 55.9993H36.0002V59.9987H40.0006V55.9993Z" fill="#F2F2F2"/>
<path d="M43.9992 55.9993H39.9998V59.9987H43.9992V55.9993Z" fill="#F2F2F2"/>
<path d="M48.0004 55.9993H44V59.9987H48.0004V55.9993Z" fill="black"/>
<path d="M51.9999 55.9993H47.9995V59.9987H51.9999V55.9993Z" fill="#A3A3A3"/>
<path d="M56.0004 55.9993H52V59.9987H56.0004V55.9993Z" fill="#A3A3A3"/>
<path d="M59.9997 55.9993H56.0002V59.9987H59.9997V55.9993Z" fill="#A3A3A3"/>
<path d="M64.0004 55.9993H60V59.9987H64.0004V55.9993Z" fill="#F2F2F2"/>
<path d="M68.0008 55.9993H64.0005V59.9987H68.0008V55.9993Z" fill="#F2F2F2"/>
<path d="M72.0011 55.9993H68.0007V59.9987H72.0011V55.9993Z" fill="#F2F2F2"/>
<path d="M75.9997 55.9993H72.0002V59.9987H75.9997V55.9993Z" fill="#F2F2F2"/>
<path d="M80.0008 55.9993H76.0005V59.9987H80.0008V55.9993Z" fill="#F2F2F2"/>
<path d="M83.9999 55.9993H79.9995V59.9987H83.9999V55.9993Z" fill="black"/>
<path d="M87.9994 55.9993H84V59.9987H87.9994V55.9993Z" fill="black"/>
<path d="M91.9996 55.9993H87.9993V59.9987H91.9996V55.9993Z" fill="black"/>
<path d="M95.9999 55.9993H91.9995V59.9987H95.9999V55.9993Z" fill="#F2F2F2"/>
<path d="M99.9994 55.9993H96V59.9987H99.9994V55.9993Z" fill="#F2F2F2"/>
<path d="M104 55.9993H99.9995V59.9987H104V55.9993Z" fill="#F2F2F2"/>
<path d="M108 55.9993H104V59.9987H108V55.9993Z" fill="#A3A3A3"/>
<path d="M112 55.9993H108V59.9987H112V55.9993Z" fill="black"/>
<path d="M4.00035 59.9996H0V64H4.00035V59.9996Z" fill="black"/>
<path d="M7.99992 59.9996H4.00049V64H7.99992V59.9996Z" fill="#033FC0"/>
<path d="M12.0001 59.9996H7.99976V64H12.0001V59.9996Z" fill="black"/>
<path d="M16.0008 59.9996H12.0005V64H16.0008V59.9996Z" fill="#033FC0"/>
<path d="M20.0004 59.9996H16.001V64H20.0004V59.9996Z" fill="black"/>
<path d="M24.0006 59.9996H20.0002V64H24.0006V59.9996Z" fill="black"/>
<path d="M28.0008 59.9996H24.0005V64H28.0008V59.9996Z" fill="#A3A3A3"/>
<path d="M31.9999 59.9996H28.0005V64H31.9999V59.9996Z" fill="#A3A3A3"/>
<path d="M35.9999 59.9996H31.9995V64H35.9999V59.9996Z" fill="#F2F2F2"/>
<path d="M40.0006 59.9996H36.0002V64H40.0006V59.9996Z" fill="#A3A3A3"/>
<path d="M43.9992 59.9996H39.9998V64H43.9992V59.9996Z" fill="#F2F2F2"/>
<path d="M48.0004 59.9996H44V64H48.0004V59.9996Z" fill="#F2F2F2"/>
<path d="M51.9999 59.9996H47.9995V64H51.9999V59.9996Z" fill="black"/>
<path d="M56.0004 59.9996H52V64H56.0004V59.9996Z" fill="black"/>
<path d="M59.9997 59.9996H56.0002V64H59.9997V59.9996Z" fill="black"/>
<path d="M64.0004 59.9996H60V64H64.0004V59.9996Z" fill="#A3A3A3"/>
<path d="M68.0008 59.9996H64.0005V64H68.0008V59.9996Z" fill="#A3A3A3"/>
<path d="M72.0011 59.9996H68.0007V64H72.0011V59.9996Z" fill="#A3A3A3"/>
<path d="M75.9997 59.9996H72.0002V64H75.9997V59.9996Z" fill="#A3A3A3"/>
<path d="M80.0008 59.9996H76.0005V64H80.0008V59.9996Z" fill="black"/>
<path d="M83.9999 59.9996H79.9995V64H83.9999V59.9996Z" fill="#F2F2F2"/>
<path d="M87.9994 59.9996H84V64H87.9994V59.9996Z" fill="#F2F2F2"/>
<path d="M91.9996 59.9996H87.9993V64H91.9996V59.9996Z" fill="#F2F2F2"/>
<path d="M95.9999 59.9996H91.9995V64H95.9999V59.9996Z" fill="#F2F2F2"/>
<path d="M99.9994 59.9996H96V64H99.9994V59.9996Z" fill="#A3A3A3"/>
<path d="M104 59.9996H99.9995V64H104V59.9996Z" fill="#A3A3A3"/>
<path d="M108 59.9996H104V64H108V59.9996Z" fill="black"/>
<path d="M4.00035 63.9993H0V67.9996H4.00035V63.9993Z" fill="black"/>
<path d="M7.99992 63.9993H4.00049V67.9996H7.99992V63.9993Z" fill="black"/>
<path d="M12.0001 63.9993H7.99976V67.9996H12.0001V63.9993Z" fill="#033FC0"/>
<path d="M16.0008 63.9993H12.0005V67.9996H16.0008V63.9993Z" fill="black"/>
<path d="M20.0004 63.9993H16.001V67.9996H20.0004V63.9993Z" fill="#033FC0"/>
<path d="M24.0006 63.9993H20.0002V67.9996H24.0006V63.9993Z" fill="black"/>
<path d="M28.0008 63.9993H24.0005V67.9996H28.0008V63.9993Z" fill="#A3A3A3"/>
<path d="M31.9999 63.9993H28.0005V67.9996H31.9999V63.9993Z" fill="#F2F2F2"/>
<path d="M35.9999 63.9993H31.9995V67.9996H35.9999V63.9993Z" fill="#A3A3A3"/>
<path d="M40.0006 63.9993H36.0002V67.9996H40.0006V63.9993Z" fill="#F2F2F2"/>
<path d="M43.9992 63.9993H39.9998V67.9996H43.9992V63.9993Z" fill="#A3A3A3"/>
<path d="M48.0004 63.9993H44V67.9996H48.0004V63.9993Z" fill="#F2F2F2"/>
<path d="M51.9999 63.9993H47.9995V67.9996H51.9999V63.9993Z" fill="#F2F2F2"/>
<path d="M56.0004 63.9993H52V67.9996H56.0004V63.9993Z" fill="#F2F2F2"/>
<path d="M59.9997 63.9993H56.0002V67.9996H59.9997V63.9993Z" fill="#F2F2F2"/>
<path d="M64.0004 63.9993H60V67.9996H64.0004V63.9993Z" fill="black"/>
<path d="M68.0008 63.9993H64.0005V67.9996H68.0008V63.9993Z" fill="black"/>
<path d="M72.0011 63.9993H68.0007V67.9996H72.0011V63.9993Z" fill="black"/>
<path d="M75.9997 63.9993H72.0002V67.9996H75.9997V63.9993Z" fill="black"/>
<path d="M80.0008 63.9993H76.0005V67.9996H80.0008V63.9993Z" fill="#F2F2F2"/>
<path d="M83.9999 63.9993H79.9995V67.9996H83.9999V63.9993Z" fill="#F2F2F2"/>
<path d="M87.9994 63.9993H84V67.9996H87.9994V63.9993Z" fill="#F2F2F2"/>
<path d="M91.9996 63.9993H87.9993V67.9996H91.9996V63.9993Z" fill="#A3A3A3"/>
<path d="M95.9999 63.9993H91.9995V67.9996H95.9999V63.9993Z" fill="#A3A3A3"/>
<path d="M99.9994 63.9993H96V67.9996H99.9994V63.9993Z" fill="black"/>
<path d="M104 63.9993H99.9995V67.9996H104V63.9993Z" fill="black"/>
<path d="M4.00035 67.9996H0V72H4.00035V67.9996Z" fill="black"/>
<path d="M7.99992 67.9996H4.00049V72H7.99992V67.9996Z" fill="black"/>
<path d="M12.0001 67.9996H7.99976V72H12.0001V67.9996Z" fill="black"/>
<path d="M16.0008 67.9996H12.0005V72H16.0008V67.9996Z" fill="#033FC0"/>
<path d="M20.0004 67.9996H16.001V72H20.0004V67.9996Z" fill="black"/>
<path d="M24.0006 67.9996H20.0002V72H24.0006V67.9996Z" fill="black"/>
<path d="M28.0008 67.9996H24.0005V72H28.0008V67.9996Z" fill="black"/>
<path d="M31.9999 67.9996H28.0005V72H31.9999V67.9996Z" fill="#A3A3A3"/>
<path d="M35.9999 67.9996H31.9995V72H35.9999V67.9996Z" fill="#A3A3A3"/>
<path d="M40.0006 67.9996H36.0002V72H40.0006V67.9996Z" fill="#A3A3A3"/>
<path d="M43.9992 67.9996H39.9998V72H43.9992V67.9996Z" fill="#F2F2F2"/>
<path d="M48.0004 67.9996H44V72H48.0004V67.9996Z" fill="#A3A3A3"/>
<path d="M51.9999 67.9996H47.9995V72H51.9999V67.9996Z" fill="#F2F2F2"/>
<path d="M56.0004 67.9996H52V72H56.0004V67.9996Z" fill="#F2F2F2"/>
<path d="M59.9997 67.9996H56.0002V72H59.9997V67.9996Z" fill="#F2F2F2"/>
<path d="M64.0004 67.9996H60V72H64.0004V67.9996Z" fill="#F2F2F2"/>
<path d="M68.0008 67.9996H64.0005V72H68.0008V67.9996Z" fill="#F2F2F2"/>
<path d="M72.0011 67.9996H68.0007V72H72.0011V67.9996Z" fill="#F2F2F2"/>
<path d="M75.9997 67.9996H72.0002V72H75.9997V67.9996Z" fill="#F2F2F2"/>
<path d="M80.0008 67.9996H76.0005V72H80.0008V67.9996Z" fill="#F2F2F2"/>
<path d="M83.9999 67.9996H79.9995V72H83.9999V67.9996Z" fill="#A3A3A3"/>
<path d="M87.9994 67.9996H84V72H87.9994V67.9996Z" fill="#A3A3A3"/>
<path d="M91.9996 67.9996H87.9993V72H91.9996V67.9996Z" fill="black"/>
<path d="M95.9999 67.9996H91.9995V72H95.9999V67.9996Z" fill="black"/>
<path d="M4.00035 71.9998H0V76.0001H4.00035V71.9998Z" fill="black"/>
<path d="M7.99992 71.9998H4.00049V76.0001H7.99992V71.9998Z" fill="black"/>
<path d="M12.0001 71.9998H7.99976V76.0001H12.0001V71.9998Z" fill="black"/>
<path d="M16.0008 71.9998H12.0005V76.0001H16.0008V71.9998Z" fill="black"/>
<path d="M20.0004 71.9998H16.001V76.0001H20.0004V71.9998Z" fill="#033FC0"/>
<path d="M24.0006 71.9998H20.0002V76.0001H24.0006V71.9998Z" fill="black"/>
<path d="M31.9999 71.9998H28.0005V76.0001H31.9999V71.9998Z" fill="black"/>
<path d="M35.9999 71.9998H31.9995V76.0001H35.9999V71.9998Z" fill="black"/>
<path d="M40.0006 71.9998H36.0002V76.0001H40.0006V71.9998Z" fill="black"/>
<path d="M43.9992 71.9998H39.9998V76.0001H43.9992V71.9998Z" fill="#A3A3A3"/>
<path d="M48.0004 71.9998H44V76.0001H48.0004V71.9998Z" fill="#A3A3A3"/>
<path d="M51.9999 71.9998H47.9995V76.0001H51.9999V71.9998Z" fill="#A3A3A3"/>
<path d="M56.0004 71.9998H52V76.0001H56.0004V71.9998Z" fill="#A3A3A3"/>
<path d="M59.9997 71.9998H56.0002V76.0001H59.9997V71.9998Z" fill="#A3A3A3"/>
<path d="M64.0004 71.9998H60V76.0001H64.0004V71.9998Z" fill="#A3A3A3"/>
<path d="M68.0008 71.9998H64.0005V76.0001H68.0008V71.9998Z" fill="#A3A3A3"/>
<path d="M72.0011 71.9998H68.0007V76.0001H72.0011V71.9998Z" fill="#A3A3A3"/>
<path d="M75.9997 71.9998H72.0002V76.0001H75.9997V71.9998Z" fill="#A3A3A3"/>
<path d="M80.0008 71.9998H76.0005V76.0001H80.0008V71.9998Z" fill="#A3A3A3"/>
<path d="M83.9999 71.9998H79.9995V76.0001H83.9999V71.9998Z" fill="black"/>
<path d="M87.9994 71.9998H84V76.0001H87.9994V71.9998Z" fill="black"/>
<path d="M4.00035 76.0002H0V79.9997H4.00035V76.0002Z" fill="black"/>
<path d="M7.99992 76.0002H4.00049V79.9997H7.99992V76.0002Z" fill="black"/>
<path d="M12.0001 76.0002H7.99976V79.9997H12.0001V76.0002Z" fill="black"/>
<path d="M16.0008 76.0002H12.0005V79.9997H16.0008V76.0002Z" fill="black"/>
<path d="M20.0004 76.0002H16.001V79.9997H20.0004V76.0002Z" fill="black"/>
<path d="M43.9992 76.0002H39.9998V79.9997H43.9992V76.0002Z" fill="black"/>
<path d="M48.0004 76.0002H44V79.9997H48.0004V76.0002Z" fill="black"/>
<path d="M51.9999 76.0002H47.9995V79.9997H51.9999V76.0002Z" fill="black"/>
<path d="M56.0004 76.0002H52V79.9997H56.0004V76.0002Z" fill="black"/>
<path d="M59.9997 76.0002H56.0002V79.9997H59.9997V76.0002Z" fill="black"/>
<path d="M64.0004 76.0002H60V79.9997H64.0004V76.0002Z" fill="black"/>
<path d="M68.0008 76.0002H64.0005V79.9997H68.0008V76.0002Z" fill="black"/>
<path d="M72.0011 76.0002H68.0007V79.9997H72.0011V76.0002Z" fill="black"/>
<path d="M75.9997 76.0002H72.0002V79.9997H75.9997V76.0002Z" fill="black"/>
<path d="M80.0008 76.0002H76.0005V79.9997H80.0008V76.0002Z" fill="black"/>
<path d="M4.00035 79.9995H0V83.9999H4.00035V79.9995Z" fill="black"/>
<path d="M7.99992 79.9995H4.00049V83.9999H7.99992V79.9995Z" fill="black"/>
<path d="M12.0001 79.9995H7.99976V83.9999H12.0001V79.9995Z" fill="black"/>
<path d="M16.0008 79.9995H12.0005V83.9999H16.0008V79.9995Z" fill="black"/>
</svg>
