<svg width="112" height="112" viewBox="0 0 112 112" fill="none" xmlns="http://www.w3.org/2000/svg">
<path d="M19.9998 13H17V15.9998H19.9998V13Z" fill="black"/>
<path d="M23.0001 13H20.0002V15.9998H23.0001V13Z" fill="black"/>
<path d="M26.0001 13H23.0002V15.9998H26.0001V13Z" fill="black"/>
<path d="M29.0003 13H26.0005V15.9998H29.0003V13Z" fill="black"/>
<path d="M31.9991 13H28.9993V15.9998H31.9991V13Z" fill="black"/>
<path d="M35.0006 13H32.0007V15.9998H35.0006V13Z" fill="black"/>
<path d="M38.0006 13H35.0007V15.9998H38.0006V13Z" fill="black"/>
<path d="M41.0008 13H38.001V15.9998H41.0008V13Z" fill="black"/>
<path d="M43.9996 13H40.9998V15.9998H43.9996V13Z" fill="black"/>
<path d="M46.9996 13H43.9998V15.9998H46.9996V13Z" fill="black"/>
<path d="M49.9998 13H47V15.9998H49.9998V13Z" fill="black"/>
<path d="M53.0008 13H50.001V15.9998H53.0008V13Z" fill="black"/>
<path d="M55.9998 13H53V15.9998H55.9998V13Z" fill="black"/>
<path d="M58.9998 13H56V15.9998H58.9998V13Z" fill="black"/>
<path d="M62.0001 13H59.0002V15.9998H62.0001V13Z" fill="black"/>
<path d="M65.0001 13H62.0002V15.9998H65.0001V13Z" fill="black"/>
<path d="M67.9991 13H64.9993V15.9998H67.9991V13Z" fill="black"/>
<path d="M71.0001 13H68.0002V15.9998H71.0001V13Z" fill="black"/>
<path d="M74.0001 13H71.0002V15.9998H74.0001V13Z" fill="black"/>
<path d="M77.0006 13H74.0007V15.9998H77.0006V13Z" fill="black"/>
<path d="M79.9996 13H76.9998V15.9998H79.9996V13Z" fill="black"/>
<path d="M82.9996 13H79.9998V15.9998H82.9996V13Z" fill="black"/>
<path d="M85.9996 13H82.9998V15.9998H85.9996V13Z" fill="black"/>
<path d="M88.9998 13H86V15.9998H88.9998V13Z" fill="black"/>
<path d="M91.9998 13H89V15.9998H91.9998V13Z" fill="black"/>
<path d="M94.9998 13H92V15.9998H94.9998V13Z" fill="black"/>
<path d="M97.9998 13H95V15.9998H97.9998V13Z" fill="black"/>
<path d="M101 13H98V15.9998H101V13Z" fill="black"/>
<path d="M17.0003 15.9998H14.0005V18.9997H17.0003V15.9998Z" fill="black"/>
<path d="M19.9998 15.9998H17V18.9997H19.9998V15.9998Z" fill="#A3A3A3"/>
<path d="M23.0001 15.9998H20.0002V18.9997H23.0001V15.9998Z" fill="#A3A3A3"/>
<path d="M26.0001 15.9998H23.0002V18.9997H26.0001V15.9998Z" fill="#A3A3A3"/>
<path d="M29.0003 15.9998H26.0005V18.9997H29.0003V15.9998Z" fill="#A3A3A3"/>
<path d="M31.9991 15.9998H28.9993V18.9997H31.9991V15.9998Z" fill="#A3A3A3"/>
<path d="M35.0006 15.9998H32.0007V18.9997H35.0006V15.9998Z" fill="#A3A3A3"/>
<path d="M38.0006 15.9998H35.0007V18.9997H38.0006V15.9998Z" fill="#A3A3A3"/>
<path d="M41.0008 15.9998H38.001V18.9997H41.0008V15.9998Z" fill="#A3A3A3"/>
<path d="M43.9996 15.9998H40.9998V18.9997H43.9996V15.9998Z" fill="#A3A3A3"/>
<path d="M46.9996 15.9998H43.9998V18.9997H46.9996V15.9998Z" fill="#A3A3A3"/>
<path d="M49.9998 15.9998H47V18.9997H49.9998V15.9998Z" fill="#A3A3A3"/>
<path d="M53.0008 15.9998H50.001V18.9997H53.0008V15.9998Z" fill="#A3A3A3"/>
<path d="M55.9998 15.9998H53V18.9997H55.9998V15.9998Z" fill="#A3A3A3"/>
<path d="M58.9998 15.9998H56V18.9997H58.9998V15.9998Z" fill="#A3A3A3"/>
<path d="M62.0001 15.9998H59.0002V18.9997H62.0001V15.9998Z" fill="#A3A3A3"/>
<path d="M65.0001 15.9998H62.0002V18.9997H65.0001V15.9998Z" fill="#A3A3A3"/>
<path d="M67.9991 15.9998H64.9993V18.9997H67.9991V15.9998Z" fill="#A3A3A3"/>
<path d="M71.0001 15.9998H68.0002V18.9997H71.0001V15.9998Z" fill="#A3A3A3"/>
<path d="M74.0001 15.9998H71.0002V18.9997H74.0001V15.9998Z" fill="#A3A3A3"/>
<path d="M77.0006 15.9998H74.0007V18.9997H77.0006V15.9998Z" fill="#A3A3A3"/>
<path d="M79.9996 15.9998H76.9998V18.9997H79.9996V15.9998Z" fill="#A3A3A3"/>
<path d="M82.9996 15.9998H79.9998V18.9997H82.9996V15.9998Z" fill="#A3A3A3"/>
<path d="M85.9996 15.9998H82.9998V18.9997H85.9996V15.9998Z" fill="#A3A3A3"/>
<path d="M88.9998 15.9998H86V18.9997H88.9998V15.9998Z" fill="#A3A3A3"/>
<path d="M91.9998 15.9998H89V18.9997H91.9998V15.9998Z" fill="#A3A3A3"/>
<path d="M94.9998 15.9998H92V18.9997H94.9998V15.9998Z" fill="#A3A3A3"/>
<path d="M97.9998 15.9998H95V18.9997H97.9998V15.9998Z" fill="#A3A3A3"/>
<path d="M101 15.9998H98V18.9997H101V15.9998Z" fill="#A3A3A3"/>
<path d="M104 15.9998H101V18.9997H104V15.9998Z" fill="black"/>
<path d="M17.0003 18.9996H14.0005V21.9995H17.0003V18.9996Z" fill="black"/>
<path d="M19.9998 18.9996H17V21.9995H19.9998V18.9996Z" fill="#0051FF"/>
<path d="M23.0001 18.9996H20.0002V21.9995H23.0001V18.9996Z" fill="#0051FF"/>
<path d="M26.0001 18.9996H23.0002V21.9995H26.0001V18.9996Z" fill="#0051FF"/>
<path d="M29.0003 18.9996H26.0005V21.9995H29.0003V18.9996Z" fill="#0051FF"/>
<path d="M31.9991 18.9996H28.9993V21.9995H31.9991V18.9996Z" fill="#0051FF"/>
<path d="M35.0006 18.9996H32.0007V21.9995H35.0006V18.9996Z" fill="#0051FF"/>
<path d="M38.0006 18.9996H35.0007V21.9995H38.0006V18.9996Z" fill="#0051FF"/>
<path d="M41.0008 18.9996H38.001V21.9995H41.0008V18.9996Z" fill="#0051FF"/>
<path d="M43.9996 18.9996H40.9998V21.9995H43.9996V18.9996Z" fill="#0051FF"/>
<path d="M46.9996 18.9996H43.9998V21.9995H46.9996V18.9996Z" fill="#0051FF"/>
<path d="M49.9998 18.9996H47V21.9995H49.9998V18.9996Z" fill="#0051FF"/>
<path d="M53.0008 18.9996H50.001V21.9995H53.0008V18.9996Z" fill="#0051FF"/>
<path d="M55.9998 18.9996H53V21.9995H55.9998V18.9996Z" fill="#0051FF"/>
<path d="M58.9998 18.9996H56V21.9995H58.9998V18.9996Z" fill="#0051FF"/>
<path d="M62.0001 18.9996H59.0002V21.9995H62.0001V18.9996Z" fill="#0051FF"/>
<path d="M65.0001 18.9996H62.0002V21.9995H65.0001V18.9996Z" fill="#0051FF"/>
<path d="M67.9991 18.9996H64.9993V21.9995H67.9991V18.9996Z" fill="#0051FF"/>
<path d="M71.0001 18.9996H68.0002V21.9995H71.0001V18.9996Z" fill="#0051FF"/>
<path d="M74.0001 18.9996H71.0002V21.9995H74.0001V18.9996Z" fill="#0051FF"/>
<path d="M77.0006 18.9996H74.0007V21.9995H77.0006V18.9996Z" fill="#0051FF"/>
<path d="M79.9996 18.9996H76.9998V21.9995H79.9996V18.9996Z" fill="#0051FF"/>
<path d="M82.9996 18.9996H79.9998V21.9995H82.9996V18.9996Z" fill="#0051FF"/>
<path d="M85.9996 18.9996H82.9998V21.9995H85.9996V18.9996Z" fill="#0051FF"/>
<path d="M88.9998 18.9996H86V21.9995H88.9998V18.9996Z" fill="#0051FF"/>
<path d="M91.9998 18.9996H89V21.9995H91.9998V18.9996Z" fill="#0051FF"/>
<path d="M94.9998 18.9996H92V21.9995H94.9998V18.9996Z" fill="#0051FF"/>
<path d="M97.9998 18.9996H95V21.9995H97.9998V18.9996Z" fill="#0051FF"/>
<path d="M101 18.9996H98V21.9995H101V18.9996Z" fill="#033FC0"/>
<path d="M104 18.9996H101V21.9995H104V18.9996Z" fill="black"/>
<path d="M17.0003 21.9995H14.0005V24.9993H17.0003V21.9995Z" fill="black"/>
<path d="M19.9998 21.9995H17V24.9993H19.9998V21.9995Z" fill="#0051FF"/>
<path d="M23.0001 21.9995H20.0002V24.9993H23.0001V21.9995Z" fill="#0051FF"/>
<path d="M26.0001 21.9995H23.0002V24.9993H26.0001V21.9995Z" fill="#0051FF"/>
<path d="M29.0003 21.9995H26.0005V24.9993H29.0003V21.9995Z" fill="#0051FF"/>
<path d="M31.9991 21.9995H28.9993V24.9993H31.9991V21.9995Z" fill="#0051FF"/>
<path d="M35.0006 21.9995H32.0007V24.9993H35.0006V21.9995Z" fill="#0051FF"/>
<path d="M38.0006 21.9995H35.0007V24.9993H38.0006V21.9995Z" fill="#0051FF"/>
<path d="M41.0008 21.9995H38.001V24.9993H41.0008V21.9995Z" fill="#0051FF"/>
<path d="M43.9996 21.9995H40.9998V24.9993H43.9996V21.9995Z" fill="#0051FF"/>
<path d="M46.9996 21.9995H43.9998V24.9993H46.9996V21.9995Z" fill="#0051FF"/>
<path d="M49.9998 21.9995H47V24.9993H49.9998V21.9995Z" fill="#0051FF"/>
<path d="M53.0008 21.9995H50.001V24.9993H53.0008V21.9995Z" fill="#0051FF"/>
<path d="M55.9998 21.9995H53V24.9993H55.9998V21.9995Z" fill="#0051FF"/>
<path d="M58.9998 21.9995H56V24.9993H58.9998V21.9995Z" fill="#0051FF"/>
<path d="M62.0001 21.9995H59.0002V24.9993H62.0001V21.9995Z" fill="#0051FF"/>
<path d="M65.0001 21.9995H62.0002V24.9993H65.0001V21.9995Z" fill="#0051FF"/>
<path d="M67.9991 21.9995H64.9993V24.9993H67.9991V21.9995Z" fill="#0051FF"/>
<path d="M71.0001 21.9995H68.0002V24.9993H71.0001V21.9995Z" fill="#0051FF"/>
<path d="M74.0001 21.9995H71.0002V24.9993H74.0001V21.9995Z" fill="#0051FF"/>
<path d="M77.0006 21.9995H74.0007V24.9993H77.0006V21.9995Z" fill="#0051FF"/>
<path d="M79.9996 21.9995H76.9998V24.9993H79.9996V21.9995Z" fill="#0051FF"/>
<path d="M82.9996 21.9995H79.9998V24.9993H82.9996V21.9995Z" fill="#0051FF"/>
<path d="M85.9996 21.9995H82.9998V24.9993H85.9996V21.9995Z" fill="#0051FF"/>
<path d="M88.9998 21.9995H86V24.9993H88.9998V21.9995Z" fill="#0051FF"/>
<path d="M91.9998 21.9995H89V24.9993H91.9998V21.9995Z" fill="#0051FF"/>
<path d="M94.9998 21.9995H92V24.9993H94.9998V21.9995Z" fill="#0051FF"/>
<path d="M97.9998 21.9995H95V24.9993H97.9998V21.9995Z" fill="#0051FF"/>
<path d="M101 21.9995H98V24.9993H101V21.9995Z" fill="#033FC0"/>
<path d="M104 21.9995H101V24.9993H104V21.9995Z" fill="black"/>
<path d="M17.0003 25.0002H14.0005V28.0001H17.0003V25.0002Z" fill="black"/>
<path d="M19.9998 25.0002H17V28.0001H19.9998V25.0002Z" fill="#0051FF"/>
<path d="M23.0001 25.0002H20.0002V28.0001H23.0001V25.0002Z" fill="#0051FF"/>
<path d="M26.0001 25.0002H23.0002V28.0001H26.0001V25.0002Z" fill="#0051FF"/>
<path d="M29.0003 25.0002H26.0005V28.0001H29.0003V25.0002Z" fill="#0051FF"/>
<path d="M31.9991 25.0002H28.9993V28.0001H31.9991V25.0002Z" fill="#0051FF"/>
<path d="M35.0006 25.0002H32.0007V28.0001H35.0006V25.0002Z" fill="#0051FF"/>
<path d="M38.0006 25.0002H35.0007V28.0001H38.0006V25.0002Z" fill="#0051FF"/>
<path d="M41.0008 25.0002H38.001V28.0001H41.0008V25.0002Z" fill="#0051FF"/>
<path d="M43.9996 25.0002H40.9998V28.0001H43.9996V25.0002Z" fill="#0051FF"/>
<path d="M46.9996 25.0002H43.9998V28.0001H46.9996V25.0002Z" fill="#0051FF"/>
<path d="M49.9998 25.0002H47V28.0001H49.9998V25.0002Z" fill="#0051FF"/>
<path d="M53.0008 25.0002H50.001V28.0001H53.0008V25.0002Z" fill="#0051FF"/>
<path d="M55.9998 25.0002H53V28.0001H55.9998V25.0002Z" fill="#0051FF"/>
<path d="M58.9998 25.0002H56V28.0001H58.9998V25.0002Z" fill="#0051FF"/>
<path d="M62.0001 25.0002H59.0002V28.0001H62.0001V25.0002Z" fill="#0051FF"/>
<path d="M65.0001 25.0002H62.0002V28.0001H65.0001V25.0002Z" fill="#0051FF"/>
<path d="M67.9991 25.0002H64.9993V28.0001H67.9991V25.0002Z" fill="#0051FF"/>
<path d="M71.0001 25.0002H68.0002V28.0001H71.0001V25.0002Z" fill="#0051FF"/>
<path d="M74.0001 25.0002H71.0002V28.0001H74.0001V25.0002Z" fill="#0051FF"/>
<path d="M77.0006 25.0002H74.0007V28.0001H77.0006V25.0002Z" fill="#0051FF"/>
<path d="M79.9996 25.0002H76.9998V28.0001H79.9996V25.0002Z" fill="#0051FF"/>
<path d="M82.9996 25.0002H79.9998V28.0001H82.9996V25.0002Z" fill="#0051FF"/>
<path d="M85.9996 25.0002H82.9998V28.0001H85.9996V25.0002Z" fill="#0051FF"/>
<path d="M88.9998 25.0002H86V28.0001H88.9998V25.0002Z" fill="#0051FF"/>
<path d="M91.9998 25.0002H89V28.0001H91.9998V25.0002Z" fill="#0051FF"/>
<path d="M94.9998 25.0002H92V28.0001H94.9998V25.0002Z" fill="#0051FF"/>
<path d="M97.9998 25.0002H95V28.0001H97.9998V25.0002Z" fill="#0051FF"/>
<path d="M101 25.0002H98V28.0001H101V25.0002Z" fill="#033FC0"/>
<path d="M104 25.0002H101V28.0001H104V25.0002Z" fill="black"/>
<path d="M17.0003 28.0001H14.0005V30.9999H17.0003V28.0001Z" fill="black"/>
<path d="M19.9998 28.0001H17V30.9999H19.9998V28.0001Z" fill="#033FC0"/>
<path d="M23.0001 28.0001H20.0002V30.9999H23.0001V28.0001Z" fill="#033FC0"/>
<path d="M26.0001 28.0001H23.0002V30.9999H26.0001V28.0001Z" fill="#033FC0"/>
<path d="M29.0003 28.0001H26.0005V30.9999H29.0003V28.0001Z" fill="#033FC0"/>
<path d="M31.9991 28.0001H28.9993V30.9999H31.9991V28.0001Z" fill="#033FC0"/>
<path d="M35.0006 28.0001H32.0007V30.9999H35.0006V28.0001Z" fill="#033FC0"/>
<path d="M38.0006 28.0001H35.0007V30.9999H38.0006V28.0001Z" fill="#033FC0"/>
<path d="M41.0008 28.0001H38.001V30.9999H41.0008V28.0001Z" fill="#033FC0"/>
<path d="M43.9996 28.0001H40.9998V30.9999H43.9996V28.0001Z" fill="#033FC0"/>
<path d="M46.9996 28.0001H43.9998V30.9999H46.9996V28.0001Z" fill="#033FC0"/>
<path d="M49.9998 28.0001H47V30.9999H49.9998V28.0001Z" fill="#033FC0"/>
<path d="M53.0008 28.0001H50.001V30.9999H53.0008V28.0001Z" fill="#033FC0"/>
<path d="M55.9998 28.0001H53V30.9999H55.9998V28.0001Z" fill="#033FC0"/>
<path d="M58.9998 28.0001H56V30.9999H58.9998V28.0001Z" fill="#033FC0"/>
<path d="M62.0001 28.0001H59.0002V30.9999H62.0001V28.0001Z" fill="#033FC0"/>
<path d="M65.0001 28.0001H62.0002V30.9999H65.0001V28.0001Z" fill="#033FC0"/>
<path d="M67.9991 28.0001H64.9993V30.9999H67.9991V28.0001Z" fill="#033FC0"/>
<path d="M71.0001 28.0001H68.0002V30.9999H71.0001V28.0001Z" fill="#033FC0"/>
<path d="M74.0001 28.0001H71.0002V30.9999H74.0001V28.0001Z" fill="#033FC0"/>
<path d="M77.0006 28.0001H74.0007V30.9999H77.0006V28.0001Z" fill="#033FC0"/>
<path d="M79.9996 28.0001H76.9998V30.9999H79.9996V28.0001Z" fill="#033FC0"/>
<path d="M82.9996 28.0001H79.9998V30.9999H82.9996V28.0001Z" fill="#033FC0"/>
<path d="M85.9996 28.0001H82.9998V30.9999H85.9996V28.0001Z" fill="#033FC0"/>
<path d="M88.9998 28.0001H86V30.9999H88.9998V28.0001Z" fill="#033FC0"/>
<path d="M91.9998 28.0001H89V30.9999H91.9998V28.0001Z" fill="#033FC0"/>
<path d="M94.9998 28.0001H92V30.9999H94.9998V28.0001Z" fill="#033FC0"/>
<path d="M97.9998 28.0001H95V30.9999H97.9998V28.0001Z" fill="#033FC0"/>
<path d="M101 28.0001H98V30.9999H101V28.0001Z" fill="#033FC0"/>
<path d="M104 28.0001H101V30.9999H104V28.0001Z" fill="black"/>
<path d="M17.0003 30.9999H14.0005V33.9998H17.0003V30.9999Z" fill="black"/>
<path d="M19.9998 30.9999H17V33.9998H19.9998V30.9999Z" fill="#A3A3A3"/>
<path d="M23.0001 30.9999H20.0002V33.9998H23.0001V30.9999Z" fill="#A3A3A3"/>
<path d="M26.0001 30.9999H23.0002V33.9998H26.0001V30.9999Z" fill="#A3A3A3"/>
<path d="M29.0003 30.9999H26.0005V33.9998H29.0003V30.9999Z" fill="#A3A3A3"/>
<path d="M31.9991 30.9999H28.9993V33.9998H31.9991V30.9999Z" fill="#A3A3A3"/>
<path d="M35.0006 30.9999H32.0007V33.9998H35.0006V30.9999Z" fill="#A3A3A3"/>
<path d="M38.0006 30.9999H35.0007V33.9998H38.0006V30.9999Z" fill="#A3A3A3"/>
<path d="M41.0008 30.9999H38.001V33.9998H41.0008V30.9999Z" fill="#A3A3A3"/>
<path d="M43.9996 30.9999H40.9998V33.9998H43.9996V30.9999Z" fill="#A3A3A3"/>
<path d="M46.9996 30.9999H43.9998V33.9998H46.9996V30.9999Z" fill="#A3A3A3"/>
<path d="M49.9998 30.9999H47V33.9998H49.9998V30.9999Z" fill="#A3A3A3"/>
<path d="M53.0008 30.9999H50.001V33.9998H53.0008V30.9999Z" fill="#A3A3A3"/>
<path d="M55.9998 30.9999H53V33.9998H55.9998V30.9999Z" fill="#A3A3A3"/>
<path d="M58.9998 30.9999H56V33.9998H58.9998V30.9999Z" fill="#A3A3A3"/>
<path d="M62.0001 30.9999H59.0002V33.9998H62.0001V30.9999Z" fill="#A3A3A3"/>
<path d="M65.0001 30.9999H62.0002V33.9998H65.0001V30.9999Z" fill="#A3A3A3"/>
<path d="M67.9991 30.9999H64.9993V33.9998H67.9991V30.9999Z" fill="#A3A3A3"/>
<path d="M71.0001 30.9999H68.0002V33.9998H71.0001V30.9999Z" fill="#A3A3A3"/>
<path d="M74.0001 30.9999H71.0002V33.9998H74.0001V30.9999Z" fill="#A3A3A3"/>
<path d="M77.0006 30.9999H74.0007V33.9998H77.0006V30.9999Z" fill="#A3A3A3"/>
<path d="M79.9996 30.9999H76.9998V33.9998H79.9996V30.9999Z" fill="#A3A3A3"/>
<path d="M82.9996 30.9999H79.9998V33.9998H82.9996V30.9999Z" fill="#A3A3A3"/>
<path d="M85.9996 30.9999H82.9998V33.9998H85.9996V30.9999Z" fill="#A3A3A3"/>
<path d="M88.9998 30.9999H86V33.9998H88.9998V30.9999Z" fill="#A3A3A3"/>
<path d="M91.9998 30.9999H89V33.9998H91.9998V30.9999Z" fill="#A3A3A3"/>
<path d="M94.9998 30.9999H92V33.9998H94.9998V30.9999Z" fill="#A3A3A3"/>
<path d="M97.9998 30.9999H95V33.9998H97.9998V30.9999Z" fill="#A3A3A3"/>
<path d="M101 30.9999H98V33.9998H101V30.9999Z" fill="#A3A3A3"/>
<path d="M104 30.9999H101V33.9998H104V30.9999Z" fill="black"/>
<path d="M17.0003 33.9997H14.0005V36.9995H17.0003V33.9997Z" fill="black"/>
<path d="M19.9998 33.9997H17V36.9995H19.9998V33.9997Z" fill="#F2F2F2"/>
<path d="M23.0001 33.9997H20.0002V36.9995H23.0001V33.9997Z" fill="#F2F2F2"/>
<path d="M26.0001 33.9997H23.0002V36.9995H26.0001V33.9997Z" fill="#F2F2F2"/>
<path d="M29.0003 33.9997H26.0005V36.9995H29.0003V33.9997Z" fill="#D3D3D3"/>
<path d="M31.9991 33.9997H28.9993V36.9995H31.9991V33.9997Z" fill="#F2F2F2"/>
<path d="M35.0006 33.9997H32.0007V36.9995H35.0006V33.9997Z" fill="#F2F2F2"/>
<path d="M38.0006 33.9997H35.0007V36.9995H38.0006V33.9997Z" fill="#F2F2F2"/>
<path d="M41.0008 33.9997H38.001V36.9995H41.0008V33.9997Z" fill="#F2F2F2"/>
<path d="M43.9996 33.9997H40.9998V36.9995H43.9996V33.9997Z" fill="#F2F2F2"/>
<path d="M46.9996 33.9997H43.9998V36.9995H46.9996V33.9997Z" fill="#D3D3D3"/>
<path d="M49.9998 33.9997H47V36.9995H49.9998V33.9997Z" fill="#F2F2F2"/>
<path d="M53.0008 33.9997H50.001V36.9995H53.0008V33.9997Z" fill="#F2F2F2"/>
<path d="M55.9998 33.9997H53V36.9995H55.9998V33.9997Z" fill="#F2F2F2"/>
<path d="M58.9998 33.9997H56V36.9995H58.9998V33.9997Z" fill="#F2F2F2"/>
<path d="M62.0001 33.9997H59.0002V36.9995H62.0001V33.9997Z" fill="#F2F2F2"/>
<path d="M65.0001 33.9997H62.0002V36.9995H65.0001V33.9997Z" fill="#D3D3D3"/>
<path d="M67.9991 33.9997H64.9993V36.9995H67.9991V33.9997Z" fill="#F2F2F2"/>
<path d="M71.0001 33.9997H68.0002V36.9995H71.0001V33.9997Z" fill="#F2F2F2"/>
<path d="M74.0001 33.9997H71.0002V36.9995H74.0001V33.9997Z" fill="#F2F2F2"/>
<path d="M77.0006 33.9997H74.0007V36.9995H77.0006V33.9997Z" fill="#F2F2F2"/>
<path d="M79.9996 33.9997H76.9998V36.9995H79.9996V33.9997Z" fill="#F2F2F2"/>
<path d="M82.9996 33.9997H79.9998V36.9995H82.9996V33.9997Z" fill="#D3D3D3"/>
<path d="M85.9996 33.9997H82.9998V36.9995H85.9996V33.9997Z" fill="#F2F2F2"/>
<path d="M88.9998 33.9997H86V36.9995H88.9998V33.9997Z" fill="#F2F2F2"/>
<path d="M91.9998 33.9997H89V36.9995H91.9998V33.9997Z" fill="#F2F2F2"/>
<path d="M94.9998 33.9997H92V36.9995H94.9998V33.9997Z" fill="#F2F2F2"/>
<path d="M97.9998 33.9997H95V36.9995H97.9998V33.9997Z" fill="#F2F2F2"/>
<path d="M101 33.9997H98V36.9995H101V33.9997Z" fill="#A3A3A3"/>
<path d="M104 33.9997H101V36.9995H104V33.9997Z" fill="black"/>
<path d="M17.0003 36.9996H14.0005V39.9994H17.0003V36.9996Z" fill="black"/>
<path d="M19.9998 36.9996H17V39.9994H19.9998V36.9996Z" fill="#F2F2F2"/>
<path d="M23.0001 36.9996H20.0002V39.9994H23.0001V36.9996Z" fill="#F2F2F2"/>
<path d="M26.0001 36.9996H23.0002V39.9994H26.0001V36.9996Z" fill="#F2F2F2"/>
<path d="M29.0003 36.9996H26.0005V39.9994H29.0003V36.9996Z" fill="#D3D3D3"/>
<path d="M31.9991 36.9996H28.9993V39.9994H31.9991V36.9996Z" fill="#F2F2F2"/>
<path d="M35.0006 36.9996H32.0007V39.9994H35.0006V36.9996Z" fill="#F2F2F2"/>
<path d="M38.0006 36.9996H35.0007V39.9994H38.0006V36.9996Z" fill="#F2F2F2"/>
<path d="M41.0008 36.9996H38.001V39.9994H41.0008V36.9996Z" fill="#F2F2F2"/>
<path d="M43.9996 36.9996H40.9998V39.9994H43.9996V36.9996Z" fill="#F2F2F2"/>
<path d="M46.9996 36.9996H43.9998V39.9994H46.9996V36.9996Z" fill="#D3D3D3"/>
<path d="M49.9998 36.9996H47V39.9994H49.9998V36.9996Z" fill="#F2F2F2"/>
<path d="M53.0008 36.9996H50.001V39.9994H53.0008V36.9996Z" fill="#F2F2F2"/>
<path d="M55.9998 36.9996H53V39.9994H55.9998V36.9996Z" fill="#F2F2F2"/>
<path d="M58.9998 36.9996H56V39.9994H58.9998V36.9996Z" fill="#F2F2F2"/>
<path d="M62.0001 36.9996H59.0002V39.9994H62.0001V36.9996Z" fill="#F2F2F2"/>
<path d="M65.0001 36.9996H62.0002V39.9994H65.0001V36.9996Z" fill="#D3D3D3"/>
<path d="M67.9991 36.9996H64.9993V39.9994H67.9991V36.9996Z" fill="#F2F2F2"/>
<path d="M71.0001 36.9996H68.0002V39.9994H71.0001V36.9996Z" fill="#F2F2F2"/>
<path d="M74.0001 36.9996H71.0002V39.9994H74.0001V36.9996Z" fill="#F2F2F2"/>
<path d="M77.0006 36.9996H74.0007V39.9994H77.0006V36.9996Z" fill="#F2F2F2"/>
<path d="M79.9996 36.9996H76.9998V39.9994H79.9996V36.9996Z" fill="#F2F2F2"/>
<path d="M82.9996 36.9996H79.9998V39.9994H82.9996V36.9996Z" fill="#D3D3D3"/>
<path d="M85.9996 36.9996H82.9998V39.9994H85.9996V36.9996Z" fill="#F2F2F2"/>
<path d="M88.9998 36.9996H86V39.9994H88.9998V36.9996Z" fill="#F2F2F2"/>
<path d="M91.9998 36.9996H89V39.9994H91.9998V36.9996Z" fill="#F2F2F2"/>
<path d="M94.9998 36.9996H92V39.9994H94.9998V36.9996Z" fill="#F2F2F2"/>
<path d="M97.9998 36.9996H95V39.9994H97.9998V36.9996Z" fill="#F2F2F2"/>
<path d="M101 36.9996H98V39.9994H101V36.9996Z" fill="#A3A3A3"/>
<path d="M104 36.9996H101V39.9994H104V36.9996Z" fill="black"/>
<path d="M17.0003 39.9995H14.0005V42.9993H17.0003V39.9995Z" fill="black"/>
<path d="M19.9998 39.9995H17V42.9993H19.9998V39.9995Z" fill="#F2F2F2"/>
<path d="M23.0001 39.9995H20.0002V42.9993H23.0001V39.9995Z" fill="#F2F2F2"/>
<path d="M26.0001 39.9995H23.0002V42.9993H26.0001V39.9995Z" fill="#F2F2F2"/>
<path d="M29.0003 39.9995H26.0005V42.9993H29.0003V39.9995Z" fill="#D3D3D3"/>
<path d="M31.9991 39.9995H28.9993V42.9993H31.9991V39.9995Z" fill="#F2F2F2"/>
<path d="M35.0006 39.9995H32.0007V42.9993H35.0006V39.9995Z" fill="#F2F2F2"/>
<path d="M38.0006 39.9995H35.0007V42.9993H38.0006V39.9995Z" fill="#F2F2F2"/>
<path d="M41.0008 39.9995H38.001V42.9993H41.0008V39.9995Z" fill="#F2F2F2"/>
<path d="M43.9996 39.9995H40.9998V42.9993H43.9996V39.9995Z" fill="#F2F2F2"/>
<path d="M46.9996 39.9995H43.9998V42.9993H46.9996V39.9995Z" fill="#D3D3D3"/>
<path d="M49.9998 39.9995H47V42.9993H49.9998V39.9995Z" fill="#F2F2F2"/>
<path d="M53.0008 39.9995H50.001V42.9993H53.0008V39.9995Z" fill="#F2F2F2"/>
<path d="M55.9998 39.9995H53V42.9993H55.9998V39.9995Z" fill="#F2F2F2"/>
<path d="M58.9998 39.9995H56V42.9993H58.9998V39.9995Z" fill="#F2F2F2"/>
<path d="M62.0001 39.9995H59.0002V42.9993H62.0001V39.9995Z" fill="#F2F2F2"/>
<path d="M65.0001 39.9995H62.0002V42.9993H65.0001V39.9995Z" fill="#D3D3D3"/>
<path d="M67.9991 39.9995H64.9993V42.9993H67.9991V39.9995Z" fill="#F2F2F2"/>
<path d="M71.0001 39.9995H68.0002V42.9993H71.0001V39.9995Z" fill="#F2F2F2"/>
<path d="M74.0001 39.9995H71.0002V42.9993H74.0001V39.9995Z" fill="#F2F2F2"/>
<path d="M77.0006 39.9995H74.0007V42.9993H77.0006V39.9995Z" fill="#F2F2F2"/>
<path d="M79.9996 39.9995H76.9998V42.9993H79.9996V39.9995Z" fill="#F2F2F2"/>
<path d="M82.9996 39.9995H79.9998V42.9993H82.9996V39.9995Z" fill="#D3D3D3"/>
<path d="M85.9996 39.9995H82.9998V42.9993H85.9996V39.9995Z" fill="#F2F2F2"/>
<path d="M88.9998 39.9995H86V42.9993H88.9998V39.9995Z" fill="#F2F2F2"/>
<path d="M91.9998 39.9995H89V42.9993H91.9998V39.9995Z" fill="#F2F2F2"/>
<path d="M94.9998 39.9995H92V42.9993H94.9998V39.9995Z" fill="#F2F2F2"/>
<path d="M97.9998 39.9995H95V42.9993H97.9998V39.9995Z" fill="#F2F2F2"/>
<path d="M101 39.9995H98V42.9993H101V39.9995Z" fill="#A3A3A3"/>
<path d="M104 39.9995H101V42.9993H104V39.9995Z" fill="black"/>
<path d="M17.0003 43.0002H14.0005V46.0001H17.0003V43.0002Z" fill="black"/>
<path d="M19.9998 43.0002H17V46.0001H19.9998V43.0002Z" fill="#F2F2F2"/>
<path d="M23.0001 43.0002H20.0002V46.0001H23.0001V43.0002Z" fill="#F2F2F2"/>
<path d="M26.0001 43.0002H23.0002V46.0001H26.0001V43.0002Z" fill="#F2F2F2"/>
<path d="M29.0003 43.0002H26.0005V46.0001H29.0003V43.0002Z" fill="#D3D3D3"/>
<path d="M31.9991 43.0002H28.9993V46.0001H31.9991V43.0002Z" fill="#F2F2F2"/>
<path d="M35.0006 43.0002H32.0007V46.0001H35.0006V43.0002Z" fill="#F2F2F2"/>
<path d="M38.0006 43.0002H35.0007V46.0001H38.0006V43.0002Z" fill="#F2F2F2"/>
<path d="M41.0008 43.0002H38.001V46.0001H41.0008V43.0002Z" fill="#F2F2F2"/>
<path d="M43.9996 43.0002H40.9998V46.0001H43.9996V43.0002Z" fill="#F2F2F2"/>
<path d="M46.9996 43.0002H43.9998V46.0001H46.9996V43.0002Z" fill="#D3D3D3"/>
<path d="M49.9998 43.0002H47V46.0001H49.9998V43.0002Z" fill="#F2F2F2"/>
<path d="M53.0008 43.0002H50.001V46.0001H53.0008V43.0002Z" fill="#F2F2F2"/>
<path d="M55.9998 43.0002H53V46.0001H55.9998V43.0002Z" fill="#F2F2F2"/>
<path d="M58.9998 43.0002H56V46.0001H58.9998V43.0002Z" fill="#F2F2F2"/>
<path d="M62.0001 43.0002H59.0002V46.0001H62.0001V43.0002Z" fill="#F2F2F2"/>
<path d="M65.0001 43.0002H62.0002V46.0001H65.0001V43.0002Z" fill="#D3D3D3"/>
<path d="M67.9991 43.0002H64.9993V46.0001H67.9991V43.0002Z" fill="#F2F2F2"/>
<path d="M71.0001 43.0002H68.0002V46.0001H71.0001V43.0002Z" fill="#F2F2F2"/>
<path d="M74.0001 43.0002H71.0002V46.0001H74.0001V43.0002Z" fill="#F2F2F2"/>
<path d="M77.0006 43.0002H74.0007V46.0001H77.0006V43.0002Z" fill="#F2F2F2"/>
<path d="M79.9996 43.0002H76.9998V46.0001H79.9996V43.0002Z" fill="#F2F2F2"/>
<path d="M82.9996 43.0002H79.9998V46.0001H82.9996V43.0002Z" fill="#D3D3D3"/>
<path d="M85.9996 43.0002H82.9998V46.0001H85.9996V43.0002Z" fill="#F2F2F2"/>
<path d="M88.9998 43.0002H86V46.0001H88.9998V43.0002Z" fill="#F2F2F2"/>
<path d="M91.9998 43.0002H89V46.0001H91.9998V43.0002Z" fill="#F2F2F2"/>
<path d="M94.9998 43.0002H92V46.0001H94.9998V43.0002Z" fill="#F2F2F2"/>
<path d="M97.9998 43.0002H95V46.0001H97.9998V43.0002Z" fill="#F2F2F2"/>
<path d="M101 43.0002H98V46.0001H101V43.0002Z" fill="#A3A3A3"/>
<path d="M104 43.0002H101V46.0001H104V43.0002Z" fill="black"/>
<path d="M17.0003 46.0001H14.0005V48.9999H17.0003V46.0001Z" fill="black"/>
<path d="M19.9998 46.0001H17V48.9999H19.9998V46.0001Z" fill="#D3D3D3"/>
<path d="M23.0001 46.0001H20.0002V48.9999H23.0001V46.0001Z" fill="#D3D3D3"/>
<path d="M26.0001 46.0001H23.0002V48.9999H26.0001V46.0001Z" fill="#D3D3D3"/>
<path d="M29.0003 46.0001H26.0005V48.9999H29.0003V46.0001Z" fill="#D3D3D3"/>
<path d="M31.9991 46.0001H28.9993V48.9999H31.9991V46.0001Z" fill="#D3D3D3"/>
<path d="M35.0006 46.0001H32.0007V48.9999H35.0006V46.0001Z" fill="#D3D3D3"/>
<path d="M38.0006 46.0001H35.0007V48.9999H38.0006V46.0001Z" fill="#D3D3D3"/>
<path d="M41.0008 46.0001H38.001V48.9999H41.0008V46.0001Z" fill="#D3D3D3"/>
<path d="M43.9996 46.0001H40.9998V48.9999H43.9996V46.0001Z" fill="#D3D3D3"/>
<path d="M46.9996 46.0001H43.9998V48.9999H46.9996V46.0001Z" fill="#C51313"/>
<path d="M49.9998 46.0001H47V48.9999H49.9998V46.0001Z" fill="#C51313"/>
<path d="M53.0008 46.0001H50.001V48.9999H53.0008V46.0001Z" fill="#C51313"/>
<path d="M55.9998 46.0001H53V48.9999H55.9998V46.0001Z" fill="#C51313"/>
<path d="M58.9998 46.0001H56V48.9999H58.9998V46.0001Z" fill="#C51313"/>
<path d="M62.0001 46.0001H59.0002V48.9999H62.0001V46.0001Z" fill="#C51313"/>
<path d="M65.0001 46.0001H62.0002V48.9999H65.0001V46.0001Z" fill="#C51313"/>
<path d="M67.9991 46.0001H64.9993V48.9999H67.9991V46.0001Z" fill="#D3D3D3"/>
<path d="M71.0001 46.0001H68.0002V48.9999H71.0001V46.0001Z" fill="#D3D3D3"/>
<path d="M74.0001 46.0001H71.0002V48.9999H74.0001V46.0001Z" fill="#D3D3D3"/>
<path d="M77.0006 46.0001H74.0007V48.9999H77.0006V46.0001Z" fill="#D3D3D3"/>
<path d="M79.9996 46.0001H76.9998V48.9999H79.9996V46.0001Z" fill="#D3D3D3"/>
<path d="M82.9996 46.0001H79.9998V48.9999H82.9996V46.0001Z" fill="#D3D3D3"/>
<path d="M85.9996 46.0001H82.9998V48.9999H85.9996V46.0001Z" fill="#D3D3D3"/>
<path d="M88.9998 46.0001H86V48.9999H88.9998V46.0001Z" fill="#D3D3D3"/>
<path d="M91.9998 46.0001H89V48.9999H91.9998V46.0001Z" fill="#D3D3D3"/>
<path d="M94.9998 46.0001H92V48.9999H94.9998V46.0001Z" fill="#D3D3D3"/>
<path d="M97.9998 46.0001H95V48.9999H97.9998V46.0001Z" fill="#D3D3D3"/>
<path d="M101 46.0001H98V48.9999H101V46.0001Z" fill="#A3A3A3"/>
<path d="M104 46.0001H101V48.9999H104V46.0001Z" fill="black"/>
<path d="M17.0003 48.9999H14.0005V51.9997H17.0003V48.9999Z" fill="black"/>
<path d="M19.9998 48.9999H17V51.9997H19.9998V48.9999Z" fill="#F2F2F2"/>
<path d="M23.0001 48.9999H20.0002V51.9997H23.0001V48.9999Z" fill="#F2F2F2"/>
<path d="M26.0001 48.9999H23.0002V51.9997H26.0001V48.9999Z" fill="#F2F2F2"/>
<path d="M29.0003 48.9999H26.0005V51.9997H29.0003V48.9999Z" fill="#D3D3D3"/>
<path d="M31.9991 48.9999H28.9993V51.9997H31.9991V48.9999Z" fill="#F2F2F2"/>
<path d="M35.0006 48.9999H32.0007V51.9997H35.0006V48.9999Z" fill="#F2F2F2"/>
<path d="M38.0006 48.9999H35.0007V51.9997H38.0006V48.9999Z" fill="#F2F2F2"/>
<path d="M41.0008 48.9999H38.001V51.9997H41.0008V48.9999Z" fill="#F2F2F2"/>
<path d="M43.9996 48.9999H40.9998V51.9997H43.9996V48.9999Z" fill="#F2F2F2"/>
<path d="M46.9996 48.9999H43.9998V51.9997H46.9996V48.9999Z" fill="#C51313"/>
<path d="M49.9998 48.9999H47V51.9997H49.9998V48.9999Z" fill="#F2F2F2"/>
<path d="M53.0008 48.9999H50.001V51.9997H53.0008V48.9999Z" fill="#F2F2F2"/>
<path d="M55.9998 48.9999H53V51.9997H55.9998V48.9999Z" fill="#F2F2F2"/>
<path d="M58.9998 48.9999H56V51.9997H58.9998V48.9999Z" fill="#F2F2F2"/>
<path d="M62.0001 48.9999H59.0002V51.9997H62.0001V48.9999Z" fill="#F2F2F2"/>
<path d="M65.0001 48.9999H62.0002V51.9997H65.0001V48.9999Z" fill="#C51313"/>
<path d="M67.9991 48.9999H64.9993V51.9997H67.9991V48.9999Z" fill="#F2F2F2"/>
<path d="M71.0001 48.9999H68.0002V51.9997H71.0001V48.9999Z" fill="#F2F2F2"/>
<path d="M74.0001 48.9999H71.0002V51.9997H74.0001V48.9999Z" fill="#F2F2F2"/>
<path d="M77.0006 48.9999H74.0007V51.9997H77.0006V48.9999Z" fill="#F2F2F2"/>
<path d="M79.9996 48.9999H76.9998V51.9997H79.9996V48.9999Z" fill="#F2F2F2"/>
<path d="M82.9996 48.9999H79.9998V51.9997H82.9996V48.9999Z" fill="#D3D3D3"/>
<path d="M85.9996 48.9999H82.9998V51.9997H85.9996V48.9999Z" fill="#F2F2F2"/>
<path d="M88.9998 48.9999H86V51.9997H88.9998V48.9999Z" fill="#F2F2F2"/>
<path d="M91.9998 48.9999H89V51.9997H91.9998V48.9999Z" fill="#F2F2F2"/>
<path d="M94.9998 48.9999H92V51.9997H94.9998V48.9999Z" fill="#F2F2F2"/>
<path d="M97.9998 48.9999H95V51.9997H97.9998V48.9999Z" fill="#F2F2F2"/>
<path d="M101 48.9999H98V51.9997H101V48.9999Z" fill="#A3A3A3"/>
<path d="M104 48.9999H101V51.9997H104V48.9999Z" fill="black"/>
<path d="M17.0003 51.9999H14.0005V54.9997H17.0003V51.9999Z" fill="black"/>
<path d="M19.9998 51.9999H17V54.9997H19.9998V51.9999Z" fill="#F2F2F2"/>
<path d="M23.0001 51.9999H20.0002V54.9997H23.0001V51.9999Z" fill="#F2F2F2"/>
<path d="M26.0001 51.9999H23.0002V54.9997H26.0001V51.9999Z" fill="#F2F2F2"/>
<path d="M29.0003 51.9999H26.0005V54.9997H29.0003V51.9999Z" fill="#D3D3D3"/>
<path d="M31.9991 51.9999H28.9993V54.9997H31.9991V51.9999Z" fill="#F2F2F2"/>
<path d="M35.0006 51.9999H32.0007V54.9997H35.0006V51.9999Z" fill="#F2F2F2"/>
<path d="M38.0006 51.9999H35.0007V54.9997H38.0006V51.9999Z" fill="#F2F2F2"/>
<path d="M41.0008 51.9999H38.001V54.9997H41.0008V51.9999Z" fill="#F2F2F2"/>
<path d="M43.9996 51.9999H40.9998V54.9997H43.9996V51.9999Z" fill="#F2F2F2"/>
<path d="M46.9996 51.9999H43.9998V54.9997H46.9996V51.9999Z" fill="#C51313"/>
<path d="M49.9998 51.9999H47V54.9997H49.9998V51.9999Z" fill="#F2F2F2"/>
<path d="M53.0008 51.9999H50.001V54.9997H53.0008V51.9999Z" fill="#F2F2F2"/>
<path d="M55.9998 51.9999H53V54.9997H55.9998V51.9999Z" fill="#F2F2F2"/>
<path d="M58.9998 51.9999H56V54.9997H58.9998V51.9999Z" fill="#F2F2F2"/>
<path d="M62.0001 51.9999H59.0002V54.9997H62.0001V51.9999Z" fill="#F2F2F2"/>
<path d="M65.0001 51.9999H62.0002V54.9997H65.0001V51.9999Z" fill="#C51313"/>
<path d="M67.9991 51.9999H64.9993V54.9997H67.9991V51.9999Z" fill="#F2F2F2"/>
<path d="M71.0001 51.9999H68.0002V54.9997H71.0001V51.9999Z" fill="#F2F2F2"/>
<path d="M74.0001 51.9999H71.0002V54.9997H74.0001V51.9999Z" fill="#F2F2F2"/>
<path d="M77.0006 51.9999H74.0007V54.9997H77.0006V51.9999Z" fill="#F2F2F2"/>
<path d="M79.9996 51.9999H76.9998V54.9997H79.9996V51.9999Z" fill="#F2F2F2"/>
<path d="M82.9996 51.9999H79.9998V54.9997H82.9996V51.9999Z" fill="#D3D3D3"/>
<path d="M85.9996 51.9999H82.9998V54.9997H85.9996V51.9999Z" fill="#F2F2F2"/>
<path d="M88.9998 51.9999H86V54.9997H88.9998V51.9999Z" fill="#F2F2F2"/>
<path d="M91.9998 51.9999H89V54.9997H91.9998V51.9999Z" fill="#F2F2F2"/>
<path d="M94.9998 51.9999H92V54.9997H94.9998V51.9999Z" fill="#F2F2F2"/>
<path d="M97.9998 51.9999H95V54.9997H97.9998V51.9999Z" fill="#F2F2F2"/>
<path d="M101 51.9999H98V54.9997H101V51.9999Z" fill="#A3A3A3"/>
<path d="M104 51.9999H101V54.9997H104V51.9999Z" fill="black"/>
<path d="M17.0003 54.9994H14.0005V57.9992H17.0003V54.9994Z" fill="black"/>
<path d="M19.9998 54.9994H17V57.9992H19.9998V54.9994Z" fill="#F2F2F2"/>
<path d="M23.0001 54.9994H20.0002V57.9992H23.0001V54.9994Z" fill="#F2F2F2"/>
<path d="M26.0001 54.9994H23.0002V57.9992H26.0001V54.9994Z" fill="#F2F2F2"/>
<path d="M29.0003 54.9994H26.0005V57.9992H29.0003V54.9994Z" fill="#D3D3D3"/>
<path d="M31.9991 54.9994H28.9993V57.9992H31.9991V54.9994Z" fill="#F2F2F2"/>
<path d="M35.0006 54.9994H32.0007V57.9992H35.0006V54.9994Z" fill="#F2F2F2"/>
<path d="M38.0006 54.9994H35.0007V57.9992H38.0006V54.9994Z" fill="#F2F2F2"/>
<path d="M41.0008 54.9994H38.001V57.9992H41.0008V54.9994Z" fill="#F2F2F2"/>
<path d="M43.9996 54.9994H40.9998V57.9992H43.9996V54.9994Z" fill="#F2F2F2"/>
<path d="M46.9996 54.9994H43.9998V57.9992H46.9996V54.9994Z" fill="#C51313"/>
<path d="M49.9998 54.9994H47V57.9992H49.9998V54.9994Z" fill="#F2F2F2"/>
<path d="M53.0008 54.9994H50.001V57.9992H53.0008V54.9994Z" fill="#F2F2F2"/>
<path d="M55.9998 54.9994H53V57.9992H55.9998V54.9994Z" fill="#F2F2F2"/>
<path d="M58.9998 54.9994H56V57.9992H58.9998V54.9994Z" fill="#F2F2F2"/>
<path d="M62.0001 54.9994H59.0002V57.9992H62.0001V54.9994Z" fill="#F2F2F2"/>
<path d="M65.0001 54.9994H62.0002V57.9992H65.0001V54.9994Z" fill="#C51313"/>
<path d="M67.9991 54.9994H64.9993V57.9992H67.9991V54.9994Z" fill="#F2F2F2"/>
<path d="M71.0001 54.9994H68.0002V57.9992H71.0001V54.9994Z" fill="#F2F2F2"/>
<path d="M74.0001 54.9994H71.0002V57.9992H74.0001V54.9994Z" fill="#F2F2F2"/>
<path d="M77.0006 54.9994H74.0007V57.9992H77.0006V54.9994Z" fill="#F2F2F2"/>
<path d="M79.9996 54.9994H76.9998V57.9992H79.9996V54.9994Z" fill="#F2F2F2"/>
<path d="M82.9996 54.9994H79.9998V57.9992H82.9996V54.9994Z" fill="#D3D3D3"/>
<path d="M85.9996 54.9994H82.9998V57.9992H85.9996V54.9994Z" fill="#F2F2F2"/>
<path d="M88.9998 54.9994H86V57.9992H88.9998V54.9994Z" fill="#F2F2F2"/>
<path d="M91.9998 54.9994H89V57.9992H91.9998V54.9994Z" fill="#F2F2F2"/>
<path d="M94.9998 54.9994H92V57.9992H94.9998V54.9994Z" fill="#F2F2F2"/>
<path d="M97.9998 54.9994H95V57.9992H97.9998V54.9994Z" fill="#F2F2F2"/>
<path d="M101 54.9994H98V57.9992H101V54.9994Z" fill="#A3A3A3"/>
<path d="M104 54.9994H101V57.9992H104V54.9994Z" fill="black"/>
<path d="M17.0003 57.9995H14.0005V60.9994H17.0003V57.9995Z" fill="black"/>
<path d="M19.9998 57.9995H17V60.9994H19.9998V57.9995Z" fill="#F2F2F2"/>
<path d="M23.0001 57.9995H20.0002V60.9994H23.0001V57.9995Z" fill="#F2F2F2"/>
<path d="M26.0001 57.9995H23.0002V60.9994H26.0001V57.9995Z" fill="#F2F2F2"/>
<path d="M29.0003 57.9995H26.0005V60.9994H29.0003V57.9995Z" fill="#D3D3D3"/>
<path d="M31.9991 57.9995H28.9993V60.9994H31.9991V57.9995Z" fill="#F2F2F2"/>
<path d="M35.0006 57.9995H32.0007V60.9994H35.0006V57.9995Z" fill="#F2F2F2"/>
<path d="M38.0006 57.9995H35.0007V60.9994H38.0006V57.9995Z" fill="#F2F2F2"/>
<path d="M41.0008 57.9995H38.001V60.9994H41.0008V57.9995Z" fill="#F2F2F2"/>
<path d="M43.9996 57.9995H40.9998V60.9994H43.9996V57.9995Z" fill="#F2F2F2"/>
<path d="M46.9996 57.9995H43.9998V60.9994H46.9996V57.9995Z" fill="#C51313"/>
<path d="M49.9998 57.9995H47V60.9994H49.9998V57.9995Z" fill="#F2F2F2"/>
<path d="M53.0008 57.9995H50.001V60.9994H53.0008V57.9995Z" fill="#F2F2F2"/>
<path d="M55.9998 57.9995H53V60.9994H55.9998V57.9995Z" fill="#F2F2F2"/>
<path d="M58.9998 57.9995H56V60.9994H58.9998V57.9995Z" fill="#F2F2F2"/>
<path d="M62.0001 57.9995H59.0002V60.9994H62.0001V57.9995Z" fill="#F2F2F2"/>
<path d="M65.0001 57.9995H62.0002V60.9994H65.0001V57.9995Z" fill="#C51313"/>
<path d="M67.9991 57.9995H64.9993V60.9994H67.9991V57.9995Z" fill="#F2F2F2"/>
<path d="M71.0001 57.9995H68.0002V60.9994H71.0001V57.9995Z" fill="#F2F2F2"/>
<path d="M74.0001 57.9995H71.0002V60.9994H74.0001V57.9995Z" fill="#F2F2F2"/>
<path d="M77.0006 57.9995H74.0007V60.9994H77.0006V57.9995Z" fill="#F2F2F2"/>
<path d="M79.9996 57.9995H76.9998V60.9994H79.9996V57.9995Z" fill="#F2F2F2"/>
<path d="M82.9996 57.9995H79.9998V60.9994H82.9996V57.9995Z" fill="#D3D3D3"/>
<path d="M85.9996 57.9995H82.9998V60.9994H85.9996V57.9995Z" fill="#F2F2F2"/>
<path d="M88.9998 57.9995H86V60.9994H88.9998V57.9995Z" fill="#F2F2F2"/>
<path d="M91.9998 57.9995H89V60.9994H91.9998V57.9995Z" fill="#F2F2F2"/>
<path d="M94.9998 57.9995H92V60.9994H94.9998V57.9995Z" fill="#F2F2F2"/>
<path d="M97.9998 57.9995H95V60.9994H97.9998V57.9995Z" fill="#F2F2F2"/>
<path d="M101 57.9995H98V60.9994H101V57.9995Z" fill="#A3A3A3"/>
<path d="M104 57.9995H101V60.9994H104V57.9995Z" fill="black"/>
<path d="M17.0003 60.9991H14.0005V63.999H17.0003V60.9991Z" fill="black"/>
<path d="M19.9998 60.9991H17V63.999H19.9998V60.9991Z" fill="#D3D3D3"/>
<path d="M23.0001 60.9991H20.0002V63.999H23.0001V60.9991Z" fill="#D3D3D3"/>
<path d="M26.0001 60.9991H23.0002V63.999H26.0001V60.9991Z" fill="#D3D3D3"/>
<path d="M29.0003 60.9991H26.0005V63.999H29.0003V60.9991Z" fill="#D3D3D3"/>
<path d="M31.9991 60.9991H28.9993V63.999H31.9991V60.9991Z" fill="#D3D3D3"/>
<path d="M35.0006 60.9991H32.0007V63.999H35.0006V60.9991Z" fill="#D3D3D3"/>
<path d="M38.0006 60.9991H35.0007V63.999H38.0006V60.9991Z" fill="#D3D3D3"/>
<path d="M41.0008 60.9991H38.001V63.999H41.0008V60.9991Z" fill="#D3D3D3"/>
<path d="M43.9996 60.9991H40.9998V63.999H43.9996V60.9991Z" fill="#D3D3D3"/>
<path d="M46.9996 60.9991H43.9998V63.999H46.9996V60.9991Z" fill="#C51313"/>
<path d="M49.9998 60.9991H47V63.999H49.9998V60.9991Z" fill="#C51313"/>
<path d="M53.0008 60.9991H50.001V63.999H53.0008V60.9991Z" fill="#C51313"/>
<path d="M55.9998 60.9991H53V63.999H55.9998V60.9991Z" fill="#C51313"/>
<path d="M58.9998 60.9991H56V63.999H58.9998V60.9991Z" fill="#C51313"/>
<path d="M62.0001 60.9991H59.0002V63.999H62.0001V60.9991Z" fill="#C51313"/>
<path d="M65.0001 60.9991H62.0002V63.999H65.0001V60.9991Z" fill="#C51313"/>
<path d="M67.9991 60.9991H64.9993V63.999H67.9991V60.9991Z" fill="#D3D3D3"/>
<path d="M71.0001 60.9991H68.0002V63.999H71.0001V60.9991Z" fill="#D3D3D3"/>
<path d="M74.0001 60.9991H71.0002V63.999H74.0001V60.9991Z" fill="#D3D3D3"/>
<path d="M77.0006 60.9991H74.0007V63.999H77.0006V60.9991Z" fill="#D3D3D3"/>
<path d="M79.9996 60.9991H76.9998V63.999H79.9996V60.9991Z" fill="#D3D3D3"/>
<path d="M82.9996 60.9991H79.9998V63.999H82.9996V60.9991Z" fill="#D3D3D3"/>
<path d="M85.9996 60.9991H82.9998V63.999H85.9996V60.9991Z" fill="#D3D3D3"/>
<path d="M88.9998 60.9991H86V63.999H88.9998V60.9991Z" fill="#D3D3D3"/>
<path d="M91.9998 60.9991H89V63.999H91.9998V60.9991Z" fill="#D3D3D3"/>
<path d="M94.9998 60.9991H92V63.999H94.9998V60.9991Z" fill="#D3D3D3"/>
<path d="M97.9998 60.9991H95V63.999H97.9998V60.9991Z" fill="#D3D3D3"/>
<path d="M101 60.9991H98V63.999H101V60.9991Z" fill="#A3A3A3"/>
<path d="M104 60.9991H101V63.999H104V60.9991Z" fill="black"/>
<path d="M17.0003 64.0001H14.0005V67H17.0003V64.0001Z" fill="black"/>
<path d="M19.9998 64.0001H17V67H19.9998V64.0001Z" fill="#F2F2F2"/>
<path d="M23.0001 64.0001H20.0002V67H23.0001V64.0001Z" fill="#F2F2F2"/>
<path d="M26.0001 64.0001H23.0002V67H26.0001V64.0001Z" fill="#F2F2F2"/>
<path d="M29.0003 64.0001H26.0005V67H29.0003V64.0001Z" fill="#D3D3D3"/>
<path d="M31.9991 64.0001H28.9993V67H31.9991V64.0001Z" fill="#F2F2F2"/>
<path d="M35.0006 64.0001H32.0007V67H35.0006V64.0001Z" fill="#F2F2F2"/>
<path d="M38.0006 64.0001H35.0007V67H38.0006V64.0001Z" fill="#F2F2F2"/>
<path d="M41.0008 64.0001H38.001V67H41.0008V64.0001Z" fill="#F2F2F2"/>
<path d="M43.9996 64.0001H40.9998V67H43.9996V64.0001Z" fill="#F2F2F2"/>
<path d="M46.9996 64.0001H43.9998V67H46.9996V64.0001Z" fill="#D3D3D3"/>
<path d="M49.9998 64.0001H47V67H49.9998V64.0001Z" fill="#F2F2F2"/>
<path d="M53.0008 64.0001H50.001V67H53.0008V64.0001Z" fill="#F2F2F2"/>
<path d="M55.9998 64.0001H53V67H55.9998V64.0001Z" fill="#F2F2F2"/>
<path d="M58.9998 64.0001H56V67H58.9998V64.0001Z" fill="#F2F2F2"/>
<path d="M62.0001 64.0001H59.0002V67H62.0001V64.0001Z" fill="#F2F2F2"/>
<path d="M65.0001 64.0001H62.0002V67H65.0001V64.0001Z" fill="#D3D3D3"/>
<path d="M67.9991 64.0001H64.9993V67H67.9991V64.0001Z" fill="#F2F2F2"/>
<path d="M71.0001 64.0001H68.0002V67H71.0001V64.0001Z" fill="#F2F2F2"/>
<path d="M74.0001 64.0001H71.0002V67H74.0001V64.0001Z" fill="#F2F2F2"/>
<path d="M77.0006 64.0001H74.0007V67H77.0006V64.0001Z" fill="#F2F2F2"/>
<path d="M79.9996 64.0001H76.9998V67H79.9996V64.0001Z" fill="#F2F2F2"/>
<path d="M82.9996 64.0001H79.9998V67H82.9996V64.0001Z" fill="#D3D3D3"/>
<path d="M85.9996 64.0001H82.9998V67H85.9996V64.0001Z" fill="#F2F2F2"/>
<path d="M88.9998 64.0001H86V67H88.9998V64.0001Z" fill="#F2F2F2"/>
<path d="M91.9998 64.0001H89V67H91.9998V64.0001Z" fill="#F2F2F2"/>
<path d="M94.9998 64.0001H92V67H94.9998V64.0001Z" fill="#F2F2F2"/>
<path d="M97.9998 64.0001H95V67H97.9998V64.0001Z" fill="#F2F2F2"/>
<path d="M101 64.0001H98V67H101V64.0001Z" fill="#A3A3A3"/>
<path d="M104 64.0001H101V67H104V64.0001Z" fill="black"/>
<path d="M17.0003 66.9998H14.0005V69.9996H17.0003V66.9998Z" fill="black"/>
<path d="M19.9998 66.9998H17V69.9996H19.9998V66.9998Z" fill="#F2F2F2"/>
<path d="M23.0001 66.9998H20.0002V69.9996H23.0001V66.9998Z" fill="#F2F2F2"/>
<path d="M26.0001 66.9998H23.0002V69.9996H26.0001V66.9998Z" fill="#F2F2F2"/>
<path d="M29.0003 66.9998H26.0005V69.9996H29.0003V66.9998Z" fill="#D3D3D3"/>
<path d="M31.9991 66.9998H28.9993V69.9996H31.9991V66.9998Z" fill="#F2F2F2"/>
<path d="M35.0006 66.9998H32.0007V69.9996H35.0006V66.9998Z" fill="#F2F2F2"/>
<path d="M38.0006 66.9998H35.0007V69.9996H38.0006V66.9998Z" fill="#F2F2F2"/>
<path d="M41.0008 66.9998H38.001V69.9996H41.0008V66.9998Z" fill="#F2F2F2"/>
<path d="M43.9996 66.9998H40.9998V69.9996H43.9996V66.9998Z" fill="#F2F2F2"/>
<path d="M46.9996 66.9998H43.9998V69.9996H46.9996V66.9998Z" fill="#D3D3D3"/>
<path d="M49.9998 66.9998H47V69.9996H49.9998V66.9998Z" fill="#F2F2F2"/>
<path d="M53.0008 66.9998H50.001V69.9996H53.0008V66.9998Z" fill="#F2F2F2"/>
<path d="M55.9998 66.9998H53V69.9996H55.9998V66.9998Z" fill="#F2F2F2"/>
<path d="M58.9998 66.9998H56V69.9996H58.9998V66.9998Z" fill="#F2F2F2"/>
<path d="M62.0001 66.9998H59.0002V69.9996H62.0001V66.9998Z" fill="#F2F2F2"/>
<path d="M65.0001 66.9998H62.0002V69.9996H65.0001V66.9998Z" fill="#D3D3D3"/>
<path d="M67.9991 66.9998H64.9993V69.9996H67.9991V66.9998Z" fill="#F2F2F2"/>
<path d="M71.0001 66.9998H68.0002V69.9996H71.0001V66.9998Z" fill="#F2F2F2"/>
<path d="M74.0001 66.9998H71.0002V69.9996H74.0001V66.9998Z" fill="#F2F2F2"/>
<path d="M77.0006 66.9998H74.0007V69.9996H77.0006V66.9998Z" fill="#F2F2F2"/>
<path d="M79.9996 66.9998H76.9998V69.9996H79.9996V66.9998Z" fill="#F2F2F2"/>
<path d="M82.9996 66.9998H79.9998V69.9996H82.9996V66.9998Z" fill="#D3D3D3"/>
<path d="M85.9996 66.9998H82.9998V69.9996H85.9996V66.9998Z" fill="#F2F2F2"/>
<path d="M88.9998 66.9998H86V69.9996H88.9998V66.9998Z" fill="#F2F2F2"/>
<path d="M91.9998 66.9998H89V69.9996H91.9998V66.9998Z" fill="#F2F2F2"/>
<path d="M94.9998 66.9998H92V69.9996H94.9998V66.9998Z" fill="#F2F2F2"/>
<path d="M97.9998 66.9998H95V69.9996H97.9998V66.9998Z" fill="#A3A3A3"/>
<path d="M101 66.9998H98V69.9996H101V66.9998Z" fill="#A3A3A3"/>
<path d="M104 66.9998H101V69.9996H104V66.9998Z" fill="black"/>
<path d="M14.0011 69.9999H11.0012V72.9997H14.0011V69.9999Z" fill="black"/>
<path d="M17.0003 69.9999H14.0005V72.9997H17.0003V69.9999Z" fill="#F2F2F2"/>
<path d="M19.9998 69.9999H17V72.9997H19.9998V69.9999Z" fill="#F2F2F2"/>
<path d="M23.0001 69.9999H20.0002V72.9997H23.0001V69.9999Z" fill="#F2F2F2"/>
<path d="M26.0001 69.9999H23.0002V72.9997H26.0001V69.9999Z" fill="#F2F2F2"/>
<path d="M29.0003 69.9999H26.0005V72.9997H29.0003V69.9999Z" fill="#D3D3D3"/>
<path d="M31.9991 69.9999H28.9993V72.9997H31.9991V69.9999Z" fill="#F2F2F2"/>
<path d="M35.0006 69.9999H32.0007V72.9997H35.0006V69.9999Z" fill="#F2F2F2"/>
<path d="M38.0006 69.9999H35.0007V72.9997H38.0006V69.9999Z" fill="#F2F2F2"/>
<path d="M41.0008 69.9999H38.001V72.9997H41.0008V69.9999Z" fill="#F2F2F2"/>
<path d="M43.9996 69.9999H40.9998V72.9997H43.9996V69.9999Z" fill="#F2F2F2"/>
<path d="M46.9996 69.9999H43.9998V72.9997H46.9996V69.9999Z" fill="#D3D3D3"/>
<path d="M49.9998 69.9999H47V72.9997H49.9998V69.9999Z" fill="#F2F2F2"/>
<path d="M53.0008 69.9999H50.001V72.9997H53.0008V69.9999Z" fill="#F2F2F2"/>
<path d="M55.9998 69.9999H53V72.9997H55.9998V69.9999Z" fill="#F2F2F2"/>
<path d="M58.9998 69.9999H56V72.9997H58.9998V69.9999Z" fill="#F2F2F2"/>
<path d="M62.0001 69.9999H59.0002V72.9997H62.0001V69.9999Z" fill="#F2F2F2"/>
<path d="M65.0001 69.9999H62.0002V72.9997H65.0001V69.9999Z" fill="#D3D3D3"/>
<path d="M67.9991 69.9999H64.9993V72.9997H67.9991V69.9999Z" fill="#F2F2F2"/>
<path d="M71.0001 69.9999H68.0002V72.9997H71.0001V69.9999Z" fill="#F2F2F2"/>
<path d="M74.0001 69.9999H71.0002V72.9997H74.0001V69.9999Z" fill="#F2F2F2"/>
<path d="M77.0006 69.9999H74.0007V72.9997H77.0006V69.9999Z" fill="#F2F2F2"/>
<path d="M79.9996 69.9999H76.9998V72.9997H79.9996V69.9999Z" fill="#F2F2F2"/>
<path d="M82.9996 69.9999H79.9998V72.9997H82.9996V69.9999Z" fill="#D3D3D3"/>
<path d="M85.9996 69.9999H82.9998V72.9997H85.9996V69.9999Z" fill="#F2F2F2"/>
<path d="M88.9998 69.9999H86V72.9997H88.9998V69.9999Z" fill="#F2F2F2"/>
<path d="M91.9998 69.9999H89V72.9997H91.9998V69.9999Z" fill="#F2F2F2"/>
<path d="M94.9998 69.9999H92V72.9997H94.9998V69.9999Z" fill="#F2F2F2"/>
<path d="M97.9998 69.9999H95V72.9997H97.9998V69.9999Z" fill="#A3A3A3"/>
<path d="M101 69.9999H98V72.9997H101V69.9999Z" fill="#A3A3A3"/>
<path d="M104 69.9999H101V72.9997H104V69.9999Z" fill="black"/>
<path d="M14.0011 72.9995H11.0012V75.9994H14.0011V72.9995Z" fill="black"/>
<path d="M17.0003 72.9995H14.0005V75.9994H17.0003V72.9995Z" fill="#D3D3D3"/>
<path d="M19.9998 72.9995H17V75.9994H19.9998V72.9995Z" fill="#D3D3D3"/>
<path d="M23.0001 72.9995H20.0002V75.9994H23.0001V72.9995Z" fill="#D3D3D3"/>
<path d="M26.0001 72.9995H23.0002V75.9994H26.0001V72.9995Z" fill="#D3D3D3"/>
<path d="M29.0003 72.9995H26.0005V75.9994H29.0003V72.9995Z" fill="#D3D3D3"/>
<path d="M31.9991 72.9995H28.9993V75.9994H31.9991V72.9995Z" fill="#D3D3D3"/>
<path d="M35.0006 72.9995H32.0007V75.9994H35.0006V72.9995Z" fill="#D3D3D3"/>
<path d="M38.0006 72.9995H35.0007V75.9994H38.0006V72.9995Z" fill="#D3D3D3"/>
<path d="M41.0008 72.9995H38.001V75.9994H41.0008V72.9995Z" fill="#D3D3D3"/>
<path d="M43.9996 72.9995H40.9998V75.9994H43.9996V72.9995Z" fill="#D3D3D3"/>
<path d="M46.9996 72.9995H43.9998V75.9994H46.9996V72.9995Z" fill="#D3D3D3"/>
<path d="M49.9998 72.9995H47V75.9994H49.9998V72.9995Z" fill="#D3D3D3"/>
<path d="M53.0008 72.9995H50.001V75.9994H53.0008V72.9995Z" fill="#D3D3D3"/>
<path d="M55.9998 72.9995H53V75.9994H55.9998V72.9995Z" fill="#D3D3D3"/>
<path d="M58.9998 72.9995H56V75.9994H58.9998V72.9995Z" fill="#D3D3D3"/>
<path d="M62.0001 72.9995H59.0002V75.9994H62.0001V72.9995Z" fill="#D3D3D3"/>
<path d="M65.0001 72.9995H62.0002V75.9994H65.0001V72.9995Z" fill="#D3D3D3"/>
<path d="M67.9991 72.9995H64.9993V75.9994H67.9991V72.9995Z" fill="#D3D3D3"/>
<path d="M71.0001 72.9995H68.0002V75.9994H71.0001V72.9995Z" fill="#D3D3D3"/>
<path d="M74.0001 72.9995H71.0002V75.9994H74.0001V72.9995Z" fill="#D3D3D3"/>
<path d="M77.0006 72.9995H74.0007V75.9994H77.0006V72.9995Z" fill="#D3D3D3"/>
<path d="M79.9996 72.9995H76.9998V75.9994H79.9996V72.9995Z" fill="#D3D3D3"/>
<path d="M82.9996 72.9995H79.9998V75.9994H82.9996V72.9995Z" fill="#D3D3D3"/>
<path d="M85.9996 72.9995H82.9998V75.9994H85.9996V72.9995Z" fill="#D3D3D3"/>
<path d="M88.9998 72.9995H86V75.9994H88.9998V72.9995Z" fill="#D3D3D3"/>
<path d="M91.9998 72.9995H89V75.9994H91.9998V72.9995Z" fill="#D3D3D3"/>
<path d="M94.9998 72.9995H92V75.9994H94.9998V72.9995Z" fill="#A3A3A3"/>
<path d="M97.9998 72.9995H95V75.9994H97.9998V72.9995Z" fill="#D3D3D3"/>
<path d="M101 72.9995H98V75.9994H101V72.9995Z" fill="#A3A3A3"/>
<path d="M104 72.9995H101V75.9994H104V72.9995Z" fill="black"/>
<path d="M10.9998 75.9995H8V78.9994H10.9998V75.9995Z" fill="black"/>
<path d="M14.0011 75.9995H11.0012V78.9994H14.0011V75.9995Z" fill="#F2F2F2"/>
<path d="M17.0003 75.9995H14.0005V78.9994H17.0003V75.9995Z" fill="#F2F2F2"/>
<path d="M19.9998 75.9995H17V78.9994H19.9998V75.9995Z" fill="#F2F2F2"/>
<path d="M23.0001 75.9995H20.0002V78.9994H23.0001V75.9995Z" fill="#F2F2F2"/>
<path d="M26.0001 75.9995H23.0002V78.9994H26.0001V75.9995Z" fill="#D3D3D3"/>
<path d="M29.0003 75.9995H26.0005V78.9994H29.0003V75.9995Z" fill="#F2F2F2"/>
<path d="M31.9991 75.9995H28.9993V78.9994H31.9991V75.9995Z" fill="#F2F2F2"/>
<path d="M35.0006 75.9995H32.0007V78.9994H35.0006V75.9995Z" fill="#F2F2F2"/>
<path d="M38.0006 75.9995H35.0007V78.9994H38.0006V75.9995Z" fill="#F2F2F2"/>
<path d="M41.0008 75.9995H38.001V78.9994H41.0008V75.9995Z" fill="#F2F2F2"/>
<path d="M43.9996 75.9995H40.9998V78.9994H43.9996V75.9995Z" fill="#D3D3D3"/>
<path d="M46.9996 75.9995H43.9998V78.9994H46.9996V75.9995Z" fill="#F2F2F2"/>
<path d="M49.9998 75.9995H47V78.9994H49.9998V75.9995Z" fill="#F2F2F2"/>
<path d="M53.0008 75.9995H50.001V78.9994H53.0008V75.9995Z" fill="#F2F2F2"/>
<path d="M55.9998 75.9995H53V78.9994H55.9998V75.9995Z" fill="#F2F2F2"/>
<path d="M58.9998 75.9995H56V78.9994H58.9998V75.9995Z" fill="#F2F2F2"/>
<path d="M62.0001 75.9995H59.0002V78.9994H62.0001V75.9995Z" fill="#D3D3D3"/>
<path d="M65.0001 75.9995H62.0002V78.9994H65.0001V75.9995Z" fill="#F2F2F2"/>
<path d="M67.9991 75.9995H64.9993V78.9994H67.9991V75.9995Z" fill="#F2F2F2"/>
<path d="M71.0001 75.9995H68.0002V78.9994H71.0001V75.9995Z" fill="#F2F2F2"/>
<path d="M74.0001 75.9995H71.0002V78.9994H74.0001V75.9995Z" fill="#F2F2F2"/>
<path d="M77.0006 75.9995H74.0007V78.9994H77.0006V75.9995Z" fill="#F2F2F2"/>
<path d="M79.9996 75.9995H76.9998V78.9994H79.9996V75.9995Z" fill="#D3D3D3"/>
<path d="M82.9996 75.9995H79.9998V78.9994H82.9996V75.9995Z" fill="#F2F2F2"/>
<path d="M85.9996 75.9995H82.9998V78.9994H85.9996V75.9995Z" fill="#F2F2F2"/>
<path d="M88.9998 75.9995H86V78.9994H88.9998V75.9995Z" fill="#F2F2F2"/>
<path d="M91.9998 75.9995H89V78.9994H91.9998V75.9995Z" fill="#F2F2F2"/>
<path d="M94.9998 75.9995H92V78.9994H94.9998V75.9995Z" fill="#A3A3A3"/>
<path d="M97.9998 75.9995H95V78.9994H97.9998V75.9995Z" fill="#D3D3D3"/>
<path d="M101 75.9995H98V78.9994H101V75.9995Z" fill="#A3A3A3"/>
<path d="M104 75.9995H101V78.9994H104V75.9995Z" fill="black"/>
<path d="M10.9998 79.0001H8V82H10.9998V79.0001Z" fill="black"/>
<path d="M14.0011 79.0001H11.0012V82H14.0011V79.0001Z" fill="#F2F2F2"/>
<path d="M17.0003 79.0001H14.0005V82H17.0003V79.0001Z" fill="#F2F2F2"/>
<path d="M19.9998 79.0001H17V82H19.9998V79.0001Z" fill="#F2F2F2"/>
<path d="M23.0001 79.0001H20.0002V82H23.0001V79.0001Z" fill="#F2F2F2"/>
<path d="M26.0001 79.0001H23.0002V82H26.0001V79.0001Z" fill="#D3D3D3"/>
<path d="M29.0003 79.0001H26.0005V82H29.0003V79.0001Z" fill="#F2F2F2"/>
<path d="M31.9991 79.0001H28.9993V82H31.9991V79.0001Z" fill="#F2F2F2"/>
<path d="M35.0006 79.0001H32.0007V82H35.0006V79.0001Z" fill="#F2F2F2"/>
<path d="M38.0006 79.0001H35.0007V82H38.0006V79.0001Z" fill="#F2F2F2"/>
<path d="M41.0008 79.0001H38.001V82H41.0008V79.0001Z" fill="#F2F2F2"/>
<path d="M43.9996 79.0001H40.9998V82H43.9996V79.0001Z" fill="#D3D3D3"/>
<path d="M46.9996 79.0001H43.9998V82H46.9996V79.0001Z" fill="#F2F2F2"/>
<path d="M49.9998 79.0001H47V82H49.9998V79.0001Z" fill="#F2F2F2"/>
<path d="M53.0008 79.0001H50.001V82H53.0008V79.0001Z" fill="#F2F2F2"/>
<path d="M55.9998 79.0001H53V82H55.9998V79.0001Z" fill="#F2F2F2"/>
<path d="M58.9998 79.0001H56V82H58.9998V79.0001Z" fill="#F2F2F2"/>
<path d="M62.0001 79.0001H59.0002V82H62.0001V79.0001Z" fill="#D3D3D3"/>
<path d="M65.0001 79.0001H62.0002V82H65.0001V79.0001Z" fill="#F2F2F2"/>
<path d="M67.9991 79.0001H64.9993V82H67.9991V79.0001Z" fill="#F2F2F2"/>
<path d="M71.0001 79.0001H68.0002V82H71.0001V79.0001Z" fill="#F2F2F2"/>
<path d="M74.0001 79.0001H71.0002V82H74.0001V79.0001Z" fill="#F2F2F2"/>
<path d="M77.0006 79.0001H74.0007V82H77.0006V79.0001Z" fill="#F2F2F2"/>
<path d="M79.9996 79.0001H76.9998V82H79.9996V79.0001Z" fill="#D3D3D3"/>
<path d="M82.9996 79.0001H79.9998V82H82.9996V79.0001Z" fill="#F2F2F2"/>
<path d="M85.9996 79.0001H82.9998V82H85.9996V79.0001Z" fill="#F2F2F2"/>
<path d="M88.9998 79.0001H86V82H88.9998V79.0001Z" fill="#F2F2F2"/>
<path d="M91.9998 79.0001H89V82H91.9998V79.0001Z" fill="#A3A3A3"/>
<path d="M94.9998 79.0001H92V82H94.9998V79.0001Z" fill="#D3D3D3"/>
<path d="M97.9998 79.0001H95V82H97.9998V79.0001Z" fill="#D3D3D3"/>
<path d="M101 79.0001H98V82H101V79.0001Z" fill="#A3A3A3"/>
<path d="M104 79.0001H101V82H104V79.0001Z" fill="black"/>
<path d="M10.9998 82.0001H8V85H10.9998V82.0001Z" fill="black"/>
<path d="M14.0011 82.0001H11.0012V85H14.0011V82.0001Z" fill="#A3A3A3"/>
<path d="M17.0003 82.0001H14.0005V85H17.0003V82.0001Z" fill="#A3A3A3"/>
<path d="M19.9998 82.0001H17V85H19.9998V82.0001Z" fill="#A3A3A3"/>
<path d="M23.0001 82.0001H20.0002V85H23.0001V82.0001Z" fill="#A3A3A3"/>
<path d="M26.0001 82.0001H23.0002V85H26.0001V82.0001Z" fill="#A3A3A3"/>
<path d="M29.0003 82.0001H26.0005V85H29.0003V82.0001Z" fill="#A3A3A3"/>
<path d="M31.9991 82.0001H28.9993V85H31.9991V82.0001Z" fill="#A3A3A3"/>
<path d="M35.0006 82.0001H32.0007V85H35.0006V82.0001Z" fill="#A3A3A3"/>
<path d="M38.0006 82.0001H35.0007V85H38.0006V82.0001Z" fill="#A3A3A3"/>
<path d="M41.0008 82.0001H38.001V85H41.0008V82.0001Z" fill="#A3A3A3"/>
<path d="M43.9996 82.0001H40.9998V85H43.9996V82.0001Z" fill="#A3A3A3"/>
<path d="M46.9996 82.0001H43.9998V85H46.9996V82.0001Z" fill="#A3A3A3"/>
<path d="M49.9998 82.0001H47V85H49.9998V82.0001Z" fill="#A3A3A3"/>
<path d="M53.0008 82.0001H50.001V85H53.0008V82.0001Z" fill="#A3A3A3"/>
<path d="M55.9998 82.0001H53V85H55.9998V82.0001Z" fill="#A3A3A3"/>
<path d="M58.9998 82.0001H56V85H58.9998V82.0001Z" fill="#A3A3A3"/>
<path d="M62.0001 82.0001H59.0002V85H62.0001V82.0001Z" fill="#A3A3A3"/>
<path d="M65.0001 82.0001H62.0002V85H65.0001V82.0001Z" fill="#A3A3A3"/>
<path d="M67.9991 82.0001H64.9993V85H67.9991V82.0001Z" fill="#A3A3A3"/>
<path d="M71.0001 82.0001H68.0002V85H71.0001V82.0001Z" fill="#A3A3A3"/>
<path d="M74.0001 82.0001H71.0002V85H74.0001V82.0001Z" fill="#A3A3A3"/>
<path d="M77.0006 82.0001H74.0007V85H77.0006V82.0001Z" fill="#A3A3A3"/>
<path d="M79.9996 82.0001H76.9998V85H79.9996V82.0001Z" fill="#A3A3A3"/>
<path d="M82.9996 82.0001H79.9998V85H82.9996V82.0001Z" fill="#A3A3A3"/>
<path d="M85.9996 82.0001H82.9998V85H85.9996V82.0001Z" fill="#A3A3A3"/>
<path d="M88.9998 82.0001H86V85H88.9998V82.0001Z" fill="#A3A3A3"/>
<path d="M91.9998 82.0001H89V85H91.9998V82.0001Z" fill="#A3A3A3"/>
<path d="M94.9998 82.0001H92V85H94.9998V82.0001Z" fill="#D3D3D3"/>
<path d="M97.9998 82.0001H95V85H97.9998V82.0001Z" fill="#A3A3A3"/>
<path d="M101 82.0001H98V85H101V82.0001Z" fill="#A3A3A3"/>
<path d="M104 82.0001H101V85H104V82.0001Z" fill="black"/>
<path d="M14.0011 84.9998H11.0012V87.9996H14.0011V84.9998Z" fill="black"/>
<path d="M17.0003 84.9998H14.0005V87.9996H17.0003V84.9998Z" fill="#D3D3D3"/>
<path d="M19.9998 84.9998H17V87.9996H19.9998V84.9998Z" fill="#D3D3D3"/>
<path d="M23.0001 84.9998H20.0002V87.9996H23.0001V84.9998Z" fill="#D3D3D3"/>
<path d="M26.0001 84.9998H23.0002V87.9996H26.0001V84.9998Z" fill="#D3D3D3"/>
<path d="M29.0003 84.9998H26.0005V87.9996H29.0003V84.9998Z" fill="#D3D3D3"/>
<path d="M31.9991 84.9998H28.9993V87.9996H31.9991V84.9998Z" fill="#D3D3D3"/>
<path d="M35.0006 84.9998H32.0007V87.9996H35.0006V84.9998Z" fill="#D3D3D3"/>
<path d="M38.0006 84.9998H35.0007V87.9996H38.0006V84.9998Z" fill="#D3D3D3"/>
<path d="M41.0008 84.9998H38.001V87.9996H41.0008V84.9998Z" fill="#D3D3D3"/>
<path d="M43.9996 84.9998H40.9998V87.9996H43.9996V84.9998Z" fill="#D3D3D3"/>
<path d="M46.9996 84.9998H43.9998V87.9996H46.9996V84.9998Z" fill="#D3D3D3"/>
<path d="M49.9998 84.9998H47V87.9996H49.9998V84.9998Z" fill="#D3D3D3"/>
<path d="M53.0008 84.9998H50.001V87.9996H53.0008V84.9998Z" fill="#D3D3D3"/>
<path d="M55.9998 84.9998H53V87.9996H55.9998V84.9998Z" fill="#D3D3D3"/>
<path d="M58.9998 84.9998H56V87.9996H58.9998V84.9998Z" fill="#D3D3D3"/>
<path d="M62.0001 84.9998H59.0002V87.9996H62.0001V84.9998Z" fill="#D3D3D3"/>
<path d="M65.0001 84.9998H62.0002V87.9996H65.0001V84.9998Z" fill="#D3D3D3"/>
<path d="M67.9991 84.9998H64.9993V87.9996H67.9991V84.9998Z" fill="#D3D3D3"/>
<path d="M71.0001 84.9998H68.0002V87.9996H71.0001V84.9998Z" fill="#D3D3D3"/>
<path d="M74.0001 84.9998H71.0002V87.9996H74.0001V84.9998Z" fill="#D3D3D3"/>
<path d="M77.0006 84.9998H74.0007V87.9996H77.0006V84.9998Z" fill="#D3D3D3"/>
<path d="M79.9996 84.9998H76.9998V87.9996H79.9996V84.9998Z" fill="#D3D3D3"/>
<path d="M82.9996 84.9998H79.9998V87.9996H82.9996V84.9998Z" fill="#D3D3D3"/>
<path d="M85.9996 84.9998H82.9998V87.9996H85.9996V84.9998Z" fill="#D3D3D3"/>
<path d="M88.9998 84.9998H86V87.9996H88.9998V84.9998Z" fill="#D3D3D3"/>
<path d="M91.9998 84.9998H89V87.9996H91.9998V84.9998Z" fill="#D3D3D3"/>
<path d="M94.9998 84.9998H92V87.9996H94.9998V84.9998Z" fill="#D3D3D3"/>
<path d="M97.9998 84.9998H95V87.9996H97.9998V84.9998Z" fill="#A3A3A3"/>
<path d="M101 84.9998H98V87.9996H101V84.9998Z" fill="#A3A3A3"/>
<path d="M104 84.9998H101V87.9996H104V84.9998Z" fill="black"/>
<path d="M14.0011 87.9996H11.0012V90.9995H14.0011V87.9996Z" fill="black"/>
<path d="M17.0003 87.9996H14.0005V90.9995H17.0003V87.9996Z" fill="#A3A3A3"/>
<path d="M19.9998 87.9996H17V90.9995H19.9998V87.9996Z" fill="#A3A3A3"/>
<path d="M23.0001 87.9996H20.0002V90.9995H23.0001V87.9996Z" fill="#A3A3A3"/>
<path d="M26.0001 87.9996H23.0002V90.9995H26.0001V87.9996Z" fill="#A3A3A3"/>
<path d="M29.0003 87.9996H26.0005V90.9995H29.0003V87.9996Z" fill="#A3A3A3"/>
<path d="M31.9991 87.9996H28.9993V90.9995H31.9991V87.9996Z" fill="#A3A3A3"/>
<path d="M35.0006 87.9996H32.0007V90.9995H35.0006V87.9996Z" fill="#A3A3A3"/>
<path d="M38.0006 87.9996H35.0007V90.9995H38.0006V87.9996Z" fill="#A3A3A3"/>
<path d="M41.0008 87.9996H38.001V90.9995H41.0008V87.9996Z" fill="#A3A3A3"/>
<path d="M43.9996 87.9996H40.9998V90.9995H43.9996V87.9996Z" fill="#A3A3A3"/>
<path d="M46.9996 87.9996H43.9998V90.9995H46.9996V87.9996Z" fill="#A3A3A3"/>
<path d="M49.9998 87.9996H47V90.9995H49.9998V87.9996Z" fill="#A3A3A3"/>
<path d="M53.0008 87.9996H50.001V90.9995H53.0008V87.9996Z" fill="#A3A3A3"/>
<path d="M55.9998 87.9996H53V90.9995H55.9998V87.9996Z" fill="#A3A3A3"/>
<path d="M58.9998 87.9996H56V90.9995H58.9998V87.9996Z" fill="#A3A3A3"/>
<path d="M62.0001 87.9996H59.0002V90.9995H62.0001V87.9996Z" fill="#A3A3A3"/>
<path d="M65.0001 87.9996H62.0002V90.9995H65.0001V87.9996Z" fill="#A3A3A3"/>
<path d="M67.9991 87.9996H64.9993V90.9995H67.9991V87.9996Z" fill="#A3A3A3"/>
<path d="M71.0001 87.9996H68.0002V90.9995H71.0001V87.9996Z" fill="#A3A3A3"/>
<path d="M74.0001 87.9996H71.0002V90.9995H74.0001V87.9996Z" fill="#A3A3A3"/>
<path d="M77.0006 87.9996H74.0007V90.9995H77.0006V87.9996Z" fill="#A3A3A3"/>
<path d="M79.9996 87.9996H76.9998V90.9995H79.9996V87.9996Z" fill="#A3A3A3"/>
<path d="M82.9996 87.9996H79.9998V90.9995H82.9996V87.9996Z" fill="#A3A3A3"/>
<path d="M85.9996 87.9996H82.9998V90.9995H85.9996V87.9996Z" fill="#A3A3A3"/>
<path d="M88.9998 87.9996H86V90.9995H88.9998V87.9996Z" fill="#A3A3A3"/>
<path d="M91.9998 87.9996H89V90.9995H91.9998V87.9996Z" fill="#A3A3A3"/>
<path d="M94.9998 87.9996H92V90.9995H94.9998V87.9996Z" fill="#A3A3A3"/>
<path d="M97.9998 87.9996H95V90.9995H97.9998V87.9996Z" fill="#D3D3D3"/>
<path d="M101 87.9996H98V90.9995H101V87.9996Z" fill="#A3A3A3"/>
<path d="M104 87.9996H101V90.9995H104V87.9996Z" fill="black"/>
<path d="M17.0003 90.9998H14.0005V93.9996H17.0003V90.9998Z" fill="black"/>
<path d="M19.9998 90.9998H17V93.9996H19.9998V90.9998Z" fill="#D3D3D3"/>
<path d="M23.0001 90.9998H20.0002V93.9996H23.0001V90.9998Z" fill="#D3D3D3"/>
<path d="M26.0001 90.9998H23.0002V93.9996H26.0001V90.9998Z" fill="#D3D3D3"/>
<path d="M29.0003 90.9998H26.0005V93.9996H29.0003V90.9998Z" fill="#D3D3D3"/>
<path d="M31.9991 90.9998H28.9993V93.9996H31.9991V90.9998Z" fill="#D3D3D3"/>
<path d="M35.0006 90.9998H32.0007V93.9996H35.0006V90.9998Z" fill="#D3D3D3"/>
<path d="M38.0006 90.9998H35.0007V93.9996H38.0006V90.9998Z" fill="#D3D3D3"/>
<path d="M41.0008 90.9998H38.001V93.9996H41.0008V90.9998Z" fill="#D3D3D3"/>
<path d="M43.9996 90.9998H40.9998V93.9996H43.9996V90.9998Z" fill="#D3D3D3"/>
<path d="M46.9996 90.9998H43.9998V93.9996H46.9996V90.9998Z" fill="#D3D3D3"/>
<path d="M49.9998 90.9998H47V93.9996H49.9998V90.9998Z" fill="#D3D3D3"/>
<path d="M53.0008 90.9998H50.001V93.9996H53.0008V90.9998Z" fill="#D3D3D3"/>
<path d="M55.9998 90.9998H53V93.9996H55.9998V90.9998Z" fill="#D3D3D3"/>
<path d="M58.9998 90.9998H56V93.9996H58.9998V90.9998Z" fill="#D3D3D3"/>
<path d="M62.0001 90.9998H59.0002V93.9996H62.0001V90.9998Z" fill="#D3D3D3"/>
<path d="M65.0001 90.9998H62.0002V93.9996H65.0001V90.9998Z" fill="#D3D3D3"/>
<path d="M67.9991 90.9998H64.9993V93.9996H67.9991V90.9998Z" fill="#D3D3D3"/>
<path d="M71.0001 90.9998H68.0002V93.9996H71.0001V90.9998Z" fill="#D3D3D3"/>
<path d="M74.0001 90.9998H71.0002V93.9996H74.0001V90.9998Z" fill="#D3D3D3"/>
<path d="M77.0006 90.9998H74.0007V93.9996H77.0006V90.9998Z" fill="#D3D3D3"/>
<path d="M79.9996 90.9998H76.9998V93.9996H79.9996V90.9998Z" fill="#D3D3D3"/>
<path d="M82.9996 90.9998H79.9998V93.9996H82.9996V90.9998Z" fill="#D3D3D3"/>
<path d="M85.9996 90.9998H82.9998V93.9996H85.9996V90.9998Z" fill="#D3D3D3"/>
<path d="M88.9998 90.9998H86V93.9996H88.9998V90.9998Z" fill="#D3D3D3"/>
<path d="M91.9998 90.9998H89V93.9996H91.9998V90.9998Z" fill="#D3D3D3"/>
<path d="M94.9998 90.9998H92V93.9996H94.9998V90.9998Z" fill="#D3D3D3"/>
<path d="M97.9998 90.9998H95V93.9996H97.9998V90.9998Z" fill="#A3A3A3"/>
<path d="M101 90.9998H98V93.9996H101V90.9998Z" fill="#A3A3A3"/>
<path d="M104 90.9998H101V93.9996H104V90.9998Z" fill="black"/>
<path d="M19.9998 93.9994H17V96.9992H19.9998V93.9994Z" fill="black"/>
<path d="M23.0001 93.9994H20.0002V96.9992H23.0001V93.9994Z" fill="#A3A3A3"/>
<path d="M26.0001 93.9994H23.0002V96.9992H26.0001V93.9994Z" fill="#A3A3A3"/>
<path d="M29.0003 93.9994H26.0005V96.9992H29.0003V93.9994Z" fill="#A3A3A3"/>
<path d="M31.9991 93.9994H28.9993V96.9992H31.9991V93.9994Z" fill="#A3A3A3"/>
<path d="M35.0006 93.9994H32.0007V96.9992H35.0006V93.9994Z" fill="#A3A3A3"/>
<path d="M38.0006 93.9994H35.0007V96.9992H38.0006V93.9994Z" fill="#A3A3A3"/>
<path d="M41.0008 93.9994H38.001V96.9992H41.0008V93.9994Z" fill="#A3A3A3"/>
<path d="M43.9996 93.9994H40.9998V96.9992H43.9996V93.9994Z" fill="#A3A3A3"/>
<path d="M46.9996 93.9994H43.9998V96.9992H46.9996V93.9994Z" fill="#A3A3A3"/>
<path d="M49.9998 93.9994H47V96.9992H49.9998V93.9994Z" fill="#A3A3A3"/>
<path d="M53.0008 93.9994H50.001V96.9992H53.0008V93.9994Z" fill="#A3A3A3"/>
<path d="M55.9998 93.9994H53V96.9992H55.9998V93.9994Z" fill="#A3A3A3"/>
<path d="M58.9998 93.9994H56V96.9992H58.9998V93.9994Z" fill="#A3A3A3"/>
<path d="M62.0001 93.9994H59.0002V96.9992H62.0001V93.9994Z" fill="#A3A3A3"/>
<path d="M65.0001 93.9994H62.0002V96.9992H65.0001V93.9994Z" fill="#A3A3A3"/>
<path d="M67.9991 93.9994H64.9993V96.9992H67.9991V93.9994Z" fill="#A3A3A3"/>
<path d="M71.0001 93.9994H68.0002V96.9992H71.0001V93.9994Z" fill="#A3A3A3"/>
<path d="M74.0001 93.9994H71.0002V96.9992H74.0001V93.9994Z" fill="#A3A3A3"/>
<path d="M77.0006 93.9994H74.0007V96.9992H77.0006V93.9994Z" fill="#A3A3A3"/>
<path d="M79.9996 93.9994H76.9998V96.9992H79.9996V93.9994Z" fill="#A3A3A3"/>
<path d="M82.9996 93.9994H79.9998V96.9992H82.9996V93.9994Z" fill="#A3A3A3"/>
<path d="M85.9996 93.9994H82.9998V96.9992H85.9996V93.9994Z" fill="#A3A3A3"/>
<path d="M88.9998 93.9994H86V96.9992H88.9998V93.9994Z" fill="#A3A3A3"/>
<path d="M91.9998 93.9994H89V96.9992H91.9998V93.9994Z" fill="#A3A3A3"/>
<path d="M94.9998 93.9994H92V96.9992H94.9998V93.9994Z" fill="#A3A3A3"/>
<path d="M97.9998 93.9994H95V96.9992H97.9998V93.9994Z" fill="#A3A3A3"/>
<path d="M101 93.9994H98V96.9992H101V93.9994Z" fill="black"/>
<path d="M23.0001 97.0001H20.0002V100H23.0001V97.0001Z" fill="black"/>
<path d="M26.0001 97.0001H23.0002V100H26.0001V97.0001Z" fill="black"/>
<path d="M29.0003 97.0001H26.0005V100H29.0003V97.0001Z" fill="black"/>
<path d="M31.9991 97.0001H28.9993V100H31.9991V97.0001Z" fill="black"/>
<path d="M35.0006 97.0001H32.0007V100H35.0006V97.0001Z" fill="black"/>
<path d="M38.0006 97.0001H35.0007V100H38.0006V97.0001Z" fill="black"/>
<path d="M41.0008 97.0001H38.001V100H41.0008V97.0001Z" fill="black"/>
<path d="M43.9996 97.0001H40.9998V100H43.9996V97.0001Z" fill="black"/>
<path d="M46.9996 97.0001H43.9998V100H46.9996V97.0001Z" fill="black"/>
<path d="M49.9998 97.0001H47V100H49.9998V97.0001Z" fill="black"/>
<path d="M53.0008 97.0001H50.001V100H53.0008V97.0001Z" fill="black"/>
<path d="M55.9998 97.0001H53V100H55.9998V97.0001Z" fill="black"/>
<path d="M58.9998 97.0001H56V100H58.9998V97.0001Z" fill="black"/>
<path d="M62.0001 97.0001H59.0002V100H62.0001V97.0001Z" fill="black"/>
<path d="M65.0001 97.0001H62.0002V100H65.0001V97.0001Z" fill="black"/>
<path d="M67.9991 97.0001H64.9993V100H67.9991V97.0001Z" fill="black"/>
<path d="M71.0001 97.0001H68.0002V100H71.0001V97.0001Z" fill="black"/>
<path d="M74.0001 97.0001H71.0002V100H74.0001V97.0001Z" fill="black"/>
<path d="M77.0006 97.0001H74.0007V100H77.0006V97.0001Z" fill="black"/>
<path d="M79.9996 97.0001H76.9998V100H79.9996V97.0001Z" fill="black"/>
<path d="M82.9996 97.0001H79.9998V100H82.9996V97.0001Z" fill="black"/>
<path d="M85.9996 97.0001H82.9998V100H85.9996V97.0001Z" fill="black"/>
<path d="M88.9998 97.0001H86V100H88.9998V97.0001Z" fill="black"/>
<path d="M91.9998 97.0001H89V100H91.9998V97.0001Z" fill="black"/>
<path d="M94.9998 97.0001H92V100H94.9998V97.0001Z" fill="black"/>
<path d="M97.9998 97.0001H95V100H97.9998V97.0001Z" fill="black"/>
</svg>
