<svg width="112" height="112" viewBox="0 0 112 112" fill="none" xmlns="http://www.w3.org/2000/svg">
<g clip-path="url(#clip0_21_4544)">
<path d="M33.9992 4H29.9998V8.00039H33.9992V4Z" fill="black"/>
<path d="M38.0006 4H34.0002V8.00039H38.0006V4Z" fill="black"/>
<path d="M41.9997 4H37.9993V8.00039H41.9997V4Z" fill="black"/>
<path d="M46.0014 4H42.001V8.00039H46.0014V4Z" fill="black"/>
<path d="M50.0002 4H46.0007V8.00039H50.0002V4Z" fill="black"/>
<path d="M54.0014 4H50.001V8.00039H54.0014V4Z" fill="black"/>
<path d="M58.0006 4H54.0002V8.00039H58.0006V4Z" fill="black"/>
<path d="M62.0002 4H58.0007V8.00039H62.0002V4Z" fill="black"/>
<path d="M66.0001 4H61.9998V8.00039H66.0001V4Z" fill="black"/>
<path d="M69.9994 4H65.999V8.00039H69.9994V4Z" fill="black"/>
<path d="M74 4H70.0005V8.00039H74V4Z" fill="black"/>
<path d="M77.9994 4H73.999V8.00039H77.9994V4Z" fill="black"/>
<path d="M82.0011 4H78.0007V8.00039H82.0011V4Z" fill="black"/>
<path d="M86.0004 4H82V8.00039H86.0004V4Z" fill="black"/>
<path d="M89.9997 4H86.0002V8.00039H89.9997V4Z" fill="black"/>
<path d="M94.0004 4H90V8.00039H94.0004V4Z" fill="black"/>
<path d="M30.0004 8.00061H26V12.001H30.0004V8.00061Z" fill="black"/>
<path d="M33.9992 8.00061H29.9998V12.001H33.9992V8.00061Z" fill="#6F6F6F"/>
<path d="M38.0006 8.00061H34.0002V12.001H38.0006V8.00061Z" fill="#6F6F6F"/>
<path d="M41.9997 8.00061H37.9993V12.001H41.9997V8.00061Z" fill="#6F6F6F"/>
<path d="M46.0014 8.00061H42.001V12.001H46.0014V8.00061Z" fill="#6F6F6F"/>
<path d="M50.0002 8.00061H46.0007V12.001H50.0002V8.00061Z" fill="#6F6F6F"/>
<path d="M54.0014 8.00061H50.001V12.001H54.0014V8.00061Z" fill="#6F6F6F"/>
<path d="M58.0006 8.00061H54.0002V12.001H58.0006V8.00061Z" fill="#6F6F6F"/>
<path d="M62.0002 8.00061H58.0007V12.001H62.0002V8.00061Z" fill="#6F6F6F"/>
<path d="M66.0001 8.00061H61.9998V12.001H66.0001V8.00061Z" fill="#6F6F6F"/>
<path d="M69.9994 8.00061H65.999V12.001H69.9994V8.00061Z" fill="#6F6F6F"/>
<path d="M74 8.00061H70.0005V12.001H74V8.00061Z" fill="#6F6F6F"/>
<path d="M77.9994 8.00061H73.999V12.001H77.9994V8.00061Z" fill="#6F6F6F"/>
<path d="M82.0011 8.00061H78.0007V12.001H82.0011V8.00061Z" fill="#6F6F6F"/>
<path d="M86.0004 8.00061H82V12.001H86.0004V8.00061Z" fill="#6F6F6F"/>
<path d="M89.9997 8.00061H86.0002V12.001H89.9997V8.00061Z" fill="#6F6F6F"/>
<path d="M94.0004 8.00061H90V12.001H94.0004V8.00061Z" fill="#6F6F6F"/>
<path d="M98.0006 8.00061H94.0002V12.001H98.0006V8.00061Z" fill="black"/>
<path d="M25.9997 12H21.9993V15.9995H25.9997V12Z" fill="black"/>
<path d="M30.0004 12H26V15.9995H30.0004V12Z" fill="#F2F2F2"/>
<path d="M33.9992 12H29.9998V15.9995H33.9992V12Z" fill="#A3A3A3"/>
<path d="M38.0006 12H34.0002V15.9995H38.0006V12Z" fill="#A3A3A3"/>
<path d="M41.9997 12H37.9993V15.9995H41.9997V12Z" fill="#A3A3A3"/>
<path d="M46.0014 12H42.001V15.9995H46.0014V12Z" fill="#A3A3A3"/>
<path d="M50.0002 12H46.0007V15.9995H50.0002V12Z" fill="#A3A3A3"/>
<path d="M54.0014 12H50.001V15.9995H54.0014V12Z" fill="#A3A3A3"/>
<path d="M58.0006 12H54.0002V15.9995H58.0006V12Z" fill="#A3A3A3"/>
<path d="M62.0002 12H58.0007V15.9995H62.0002V12Z" fill="#A3A3A3"/>
<path d="M66.0001 12H61.9998V15.9995H66.0001V12Z" fill="#A3A3A3"/>
<path d="M69.9994 12H65.999V15.9995H69.9994V12Z" fill="#A3A3A3"/>
<path d="M74 12H70.0005V15.9995H74V12Z" fill="#A3A3A3"/>
<path d="M77.9994 12H73.999V15.9995H77.9994V12Z" fill="#A3A3A3"/>
<path d="M82.0011 12H78.0007V15.9995H82.0011V12Z" fill="#A3A3A3"/>
<path d="M86.0004 12H82V15.9995H86.0004V12Z" fill="#A3A3A3"/>
<path d="M89.9997 12H86.0002V15.9995H89.9997V12Z" fill="#A3A3A3"/>
<path d="M94.0004 12H90V15.9995H94.0004V12Z" fill="#F2F2F2"/>
<path d="M98.0006 12H94.0002V15.9995H98.0006V12Z" fill="#6F6F6F"/>
<path d="M102 12H98.0002V15.9995H102V12Z" fill="black"/>
<path d="M22.0006 16.0006H18.0002V20.001H22.0006V16.0006Z" fill="black"/>
<path d="M25.9997 16.0006H21.9993V20.001H25.9997V16.0006Z" fill="#F2F2F2"/>
<path d="M30.0004 16.0006H26V20.001H30.0004V16.0006Z" fill="#A3A3A3"/>
<path d="M33.9992 16.0006H29.9998V20.001H33.9992V16.0006Z" fill="#A3A3A3"/>
<path d="M38.0006 16.0006H34.0002V20.001H38.0006V16.0006Z" fill="#A3A3A3"/>
<path d="M41.9997 16.0006H37.9993V20.001H41.9997V16.0006Z" fill="#A3A3A3"/>
<path d="M46.0014 16.0006H42.001V20.001H46.0014V16.0006Z" fill="#A3A3A3"/>
<path d="M50.0002 16.0006H46.0007V20.001H50.0002V16.0006Z" fill="#A3A3A3"/>
<path d="M54.0014 16.0006H50.001V20.001H54.0014V16.0006Z" fill="#A3A3A3"/>
<path d="M58.0006 16.0006H54.0002V20.001H58.0006V16.0006Z" fill="#A3A3A3"/>
<path d="M62.0002 16.0006H58.0007V20.001H62.0002V16.0006Z" fill="#A3A3A3"/>
<path d="M66.0001 16.0006H61.9998V20.001H66.0001V16.0006Z" fill="#A3A3A3"/>
<path d="M69.9994 16.0006H65.999V20.001H69.9994V16.0006Z" fill="#A3A3A3"/>
<path d="M74 16.0006H70.0005V20.001H74V16.0006Z" fill="#A3A3A3"/>
<path d="M77.9994 16.0006H73.999V20.001H77.9994V16.0006Z" fill="#A3A3A3"/>
<path d="M82.0011 16.0006H78.0007V20.001H82.0011V16.0006Z" fill="#A3A3A3"/>
<path d="M86.0004 16.0006H82V20.001H86.0004V16.0006Z" fill="#A3A3A3"/>
<path d="M89.9997 16.0006H86.0002V20.001H89.9997V16.0006Z" fill="#F2F2F2"/>
<path d="M94.0004 16.0006H90V20.001H94.0004V16.0006Z" fill="#A3A3A3"/>
<path d="M98.0006 16.0006H94.0002V20.001H98.0006V16.0006Z" fill="#6F6F6F"/>
<path d="M102 16.0006H98.0002V20.001H102V16.0006Z" fill="black"/>
<path d="M17.999 20H13.9995V23.9995H17.999V20Z" fill="black"/>
<path d="M22.0006 20H18.0002V23.9995H22.0006V20Z" fill="#F2F2F2"/>
<path d="M25.9997 20H21.9993V23.9995H25.9997V20Z" fill="#F2F2F2"/>
<path d="M30.0004 20H26V23.9995H30.0004V20Z" fill="#F2F2F2"/>
<path d="M33.9992 20H29.9998V23.9995H33.9992V20Z" fill="#F2F2F2"/>
<path d="M38.0006 20H34.0002V23.9995H38.0006V20Z" fill="#F2F2F2"/>
<path d="M41.9997 20H37.9993V23.9995H41.9997V20Z" fill="#F2F2F2"/>
<path d="M46.0014 20H42.001V23.9995H46.0014V20Z" fill="#F2F2F2"/>
<path d="M50.0002 20H46.0007V23.9995H50.0002V20Z" fill="#F2F2F2"/>
<path d="M54.0014 20H50.001V23.9995H54.0014V20Z" fill="#F2F2F2"/>
<path d="M58.0006 20H54.0002V23.9995H58.0006V20Z" fill="#F2F2F2"/>
<path d="M62.0002 20H58.0007V23.9995H62.0002V20Z" fill="#F2F2F2"/>
<path d="M66.0001 20H61.9998V23.9995H66.0001V20Z" fill="#F2F2F2"/>
<path d="M69.9994 20H65.999V23.9995H69.9994V20Z" fill="#F2F2F2"/>
<path d="M74 20H70.0005V23.9995H74V20Z" fill="#F2F2F2"/>
<path d="M77.9994 20H73.999V23.9995H77.9994V20Z" fill="#F2F2F2"/>
<path d="M82.0011 20H78.0007V23.9995H82.0011V20Z" fill="#F2F2F2"/>
<path d="M86.0004 20H82V23.9995H86.0004V20Z" fill="#F2F2F2"/>
<path d="M89.9997 20H86.0002V23.9995H89.9997V20Z" fill="#A3A3A3"/>
<path d="M94.0004 20H90V23.9995H94.0004V20Z" fill="#A3A3A3"/>
<path d="M98.0006 20H94.0002V23.9995H98.0006V20Z" fill="#6F6F6F"/>
<path d="M102 20H98.0002V23.9995H102V20Z" fill="black"/>
<path d="M14.0004 24.0005H10V28.0009H14.0004V24.0005Z" fill="black"/>
<path d="M17.999 24.0005H13.9995V28.0009H17.999V24.0005Z" fill="#F2F2F2"/>
<path d="M22.0006 24.0005H18.0002V28.0009H22.0006V24.0005Z" fill="#A3A3A3"/>
<path d="M25.9997 24.0005H21.9993V28.0009H25.9997V24.0005Z" fill="#A3A3A3"/>
<path d="M30.0004 24.0005H26V28.0009H30.0004V24.0005Z" fill="#A3A3A3"/>
<path d="M33.9992 24.0005H29.9998V28.0009H33.9992V24.0005Z" fill="#A3A3A3"/>
<path d="M38.0006 24.0005H34.0002V28.0009H38.0006V24.0005Z" fill="#A3A3A3"/>
<path d="M41.9997 24.0005H37.9993V28.0009H41.9997V24.0005Z" fill="#A3A3A3"/>
<path d="M46.0014 24.0005H42.001V28.0009H46.0014V24.0005Z" fill="#A3A3A3"/>
<path d="M50.0002 24.0005H46.0007V28.0009H50.0002V24.0005Z" fill="#A3A3A3"/>
<path d="M54.0014 24.0005H50.001V28.0009H54.0014V24.0005Z" fill="#A3A3A3"/>
<path d="M58.0006 24.0005H54.0002V28.0009H58.0006V24.0005Z" fill="#A3A3A3"/>
<path d="M62.0002 24.0005H58.0007V28.0009H62.0002V24.0005Z" fill="#A3A3A3"/>
<path d="M66.0001 24.0005H61.9998V28.0009H66.0001V24.0005Z" fill="#A3A3A3"/>
<path d="M69.9994 24.0005H65.999V28.0009H69.9994V24.0005Z" fill="#A3A3A3"/>
<path d="M74 24.0005H70.0005V28.0009H74V24.0005Z" fill="#A3A3A3"/>
<path d="M77.9994 24.0005H73.999V28.0009H77.9994V24.0005Z" fill="#A3A3A3"/>
<path d="M82.0011 24.0005H78.0007V28.0009H82.0011V24.0005Z" fill="#A3A3A3"/>
<path d="M86.0004 24.0005H82V28.0009H86.0004V24.0005Z" fill="#F2F2F2"/>
<path d="M89.9997 24.0005H86.0002V28.0009H89.9997V24.0005Z" fill="#A3A3A3"/>
<path d="M94.0004 24.0005H90V28.0009H94.0004V24.0005Z" fill="#A3A3A3"/>
<path d="M98.0006 24.0005H94.0002V28.0009H98.0006V24.0005Z" fill="#6F6F6F"/>
<path d="M102 24.0005H98.0002V28.0009H102V24.0005Z" fill="black"/>
<path d="M14.0004 28.0005H10V32H14.0004V28.0005Z" fill="black"/>
<path d="M17.999 28.0005H13.9995V32H17.999V28.0005Z" fill="#F2F2F2"/>
<path d="M22.0006 28.0005H18.0002V32H22.0006V28.0005Z" fill="#A3A3A3"/>
<path d="M25.9997 28.0005H21.9993V32H25.9997V28.0005Z" fill="black"/>
<path d="M30.0004 28.0005H26V32H30.0004V28.0005Z" fill="black"/>
<path d="M33.9992 28.0005H29.9998V32H33.9992V28.0005Z" fill="black"/>
<path d="M38.0006 28.0005H34.0002V32H38.0006V28.0005Z" fill="black"/>
<path d="M41.9997 28.0005H37.9993V32H41.9997V28.0005Z" fill="black"/>
<path d="M46.0014 28.0005H42.001V32H46.0014V28.0005Z" fill="black"/>
<path d="M50.0002 28.0005H46.0007V32H50.0002V28.0005Z" fill="black"/>
<path d="M54.0014 28.0005H50.001V32H54.0014V28.0005Z" fill="black"/>
<path d="M58.0006 28.0005H54.0002V32H58.0006V28.0005Z" fill="black"/>
<path d="M62.0002 28.0005H58.0007V32H62.0002V28.0005Z" fill="black"/>
<path d="M66.0001 28.0005H61.9998V32H66.0001V28.0005Z" fill="black"/>
<path d="M69.9994 28.0005H65.999V32H69.9994V28.0005Z" fill="black"/>
<path d="M74 28.0005H70.0005V32H74V28.0005Z" fill="black"/>
<path d="M77.9994 28.0005H73.999V32H77.9994V28.0005Z" fill="black"/>
<path d="M82.0011 28.0005H78.0007V32H82.0011V28.0005Z" fill="#A3A3A3"/>
<path d="M86.0004 28.0005H82V32H86.0004V28.0005Z" fill="#F2F2F2"/>
<path d="M89.9997 28.0005H86.0002V32H89.9997V28.0005Z" fill="#A3A3A3"/>
<path d="M94.0004 28.0005H90V32H94.0004V28.0005Z" fill="#A3A3A3"/>
<path d="M98.0006 28.0005H94.0002V32H98.0006V28.0005Z" fill="#6F6F6F"/>
<path d="M102 28.0005H98.0002V32H102V28.0005Z" fill="black"/>
<path d="M14.0004 31.9995H10V35.9999H14.0004V31.9995Z" fill="black"/>
<path d="M17.999 31.9995H13.9995V35.9999H17.999V31.9995Z" fill="#F2F2F2"/>
<path d="M22.0006 31.9995H18.0002V35.9999H22.0006V31.9995Z" fill="#A3A3A3"/>
<path d="M25.9997 31.9995H21.9993V35.9999H25.9997V31.9995Z" fill="black"/>
<path d="M30.0004 31.9995H26V35.9999H30.0004V31.9995Z" fill="black"/>
<path d="M33.9992 31.9995H29.9998V35.9999H33.9992V31.9995Z" fill="black"/>
<path d="M38.0006 31.9995H34.0002V35.9999H38.0006V31.9995Z" fill="black"/>
<path d="M41.9997 31.9995H37.9993V35.9999H41.9997V31.9995Z" fill="black"/>
<path d="M46.0014 31.9995H42.001V35.9999H46.0014V31.9995Z" fill="black"/>
<path d="M50.0002 31.9995H46.0007V35.9999H50.0002V31.9995Z" fill="#011E75"/>
<path d="M54.0014 31.9995H50.001V35.9999H54.0014V31.9995Z" fill="#011E75"/>
<path d="M58.0006 31.9995H54.0002V35.9999H58.0006V31.9995Z" fill="#011E75"/>
<path d="M62.0002 31.9995H58.0007V35.9999H62.0002V31.9995Z" fill="#011E75"/>
<path d="M66.0001 31.9995H61.9998V35.9999H66.0001V31.9995Z" fill="#033FC0"/>
<path d="M69.9994 31.9995H65.999V35.9999H69.9994V31.9995Z" fill="#011E75"/>
<path d="M74 31.9995H70.0005V35.9999H74V31.9995Z" fill="#3EE4ED"/>
<path d="M77.9994 31.9995H73.999V35.9999H77.9994V31.9995Z" fill="#011E75"/>
<path d="M82.0011 31.9995H78.0007V35.9999H82.0011V31.9995Z" fill="#A3A3A3"/>
<path d="M86.0004 31.9995H82V35.9999H86.0004V31.9995Z" fill="#F2F2F2"/>
<path d="M89.9997 31.9995H86.0002V35.9999H89.9997V31.9995Z" fill="#A3A3A3"/>
<path d="M94.0004 31.9995H90V35.9999H94.0004V31.9995Z" fill="#A3A3A3"/>
<path d="M98.0006 31.9995H94.0002V35.9999H98.0006V31.9995Z" fill="#6F6F6F"/>
<path d="M102 31.9995H98.0002V35.9999H102V31.9995Z" fill="black"/>
<path d="M14.0004 36H10V39.9995H14.0004V36Z" fill="black"/>
<path d="M17.999 36H13.9995V39.9995H17.999V36Z" fill="#F2F2F2"/>
<path d="M22.0006 36H18.0002V39.9995H22.0006V36Z" fill="#A3A3A3"/>
<path d="M25.9997 36H21.9993V39.9995H25.9997V36Z" fill="black"/>
<path d="M30.0004 36H26V39.9995H30.0004V36Z" fill="black"/>
<path d="M33.9992 36H29.9998V39.9995H33.9992V36Z" fill="black"/>
<path d="M38.0006 36H34.0002V39.9995H38.0006V36Z" fill="black"/>
<path d="M41.9997 36H37.9993V39.9995H41.9997V36Z" fill="black"/>
<path d="M46.0014 36H42.001V39.9995H46.0014V36Z" fill="#011E75"/>
<path d="M50.0002 36H46.0007V39.9995H50.0002V36Z" fill="#011E75"/>
<path d="M54.0014 36H50.001V39.9995H54.0014V36Z" fill="#011E75"/>
<path d="M58.0006 36H54.0002V39.9995H58.0006V36Z" fill="#011E75"/>
<path d="M62.0002 36H58.0007V39.9995H62.0002V36Z" fill="#033FC0"/>
<path d="M66.0001 36H61.9998V39.9995H66.0001V36Z" fill="#011E75"/>
<path d="M69.9994 36H65.999V39.9995H69.9994V36Z" fill="#3EE4ED"/>
<path d="M74 36H70.0005V39.9995H74V36Z" fill="#033FC0"/>
<path d="M77.9994 36H73.999V39.9995H77.9994V36Z" fill="#011E75"/>
<path d="M82.0011 36H78.0007V39.9995H82.0011V36Z" fill="#A3A3A3"/>
<path d="M86.0004 36H82V39.9995H86.0004V36Z" fill="#F2F2F2"/>
<path d="M89.9997 36H86.0002V39.9995H89.9997V36Z" fill="#A3A3A3"/>
<path d="M94.0004 36H90V39.9995H94.0004V36Z" fill="#A3A3A3"/>
<path d="M98.0006 36H94.0002V39.9995H98.0006V36Z" fill="#6F6F6F"/>
<path d="M102 36H98.0002V39.9995H102V36Z" fill="black"/>
<path d="M14.0004 39.9995H10V43.9999H14.0004V39.9995Z" fill="black"/>
<path d="M17.999 39.9995H13.9995V43.9999H17.999V39.9995Z" fill="#F2F2F2"/>
<path d="M22.0006 39.9995H18.0002V43.9999H22.0006V39.9995Z" fill="#A3A3A3"/>
<path d="M25.9997 39.9995H21.9993V43.9999H25.9997V39.9995Z" fill="black"/>
<path d="M30.0004 39.9995H26V43.9999H30.0004V39.9995Z" fill="black"/>
<path d="M33.9992 39.9995H29.9998V43.9999H33.9992V39.9995Z" fill="black"/>
<path d="M38.0006 39.9995H34.0002V43.9999H38.0006V39.9995Z" fill="black"/>
<path d="M41.9997 39.9995H37.9993V43.9999H41.9997V39.9995Z" fill="#011E75"/>
<path d="M46.0014 39.9995H42.001V43.9999H46.0014V39.9995Z" fill="#011E75"/>
<path d="M50.0002 39.9995H46.0007V43.9999H50.0002V39.9995Z" fill="#011E75"/>
<path d="M54.0014 39.9995H50.001V43.9999H54.0014V39.9995Z" fill="#011E75"/>
<path d="M58.0006 39.9995H54.0002V43.9999H58.0006V39.9995Z" fill="#033FC0"/>
<path d="M62.0002 39.9995H58.0007V43.9999H62.0002V39.9995Z" fill="#011E75"/>
<path d="M66.0001 39.9995H61.9998V43.9999H66.0001V39.9995Z" fill="#3EE4ED"/>
<path d="M69.9994 39.9995H65.999V43.9999H69.9994V39.9995Z" fill="#033FC0"/>
<path d="M74 39.9995H70.0005V43.9999H74V39.9995Z" fill="#3EE4ED"/>
<path d="M77.9994 39.9995H73.999V43.9999H77.9994V39.9995Z" fill="#011E75"/>
<path d="M82.0011 39.9995H78.0007V43.9999H82.0011V39.9995Z" fill="#A3A3A3"/>
<path d="M86.0004 39.9995H82V43.9999H86.0004V39.9995Z" fill="#F2F2F2"/>
<path d="M89.9997 39.9995H86.0002V43.9999H89.9997V39.9995Z" fill="#A3A3A3"/>
<path d="M94.0004 39.9995H90V43.9999H94.0004V39.9995Z" fill="#A3A3A3"/>
<path d="M98.0006 39.9995H94.0002V43.9999H98.0006V39.9995Z" fill="#6F6F6F"/>
<path d="M102 39.9995H98.0002V43.9999H102V39.9995Z" fill="black"/>
<path d="M14.0004 44H10V48.0004H14.0004V44Z" fill="black"/>
<path d="M17.999 44H13.9995V48.0004H17.999V44Z" fill="#F2F2F2"/>
<path d="M22.0006 44H18.0002V48.0004H22.0006V44Z" fill="#A3A3A3"/>
<path d="M25.9997 44H21.9993V48.0004H25.9997V44Z" fill="black"/>
<path d="M30.0004 44H26V48.0004H30.0004V44Z" fill="black"/>
<path d="M33.9992 44H29.9998V48.0004H33.9992V44Z" fill="black"/>
<path d="M38.0006 44H34.0002V48.0004H38.0006V44Z" fill="#011E75"/>
<path d="M41.9997 44H37.9993V48.0004H41.9997V44Z" fill="#011E75"/>
<path d="M46.0014 44H42.001V48.0004H46.0014V44Z" fill="#011E75"/>
<path d="M50.0002 44H46.0007V48.0004H50.0002V44Z" fill="#011E75"/>
<path d="M54.0014 44H50.001V48.0004H54.0014V44Z" fill="#033FC0"/>
<path d="M58.0006 44H54.0002V48.0004H58.0006V44Z" fill="#011E75"/>
<path d="M62.0002 44H58.0007V48.0004H62.0002V44Z" fill="#3EE4ED"/>
<path d="M66.0001 44H61.9998V48.0004H66.0001V44Z" fill="#033FC0"/>
<path d="M69.9994 44H65.999V48.0004H69.9994V44Z" fill="#3EE4ED"/>
<path d="M74 44H70.0005V48.0004H74V44Z" fill="#3EE4ED"/>
<path d="M77.9994 44H73.999V48.0004H77.9994V44Z" fill="#011E75"/>
<path d="M82.0011 44H78.0007V48.0004H82.0011V44Z" fill="#A3A3A3"/>
<path d="M86.0004 44H82V48.0004H86.0004V44Z" fill="#F2F2F2"/>
<path d="M89.9997 44H86.0002V48.0004H89.9997V44Z" fill="#A3A3A3"/>
<path d="M94.0004 44H90V48.0004H94.0004V44Z" fill="#A3A3A3"/>
<path d="M98.0006 44H94.0002V48.0004H98.0006V44Z" fill="#6F6F6F"/>
<path d="M102 44H98.0002V48.0004H102V44Z" fill="black"/>
<path d="M14.0004 48.0007H10V52.0011H14.0004V48.0007Z" fill="black"/>
<path d="M17.999 48.0007H13.9995V52.0011H17.999V48.0007Z" fill="#F2F2F2"/>
<path d="M22.0006 48.0007H18.0002V52.0011H22.0006V48.0007Z" fill="#A3A3A3"/>
<path d="M25.9997 48.0007H21.9993V52.0011H25.9997V48.0007Z" fill="black"/>
<path d="M30.0004 48.0007H26V52.0011H30.0004V48.0007Z" fill="black"/>
<path d="M33.9992 48.0007H29.9998V52.0011H33.9992V48.0007Z" fill="#011E75"/>
<path d="M38.0006 48.0007H34.0002V52.0011H38.0006V48.0007Z" fill="#011E75"/>
<path d="M41.9997 48.0007H37.9993V52.0011H41.9997V48.0007Z" fill="#011E75"/>
<path d="M46.0014 48.0007H42.001V52.0011H46.0014V48.0007Z" fill="#011E75"/>
<path d="M50.0002 48.0007H46.0007V52.0011H50.0002V48.0007Z" fill="#033FC0"/>
<path d="M54.0014 48.0007H50.001V52.0011H54.0014V48.0007Z" fill="#011E75"/>
<path d="M58.0006 48.0007H54.0002V52.0011H58.0006V48.0007Z" fill="#3EE4ED"/>
<path d="M62.0002 48.0007H58.0007V52.0011H62.0002V48.0007Z" fill="#033FC0"/>
<path d="M66.0001 48.0007H61.9998V52.0011H66.0001V48.0007Z" fill="#3EE4ED"/>
<path d="M69.9994 48.0007H65.999V52.0011H69.9994V48.0007Z" fill="#3EE4ED"/>
<path d="M74 48.0007H70.0005V52.0011H74V48.0007Z" fill="#3EE4ED"/>
<path d="M77.9994 48.0007H73.999V52.0011H77.9994V48.0007Z" fill="#011E75"/>
<path d="M82.0011 48.0007H78.0007V52.0011H82.0011V48.0007Z" fill="#A3A3A3"/>
<path d="M86.0004 48.0007H82V52.0011H86.0004V48.0007Z" fill="#F2F2F2"/>
<path d="M89.9997 48.0007H86.0002V52.0011H89.9997V48.0007Z" fill="#A3A3A3"/>
<path d="M94.0004 48.0007H90V52.0011H94.0004V48.0007Z" fill="#A3A3A3"/>
<path d="M98.0006 48.0007H94.0002V52.0011H98.0006V48.0007Z" fill="#6F6F6F"/>
<path d="M102 48.0007H98.0002V52.0011H102V48.0007Z" fill="black"/>
<path d="M14.0004 52H10V56.0004H14.0004V52Z" fill="black"/>
<path d="M17.999 52H13.9995V56.0004H17.999V52Z" fill="#F2F2F2"/>
<path d="M22.0006 52H18.0002V56.0004H22.0006V52Z" fill="#A3A3A3"/>
<path d="M25.9997 52H21.9993V56.0004H25.9997V52Z" fill="black"/>
<path d="M30.0004 52H26V56.0004H30.0004V52Z" fill="#011E75"/>
<path d="M33.9992 52H29.9998V56.0004H33.9992V52Z" fill="#011E75"/>
<path d="M38.0006 52H34.0002V56.0004H38.0006V52Z" fill="#011E75"/>
<path d="M41.9997 52H37.9993V56.0004H41.9997V52Z" fill="#011E75"/>
<path d="M46.0014 52H42.001V56.0004H46.0014V52Z" fill="#033FC0"/>
<path d="M50.0002 52H46.0007V56.0004H50.0002V52Z" fill="#011E75"/>
<path d="M54.0014 52H50.001V56.0004H54.0014V52Z" fill="#3EE4ED"/>
<path d="M58.0006 52H54.0002V56.0004H58.0006V52Z" fill="#033FC0"/>
<path d="M62.0002 52H58.0007V56.0004H62.0002V52Z" fill="#3EE4ED"/>
<path d="M66.0001 52H61.9998V56.0004H66.0001V52Z" fill="#3EE4ED"/>
<path d="M69.9994 52H65.999V56.0004H69.9994V52Z" fill="#3EE4ED"/>
<path d="M74 52H70.0005V56.0004H74V52Z" fill="#3EE4ED"/>
<path d="M77.9994 52H73.999V56.0004H77.9994V52Z" fill="#011E75"/>
<path d="M82.0011 52H78.0007V56.0004H82.0011V52Z" fill="#A3A3A3"/>
<path d="M86.0004 52H82V56.0004H86.0004V52Z" fill="#F2F2F2"/>
<path d="M89.9997 52H86.0002V56.0004H89.9997V52Z" fill="#A3A3A3"/>
<path d="M94.0004 52H90V56.0004H94.0004V52Z" fill="#A3A3A3"/>
<path d="M98.0006 52H94.0002V56.0004H98.0006V52Z" fill="#6F6F6F"/>
<path d="M102 52H98.0002V56.0004H102V52Z" fill="black"/>
<path d="M14.0004 56.0006H10V60.001H14.0004V56.0006Z" fill="black"/>
<path d="M17.999 56.0006H13.9995V60.001H17.999V56.0006Z" fill="#F2F2F2"/>
<path d="M22.0006 56.0006H18.0002V60.001H22.0006V56.0006Z" fill="#A3A3A3"/>
<path d="M25.9997 56.0006H21.9993V60.001H25.9997V56.0006Z" fill="black"/>
<path d="M30.0004 56.0006H26V60.001H30.0004V56.0006Z" fill="#011E75"/>
<path d="M33.9992 56.0006H29.9998V60.001H33.9992V56.0006Z" fill="#011E75"/>
<path d="M38.0006 56.0006H34.0002V60.001H38.0006V56.0006Z" fill="#011E75"/>
<path d="M41.9997 56.0006H37.9993V60.001H41.9997V56.0006Z" fill="#033FC0"/>
<path d="M46.0014 56.0006H42.001V60.001H46.0014V56.0006Z" fill="#011E75"/>
<path d="M50.0002 56.0006H46.0007V60.001H50.0002V56.0006Z" fill="#3EE4ED"/>
<path d="M54.0014 56.0006H50.001V60.001H54.0014V56.0006Z" fill="#033FC0"/>
<path d="M58.0006 56.0006H54.0002V60.001H58.0006V56.0006Z" fill="#3EE4ED"/>
<path d="M62.0002 56.0006H58.0007V60.001H62.0002V56.0006Z" fill="#3EE4ED"/>
<path d="M66.0001 56.0006H61.9998V60.001H66.0001V56.0006Z" fill="#3EE4ED"/>
<path d="M69.9994 56.0006H65.999V60.001H69.9994V56.0006Z" fill="#3EE4ED"/>
<path d="M74 56.0006H70.0005V60.001H74V56.0006Z" fill="#3EE4ED"/>
<path d="M77.9994 56.0006H73.999V60.001H77.9994V56.0006Z" fill="#011E75"/>
<path d="M82.0011 56.0006H78.0007V60.001H82.0011V56.0006Z" fill="#A3A3A3"/>
<path d="M86.0004 56.0006H82V60.001H86.0004V56.0006Z" fill="#F2F2F2"/>
<path d="M89.9997 56.0006H86.0002V60.001H89.9997V56.0006Z" fill="#A3A3A3"/>
<path d="M94.0004 56.0006H90V60.001H94.0004V56.0006Z" fill="#A3A3A3"/>
<path d="M98.0006 56.0006H94.0002V60.001H98.0006V56.0006Z" fill="#6F6F6F"/>
<path d="M102 56.0006H98.0002V60.001H102V56.0006Z" fill="black"/>
<path d="M14.0004 59.9999H10V64.0003H14.0004V59.9999Z" fill="black"/>
<path d="M17.999 59.9999H13.9995V64.0003H17.999V59.9999Z" fill="#F2F2F2"/>
<path d="M22.0006 59.9999H18.0002V64.0003H22.0006V59.9999Z" fill="#A3A3A3"/>
<path d="M25.9997 59.9999H21.9993V64.0003H25.9997V59.9999Z" fill="black"/>
<path d="M30.0004 59.9999H26V64.0003H30.0004V59.9999Z" fill="#011E75"/>
<path d="M33.9992 59.9999H29.9998V64.0003H33.9992V59.9999Z" fill="#011E75"/>
<path d="M38.0006 59.9999H34.0002V64.0003H38.0006V59.9999Z" fill="#033FC0"/>
<path d="M41.9997 59.9999H37.9993V64.0003H41.9997V59.9999Z" fill="#011E75"/>
<path d="M46.0014 59.9999H42.001V64.0003H46.0014V59.9999Z" fill="#3EE4ED"/>
<path d="M50.0002 59.9999H46.0007V64.0003H50.0002V59.9999Z" fill="#033FC0"/>
<path d="M54.0014 59.9999H50.001V64.0003H54.0014V59.9999Z" fill="#3EE4ED"/>
<path d="M58.0006 59.9999H54.0002V64.0003H58.0006V59.9999Z" fill="#3EE4ED"/>
<path d="M62.0002 59.9999H58.0007V64.0003H62.0002V59.9999Z" fill="#3EE4ED"/>
<path d="M66.0001 59.9999H61.9998V64.0003H66.0001V59.9999Z" fill="#3EE4ED"/>
<path d="M69.9994 59.9999H65.999V64.0003H69.9994V59.9999Z" fill="#3EE4ED"/>
<path d="M74 59.9999H70.0005V64.0003H74V59.9999Z" fill="#3EE4ED"/>
<path d="M77.9994 59.9999H73.999V64.0003H77.9994V59.9999Z" fill="#011E75"/>
<path d="M82.0011 59.9999H78.0007V64.0003H82.0011V59.9999Z" fill="#A3A3A3"/>
<path d="M86.0004 59.9999H82V64.0003H86.0004V59.9999Z" fill="#F2F2F2"/>
<path d="M89.9997 59.9999H86.0002V64.0003H89.9997V59.9999Z" fill="#A3A3A3"/>
<path d="M94.0004 59.9999H90V64.0003H94.0004V59.9999Z" fill="#A3A3A3"/>
<path d="M98.0006 59.9999H94.0002V64.0003H98.0006V59.9999Z" fill="#6F6F6F"/>
<path d="M102 59.9999H98.0002V64.0003H102V59.9999Z" fill="black"/>
<path d="M14.0004 64.0005H10V68.0009H14.0004V64.0005Z" fill="black"/>
<path d="M17.999 64.0005H13.9995V68.0009H17.999V64.0005Z" fill="#F2F2F2"/>
<path d="M22.0006 64.0005H18.0002V68.0009H22.0006V64.0005Z" fill="#A3A3A3"/>
<path d="M25.9997 64.0005H21.9993V68.0009H25.9997V64.0005Z" fill="black"/>
<path d="M30.0004 64.0005H26V68.0009H30.0004V64.0005Z" fill="#011E75"/>
<path d="M33.9992 64.0005H29.9998V68.0009H33.9992V64.0005Z" fill="#033FC0"/>
<path d="M38.0006 64.0005H34.0002V68.0009H38.0006V64.0005Z" fill="#011E75"/>
<path d="M41.9997 64.0005H37.9993V68.0009H41.9997V64.0005Z" fill="#3EE4ED"/>
<path d="M46.0014 64.0005H42.001V68.0009H46.0014V64.0005Z" fill="#033FC0"/>
<path d="M50.0002 64.0005H46.0007V68.0009H50.0002V64.0005Z" fill="#3EE4ED"/>
<path d="M54.0014 64.0005H50.001V68.0009H54.0014V64.0005Z" fill="#3EE4ED"/>
<path d="M58.0006 64.0005H54.0002V68.0009H58.0006V64.0005Z" fill="#3EE4ED"/>
<path d="M62.0002 64.0005H58.0007V68.0009H62.0002V64.0005Z" fill="#3EE4ED"/>
<path d="M66.0001 64.0005H61.9998V68.0009H66.0001V64.0005Z" fill="#3EE4ED"/>
<path d="M69.9994 64.0005H65.999V68.0009H69.9994V64.0005Z" fill="#3EE4ED"/>
<path d="M74 64.0005H70.0005V68.0009H74V64.0005Z" fill="#3EE4ED"/>
<path d="M77.9994 64.0005H73.999V68.0009H77.9994V64.0005Z" fill="#011E75"/>
<path d="M82.0011 64.0005H78.0007V68.0009H82.0011V64.0005Z" fill="#A3A3A3"/>
<path d="M86.0004 64.0005H82V68.0009H86.0004V64.0005Z" fill="#F2F2F2"/>
<path d="M89.9997 64.0005H86.0002V68.0009H89.9997V64.0005Z" fill="#A3A3A3"/>
<path d="M94.0004 64.0005H90V68.0009H94.0004V64.0005Z" fill="#A3A3A3"/>
<path d="M98.0006 64.0005H94.0002V68.0009H98.0006V64.0005Z" fill="#6F6F6F"/>
<path d="M102 64.0005H98.0002V68.0009H102V64.0005Z" fill="black"/>
<path d="M14.0004 68.0009H10V72.0003H14.0004V68.0009Z" fill="black"/>
<path d="M17.999 68.0009H13.9995V72.0003H17.999V68.0009Z" fill="#F2F2F2"/>
<path d="M22.0006 68.0009H18.0002V72.0003H22.0006V68.0009Z" fill="#A3A3A3"/>
<path d="M25.9997 68.0009H21.9993V72.0003H25.9997V68.0009Z" fill="black"/>
<path d="M30.0004 68.0009H26V72.0003H30.0004V68.0009Z" fill="#033FC0"/>
<path d="M33.9992 68.0009H29.9998V72.0003H33.9992V68.0009Z" fill="#011E75"/>
<path d="M38.0006 68.0009H34.0002V72.0003H38.0006V68.0009Z" fill="#3EE4ED"/>
<path d="M41.9997 68.0009H37.9993V72.0003H41.9997V68.0009Z" fill="#033FC0"/>
<path d="M46.0014 68.0009H42.001V72.0003H46.0014V68.0009Z" fill="#3EE4ED"/>
<path d="M50.0002 68.0009H46.0007V72.0003H50.0002V68.0009Z" fill="#3EE4ED"/>
<path d="M54.0014 68.0009H50.001V72.0003H54.0014V68.0009Z" fill="#3EE4ED"/>
<path d="M58.0006 68.0009H54.0002V72.0003H58.0006V68.0009Z" fill="#3EE4ED"/>
<path d="M62.0002 68.0009H58.0007V72.0003H62.0002V68.0009Z" fill="#3EE4ED"/>
<path d="M66.0001 68.0009H61.9998V72.0003H66.0001V68.0009Z" fill="#3EE4ED"/>
<path d="M69.9994 68.0009H65.999V72.0003H69.9994V68.0009Z" fill="#3EE4ED"/>
<path d="M74 68.0009H70.0005V72.0003H74V68.0009Z" fill="#3EE4ED"/>
<path d="M77.9994 68.0009H73.999V72.0003H77.9994V68.0009Z" fill="#011E75"/>
<path d="M82.0011 68.0009H78.0007V72.0003H82.0011V68.0009Z" fill="#A3A3A3"/>
<path d="M86.0004 68.0009H82V72.0003H86.0004V68.0009Z" fill="#F2F2F2"/>
<path d="M89.9997 68.0009H86.0002V72.0003H89.9997V68.0009Z" fill="#A3A3A3"/>
<path d="M94.0004 68.0009H90V72.0003H94.0004V68.0009Z" fill="#A3A3A3"/>
<path d="M98.0006 68.0009H94.0002V72.0003H98.0006V68.0009Z" fill="#6F6F6F"/>
<path d="M102 68.0009H98.0002V72.0003H102V68.0009Z" fill="black"/>
<path d="M14.0004 72.0004H10V76.0008H14.0004V72.0004Z" fill="black"/>
<path d="M17.999 72.0004H13.9995V76.0008H17.999V72.0004Z" fill="#F2F2F2"/>
<path d="M22.0006 72.0004H18.0002V76.0008H22.0006V72.0004Z" fill="#A3A3A3"/>
<path d="M25.9997 72.0004H21.9993V76.0008H25.9997V72.0004Z" fill="black"/>
<path d="M30.0004 72.0004H26V76.0008H30.0004V72.0004Z" fill="#011E75"/>
<path d="M33.9992 72.0004H29.9998V76.0008H33.9992V72.0004Z" fill="#011E75"/>
<path d="M38.0006 72.0004H34.0002V76.0008H38.0006V72.0004Z" fill="#011E75"/>
<path d="M41.9997 72.0004H37.9993V76.0008H41.9997V72.0004Z" fill="#011E75"/>
<path d="M46.0014 72.0004H42.001V76.0008H46.0014V72.0004Z" fill="#011E75"/>
<path d="M50.0002 72.0004H46.0007V76.0008H50.0002V72.0004Z" fill="#011E75"/>
<path d="M54.0014 72.0004H50.001V76.0008H54.0014V72.0004Z" fill="#011E75"/>
<path d="M58.0006 72.0004H54.0002V76.0008H58.0006V72.0004Z" fill="#011E75"/>
<path d="M62.0002 72.0004H58.0007V76.0008H62.0002V72.0004Z" fill="#011E75"/>
<path d="M66.0001 72.0004H61.9998V76.0008H66.0001V72.0004Z" fill="#011E75"/>
<path d="M69.9994 72.0004H65.999V76.0008H69.9994V72.0004Z" fill="#011E75"/>
<path d="M74 72.0004H70.0005V76.0008H74V72.0004Z" fill="#011E75"/>
<path d="M77.9994 72.0004H73.999V76.0008H77.9994V72.0004Z" fill="#011E75"/>
<path d="M82.0011 72.0004H78.0007V76.0008H82.0011V72.0004Z" fill="#A3A3A3"/>
<path d="M86.0004 72.0004H82V76.0008H86.0004V72.0004Z" fill="#F2F2F2"/>
<path d="M89.9997 72.0004H86.0002V76.0008H89.9997V72.0004Z" fill="#A3A3A3"/>
<path d="M94.0004 72.0004H90V76.0008H94.0004V72.0004Z" fill="#6F6F6F"/>
<path d="M98.0006 72.0004H94.0002V76.0008H98.0006V72.0004Z" fill="black"/>
<path d="M14.0004 76.001H10V80.0004H14.0004V76.001Z" fill="black"/>
<path d="M17.999 76.001H13.9995V80.0004H17.999V76.001Z" fill="#F2F2F2"/>
<path d="M22.0006 76.001H18.0002V80.0004H22.0006V76.001Z" fill="#A3A3A3"/>
<path d="M25.9997 76.001H21.9993V80.0004H25.9997V76.001Z" fill="#A3A3A3"/>
<path d="M30.0004 76.001H26V80.0004H30.0004V76.001Z" fill="#A3A3A3"/>
<path d="M33.9992 76.001H29.9998V80.0004H33.9992V76.001Z" fill="#A3A3A3"/>
<path d="M38.0006 76.001H34.0002V80.0004H38.0006V76.001Z" fill="#A3A3A3"/>
<path d="M41.9997 76.001H37.9993V80.0004H41.9997V76.001Z" fill="#A3A3A3"/>
<path d="M46.0014 76.001H42.001V80.0004H46.0014V76.001Z" fill="#A3A3A3"/>
<path d="M50.0002 76.001H46.0007V80.0004H50.0002V76.001Z" fill="#A3A3A3"/>
<path d="M54.0014 76.001H50.001V80.0004H54.0014V76.001Z" fill="#A3A3A3"/>
<path d="M58.0006 76.001H54.0002V80.0004H58.0006V76.001Z" fill="#A3A3A3"/>
<path d="M62.0002 76.001H58.0007V80.0004H62.0002V76.001Z" fill="#A3A3A3"/>
<path d="M66.0001 76.001H61.9998V80.0004H66.0001V76.001Z" fill="#A3A3A3"/>
<path d="M69.9994 76.001H65.999V80.0004H69.9994V76.001Z" fill="#A3A3A3"/>
<path d="M74 76.001H70.0005V80.0004H74V76.001Z" fill="#A3A3A3"/>
<path d="M77.9994 76.001H73.999V80.0004H77.9994V76.001Z" fill="#A3A3A3"/>
<path d="M82.0011 76.001H78.0007V80.0004H82.0011V76.001Z" fill="#A3A3A3"/>
<path d="M86.0004 76.001H82V80.0004H86.0004V76.001Z" fill="#F2F2F2"/>
<path d="M89.9997 76.001H86.0002V80.0004H89.9997V76.001Z" fill="#6F6F6F"/>
<path d="M94.0004 76.001H90V80.0004H94.0004V76.001Z" fill="black"/>
<path d="M14.0004 80.0002H10V84.0006H14.0004V80.0002Z" fill="black"/>
<path d="M17.999 80.0002H13.9995V84.0006H17.999V80.0002Z" fill="#6F6F6F"/>
<path d="M22.0006 80.0002H18.0002V84.0006H22.0006V80.0002Z" fill="#6F6F6F"/>
<path d="M25.9997 80.0002H21.9993V84.0006H25.9997V80.0002Z" fill="#6F6F6F"/>
<path d="M30.0004 80.0002H26V84.0006H30.0004V80.0002Z" fill="#6F6F6F"/>
<path d="M33.9992 80.0002H29.9998V84.0006H33.9992V80.0002Z" fill="#6F6F6F"/>
<path d="M38.0006 80.0002H34.0002V84.0006H38.0006V80.0002Z" fill="#6F6F6F"/>
<path d="M41.9997 80.0002H37.9993V84.0006H41.9997V80.0002Z" fill="#6F6F6F"/>
<path d="M46.0014 80.0002H42.001V84.0006H46.0014V80.0002Z" fill="#6F6F6F"/>
<path d="M50.0002 80.0002H46.0007V84.0006H50.0002V80.0002Z" fill="#6F6F6F"/>
<path d="M54.0014 80.0002H50.001V84.0006H54.0014V80.0002Z" fill="#6F6F6F"/>
<path d="M58.0006 80.0002H54.0002V84.0006H58.0006V80.0002Z" fill="#6F6F6F"/>
<path d="M62.0002 80.0002H58.0007V84.0006H62.0002V80.0002Z" fill="#6F6F6F"/>
<path d="M66.0001 80.0002H61.9998V84.0006H66.0001V80.0002Z" fill="#6F6F6F"/>
<path d="M69.9994 80.0002H65.999V84.0006H69.9994V80.0002Z" fill="#6F6F6F"/>
<path d="M74 80.0002H70.0005V84.0006H74V80.0002Z" fill="#6F6F6F"/>
<path d="M77.9994 80.0002H73.999V84.0006H77.9994V80.0002Z" fill="#6F6F6F"/>
<path d="M82.0011 80.0002H78.0007V84.0006H82.0011V80.0002Z" fill="#6F6F6F"/>
<path d="M86.0004 80.0002H82V84.0006H86.0004V80.0002Z" fill="#6F6F6F"/>
<path d="M89.9997 80.0002H86.0002V84.0006H89.9997V80.0002Z" fill="black"/>
<path d="M17.999 84H13.9995V88.0004H17.999V84Z" fill="black"/>
<path d="M22.0006 84H18.0002V88.0004H22.0006V84Z" fill="black"/>
<path d="M25.9997 84H21.9993V88.0004H25.9997V84Z" fill="black"/>
<path d="M30.0004 84H26V88.0004H30.0004V84Z" fill="black"/>
<path d="M33.9992 84H29.9998V88.0004H33.9992V84Z" fill="black"/>
<path d="M38.0006 84H34.0002V88.0004H38.0006V84Z" fill="black"/>
<path d="M41.9997 84H37.9993V88.0004H41.9997V84Z" fill="black"/>
<path d="M46.0014 84H42.001V88.0004H46.0014V84Z" fill="black"/>
<path d="M50.0002 84H46.0007V88.0004H50.0002V84Z" fill="black"/>
<path d="M54.0014 84H50.001V88.0004H54.0014V84Z" fill="black"/>
<path d="M58.0006 84H54.0002V88.0004H58.0006V84Z" fill="black"/>
<path d="M62.0002 84H58.0007V88.0004H62.0002V84Z" fill="black"/>
<path d="M66.0001 84H61.9998V88.0004H66.0001V84Z" fill="black"/>
<path d="M69.9994 84H65.999V88.0004H69.9994V84Z" fill="black"/>
<path d="M74 84H70.0005V88.0004H74V84Z" fill="black"/>
<path d="M77.9994 84H73.999V88.0004H77.9994V84Z" fill="black"/>
<path d="M82.0011 84H78.0007V88.0004H82.0011V84Z" fill="black"/>
<path d="M86.0004 84H82V88.0004H86.0004V84Z" fill="black"/>
<path d="M30.0004 88.0006H26V92.001H30.0004V88.0006Z" fill="black"/>
<path d="M33.9992 88.0006H29.9998V92.001H33.9992V88.0006Z" fill="black"/>
<path d="M38.0006 88.0006H34.0002V92.001H38.0006V88.0006Z" fill="#6F6F6F"/>
<path d="M41.9997 88.0006H37.9993V92.001H41.9997V88.0006Z" fill="#6F6F6F"/>
<path d="M46.0014 88.0006H42.001V92.001H46.0014V88.0006Z" fill="black"/>
<path d="M50.0002 88.0006H46.0007V92.001H50.0002V88.0006Z" fill="#6F6F6F"/>
<path d="M54.0014 88.0006H50.001V92.001H54.0014V88.0006Z" fill="#6F6F6F"/>
<path d="M58.0006 88.0006H54.0002V92.001H58.0006V88.0006Z" fill="#6F6F6F"/>
<path d="M62.0002 88.0006H58.0007V92.001H62.0002V88.0006Z" fill="#6F6F6F"/>
<path d="M66.0001 88.0006H61.9998V92.001H66.0001V88.0006Z" fill="#6F6F6F"/>
<path d="M69.9994 88.0006H65.999V92.001H69.9994V88.0006Z" fill="#6F6F6F"/>
<path d="M74 88.0006H70.0005V92.001H74V88.0006Z" fill="black"/>
<path d="M77.9994 88.0006H73.999V92.001H77.9994V88.0006Z" fill="#6F6F6F"/>
<path d="M82.0011 88.0006H78.0007V92.001H82.0011V88.0006Z" fill="#6F6F6F"/>
<path d="M86.0004 88.0006H82V92.001H86.0004V88.0006Z" fill="black"/>
<path d="M89.9997 88.0006H86.0002V92.001H89.9997V88.0006Z" fill="black"/>
<path d="M25.9997 91.9999H21.9993V96.0003H25.9997V91.9999Z" fill="black"/>
<path d="M30.0004 91.9999H26V96.0003H30.0004V91.9999Z" fill="#6F6F6F"/>
<path d="M33.9992 91.9999H29.9998V96.0003H33.9992V91.9999Z" fill="#A3A3A3"/>
<path d="M38.0006 91.9999H34.0002V96.0003H38.0006V91.9999Z" fill="#A3A3A3"/>
<path d="M41.9997 91.9999H37.9993V96.0003H41.9997V91.9999Z" fill="#6F6F6F"/>
<path d="M46.0014 91.9999H42.001V96.0003H46.0014V91.9999Z" fill="black"/>
<path d="M50.0002 91.9999H46.0007V96.0003H50.0002V91.9999Z" fill="#F2F2F2"/>
<path d="M54.0014 91.9999H50.001V96.0003H54.0014V91.9999Z" fill="#A3A3A3"/>
<path d="M58.0006 91.9999H54.0002V96.0003H58.0006V91.9999Z" fill="#A3A3A3"/>
<path d="M62.0002 91.9999H58.0007V96.0003H62.0002V91.9999Z" fill="#A3A3A3"/>
<path d="M66.0001 91.9999H61.9998V96.0003H66.0001V91.9999Z" fill="#A3A3A3"/>
<path d="M69.9994 91.9999H65.999V96.0003H69.9994V91.9999Z" fill="#6F6F6F"/>
<path d="M74 91.9999H70.0005V96.0003H74V91.9999Z" fill="black"/>
<path d="M77.9994 91.9999H73.999V96.0003H77.9994V91.9999Z" fill="#6F6F6F"/>
<path d="M82.0011 91.9999H78.0007V96.0003H82.0011V91.9999Z" fill="#A3A3A3"/>
<path d="M86.0004 91.9999H82V96.0003H86.0004V91.9999Z" fill="#6F6F6F"/>
<path d="M89.9997 91.9999H86.0002V96.0003H89.9997V91.9999Z" fill="#6F6F6F"/>
<path d="M94.0004 91.9999H90V96.0003H94.0004V91.9999Z" fill="black"/>
<path d="M25.9997 96.0005H21.9993V100H25.9997V96.0005Z" fill="black"/>
<path d="M30.0004 96.0005H26V100H30.0004V96.0005Z" fill="#F2F2F2"/>
<path d="M33.9992 96.0005H29.9998V100H33.9992V96.0005Z" fill="#F2F2F2"/>
<path d="M38.0006 96.0005H34.0002V100H38.0006V96.0005Z" fill="#A3A3A3"/>
<path d="M41.9997 96.0005H37.9993V100H41.9997V96.0005Z" fill="#A3A3A3"/>
<path d="M46.0014 96.0005H42.001V100H46.0014V96.0005Z" fill="#A3A3A3"/>
<path d="M50.0002 96.0005H46.0007V100H50.0002V96.0005Z" fill="#A3A3A3"/>
<path d="M54.0014 96.0005H50.001V100H54.0014V96.0005Z" fill="#A3A3A3"/>
<path d="M58.0006 96.0005H54.0002V100H58.0006V96.0005Z" fill="#A3A3A3"/>
<path d="M62.0002 96.0005H58.0007V100H62.0002V96.0005Z" fill="#A3A3A3"/>
<path d="M66.0001 96.0005H61.9998V100H66.0001V96.0005Z" fill="#A3A3A3"/>
<path d="M69.9994 96.0005H65.999V100H69.9994V96.0005Z" fill="#A3A3A3"/>
<path d="M74 96.0005H70.0005V100H74V96.0005Z" fill="#A3A3A3"/>
<path d="M77.9994 96.0005H73.999V100H77.9994V96.0005Z" fill="#A3A3A3"/>
<path d="M82.0011 96.0005H78.0007V100H82.0011V96.0005Z" fill="#A3A3A3"/>
<path d="M86.0004 96.0005H82V100H86.0004V96.0005Z" fill="#A3A3A3"/>
<path d="M89.9997 96.0005H86.0002V100H89.9997V96.0005Z" fill="#6F6F6F"/>
<path d="M94.0004 96.0005H90V100H94.0004V96.0005Z" fill="black"/>
<path d="M30.0004 99.9998H26V104H30.0004V99.9998Z" fill="black"/>
<path d="M33.9992 99.9998H29.9998V104H33.9992V99.9998Z" fill="black"/>
<path d="M38.0006 99.9998H34.0002V104H38.0006V99.9998Z" fill="#F2F2F2"/>
<path d="M41.9997 99.9998H37.9993V104H41.9997V99.9998Z" fill="#F2F2F2"/>
<path d="M46.0014 99.9998H42.001V104H46.0014V99.9998Z" fill="#F2F2F2"/>
<path d="M50.0002 99.9998H46.0007V104H50.0002V99.9998Z" fill="#F2F2F2"/>
<path d="M54.0014 99.9998H50.001V104H54.0014V99.9998Z" fill="#F2F2F2"/>
<path d="M58.0006 99.9998H54.0002V104H58.0006V99.9998Z" fill="#F2F2F2"/>
<path d="M62.0002 99.9998H58.0007V104H62.0002V99.9998Z" fill="#F2F2F2"/>
<path d="M66.0001 99.9998H61.9998V104H66.0001V99.9998Z" fill="#F2F2F2"/>
<path d="M69.9994 99.9998H65.999V104H69.9994V99.9998Z" fill="#F2F2F2"/>
<path d="M74 99.9998H70.0005V104H74V99.9998Z" fill="#F2F2F2"/>
<path d="M77.9994 99.9998H73.999V104H77.9994V99.9998Z" fill="#A3A3A3"/>
<path d="M82.0011 99.9998H78.0007V104H82.0011V99.9998Z" fill="#A3A3A3"/>
<path d="M86.0004 99.9998H82V104H86.0004V99.9998Z" fill="black"/>
<path d="M89.9997 99.9998H86.0002V104H89.9997V99.9998Z" fill="black"/>
<path d="M38.0006 104H34.0002V108H38.0006V104Z" fill="black"/>
<path d="M41.9997 104H37.9993V108H41.9997V104Z" fill="black"/>
<path d="M46.0014 104H42.001V108H46.0014V104Z" fill="black"/>
<path d="M50.0002 104H46.0007V108H50.0002V104Z" fill="black"/>
<path d="M54.0014 104H50.001V108H54.0014V104Z" fill="black"/>
<path d="M58.0006 104H54.0002V108H58.0006V104Z" fill="black"/>
<path d="M62.0002 104H58.0007V108H62.0002V104Z" fill="black"/>
<path d="M66.0001 104H61.9998V108H66.0001V104Z" fill="black"/>
<path d="M69.9994 104H65.999V108H69.9994V104Z" fill="black"/>
<path d="M74 104H70.0005V108H74V104Z" fill="black"/>
<path d="M77.9994 104H73.999V108H77.9994V104Z" fill="black"/>
<path d="M82.0011 104H78.0007V108H82.0011V104Z" fill="black"/>
<path d="M112 0V112" stroke="#0B17B4"/>
<path d="M112 0.00012207L-7.15256e-07 0.000124432" stroke="#0B17B4"/>
</g>
<defs>
<clipPath id="clip0_21_4544">
<rect width="112" height="112" fill="white"/>
</clipPath>
</defs>
</svg>
