<?xml version="1.0" standalone="no"?>
<!DOCTYPE svg PUBLIC "-//W3C//DTD SVG 20010904//EN"
 "http://www.w3.org/TR/2001/REC-SVG-20010904/DTD/svg10.dtd">
<svg version="1.0" xmlns="http://www.w3.org/2000/svg"
 width="135.000000pt" height="135.000000pt" viewBox="0 0 135.000000 135.000000"
 preserveAspectRatio="xMidYMid meet">

<g transform="translate(0.000000,135.000000) scale(0.100000,-0.100000)"
fill="#000000" stroke="none">
<path d="M1300 670 l0 -610 -620 0 -620 0 0 -30 0 -30 645 0 645 0 0 640 0
640 -25 0 -25 0 0 -610z"/>
<path d="M200 1124 c0 -10 223 -274 231 -274 5 0 9 -4 9 -8 0 -5 17 -27 38
-48 20 -22 51 -58 69 -80 l32 -40 -67 -80 c-36 -43 -78 -90 -92 -104 -33 -32
-220 -256 -220 -264 0 -3 37 -6 83 -6 80 0 83 1 119 35 20 19 87 95 148 170
62 74 115 135 118 135 9 0 102 -101 102 -111 0 -5 4 -9 8 -9 5 0 50 -49 101
-110 l92 -110 89 0 c50 0 90 4 90 8 0 5 -21 31 -48 58 -26 27 -105 119 -176
204 -71 85 -136 163 -145 173 -14 17 -14 20 -1 30 9 7 74 82 145 167 72 85
151 177 177 204 27 28 48 53 48 58 0 4 -40 8 -90 8 l-89 0 -96 -114 c-53 -63
-99 -116 -103 -118 -4 -2 -27 -27 -51 -55 -24 -29 -47 -53 -51 -53 -4 0 -47
48 -96 107 -48 58 -116 135 -149 170 l-60 63 -83 0 c-45 0 -82 -3 -82 -6z"/>
</g>
</svg>
